<?xml version="1.0" encoding="UTF-8"?>
<!DOCTYPE svg PUBLIC "-//W3C//DTD SVG 1.1//EN" "http://www.w3.org/Graphics/SVG/1.1/DTD/svg11.dtd">
<!-- Creator: CorelDRAW -->
<svg xmlns="http://www.w3.org/2000/svg" xml:space="preserve" width="101.203mm" height="15.312mm" version="1.1" style="shape-rendering:geometricPrecision; text-rendering:geometricPrecision; image-rendering:optimizeQuality; fill-rule:evenodd; clip-rule:evenodd"
viewBox="0 0 10120.3 1531.2"
 xmlns:xlink="http://www.w3.org/1999/xlink"
 xmlns:xodm="http://www.corel.com/coreldraw/odm/2003">
 <defs>
  <style type="text/css">
   <![CDATA[
    .fil0 {fill:white}
   ]]>
  </style>
 </defs>
 <g id="Capa_x0020_1">
  <metadata id="CorelCorpID_0Corel-Layer"/>
  <g id="_2279685385264">
   <path class="fil0" d="M6682.58 847.2c24.05,9.98 67.37,-26.05 91.72,0.36 0.66,0.72 1.3,2.9 1.85,3.7l26.88 28.73 -66.51 -5.15c11.41,15.89 -2.56,6.57 17.25,10.84 36.42,0.98 85.7,9.09 116.91,19.19 19.05,6.16 28.48,10.78 48.28,16.72 72.52,21.74 43.05,56.23 71.4,147.02 13.21,42.31 27.69,69.37 50.46,100.05 88.84,119.74 244.19,169.6 389.04,169.6 6.94,-32.96 2.87,-46.03 -9.89,-82.54 -18.83,-53.87 -37.99,-97.97 -67.46,-143.64 -16.23,-25.16 -34.25,-37.16 -49.41,-62.22 50.16,0 244.63,29.99 295.79,-54.57 -7.33,-30.38 -11.66,-25.23 -34.6,-39.65 -12.51,-7.86 -31.04,-19.34 -43.92,-29.34 -70.26,-54.55 -161.22,-97.03 -247.22,-116.12 -13.66,-3.03 -16.47,-2.55 -29.38,-6.45 -2.27,-0.69 -8.71,-2.91 -10.73,-3.71 -15.84,-6.32 -6.61,-1.88 -14.46,-7.39 115.54,-10.64 125.47,-23.29 260.58,-23.38 192.31,-0.13 76.49,19.25 163.21,209.09 7.31,16 16.7,29.75 29.07,45.78 8.98,11.63 25.15,33.69 32.61,41.85 9.53,10.42 27.54,22.29 40.63,32.98 38.33,31.29 144.07,83.42 206.34,83.42 68.69,-113.53 -14.59,-294.04 -116.79,-369.61 -21.75,-16.08 -31.73,-15.38 -45.19,-35.72 30.15,0 183.21,3.28 200.59,19.63 45.62,42.93 0.15,127.31 177.23,232.55 44.24,26.29 112.36,28.43 178.55,28.43 -34.16,-71.44 -51.62,-124.54 -107.69,-177.02 -24.55,-22.98 -50.99,-41.21 -80.15,-59.38 -38.28,-23.87 -55.9,-24.8 -100.91,-36.41 47.88,-33.63 194.17,7.6 247.81,14.13 50.08,6.09 40.36,3.88 76.15,24.84 0,216.84 79.9,365.97 258.06,462.68 66.35,36.01 79.02,37.79 89.36,-46.98 12.67,-103.9 -4.7,-210.55 -70.9,-285.25 -14.91,-16.82 -26.58,-34.98 -40.26,-48.97 -16.99,-17.37 -33.68,-23.73 -46.11,-42.5 70.34,18.13 136.98,45.45 207.43,66.61 82.5,24.79 43.17,68.05 70.16,218.55 25.34,141.33 120.25,281.41 250.61,315.03 29.11,-48.12 42.44,-82.87 42.47,-163.56 0.04,-99.24 -7.97,-106.87 -45.29,-168.5 -80.84,-133.51 -118.33,-118.57 -206.07,-177.25 -14.03,-9.38 -7.06,-3.88 -16.48,-12.94 21.11,1.94 48.02,10.81 65.31,13.46 63.08,9.65 132.47,19.29 188.23,48.9 0,71.34 9.32,128.14 35.55,186.7l25.69 49.51c67.79,108.76 299.41,282.77 250.69,10.95 -22.87,-127.65 -47.33,-112.26 -100.65,-200.39 177.08,0 198.62,134.35 381.22,154.9 103.94,11.69 342.7,-20.37 400.51,-115.93 -31.97,-52.85 -178.59,-104.47 -238.64,-117.82 -227.03,-50.46 -354.02,56.17 -439.36,42.65 -100.09,-15.86 -189.33,-43.28 -286.2,-65.85 -45.35,-10.57 -96.73,-38.26 -141.49,-38.26 13.82,-20.88 49.31,-33.88 82.51,-29.69 31.66,4 63.93,20.12 100.47,22.04 75.09,3.94 160.65,2.45 217.1,-17.22 81.08,-28.26 151.17,-84.83 214.73,-144.28 23.44,-21.91 51.12,-31.01 54.24,-72.48 -94.32,-50.09 -308.37,-47.32 -400.74,-14.83 -130.27,45.84 -180.58,141.82 -202.34,158 -23.83,17.71 -51.95,34.8 -79.97,44 -156.79,51.49 -229.08,6.6 -383.21,-35.95 -105.85,-29.22 -272.27,-81.07 -377.48,-81.07l99.61 -53.43c33.5,-14 66.47,-26.22 105.2,-32.44 79.98,-12.84 75.62,48.79 176.29,92.77 141.38,61.78 388.31,25.93 435.84,-45.87 -14.68,-60.85 -124.86,-111.92 -176,-132.58 -82.63,-33.36 -156.06,-48.47 -253.6,-23.32 43.84,-66.22 135.33,-67.64 204,-78.2 142.47,-21.93 269.49,-111.65 348.31,-238.07 28.72,-46.06 87.22,-146.58 88.57,-213.76 -210.15,0 -452.52,114.86 -532.36,338.35 -40.99,114.74 -37.86,98.1 -136.28,160.96 -61.9,39.55 -115.91,72.06 -186.15,97.96 -22.46,8.28 -58.36,17.55 -74.84,26.3 6.65,-27.56 8.8,-20.85 27.26,-39.99 1.06,-1.09 2.61,-2.63 3.65,-3.75 1.03,-1.12 2.5,-2.76 3.51,-3.91l20.03 -24.6c63.67,-64.7 216.68,-80.52 303.85,-334.04 25.01,-72.71 44.5,-151.67 29.05,-225.08 -56.46,5.2 -155.34,67.97 -203.02,102.68 -263.4,191.68 -162.41,360.65 -195.67,445.45 -32.17,82 -97.59,115.41 -174.27,142.83 -110.4,39.49 -263.41,28.89 -377.8,18.36 14.24,-13.7 14.77,-18.14 36.07,-22.44 17.59,-3.56 36.93,-3.73 50.44,-6.53 151.85,-31.44 263.6,-119.93 327.15,-277.08 20.58,-50.87 55.88,-136.89 44.11,-192.81 -67.41,1.66 -165.38,67.9 -221.3,105.83 -98.79,67.01 -179.8,149.13 -231.8,265.68 -34.76,77.92 -57.14,126.52 -152.81,134.98 -20.33,1.79 -41.8,0.42 -61.53,-2.22 -142.16,-18.97 -394.48,24.54 -537.51,56.21 -94.96,21.04 -263.02,63.65 -345.19,70.89zm2078.47 -456.79l120.16 -96.3c44.09,-43.11 162.89,-136.24 214.24,-149.33 -33.14,40.44 -85.91,66.24 -114.49,96.42l-113.86 100.01c-24.73,20.28 -68.63,44.73 -81.76,73 54.23,-7.98 110.28,-5.71 159.39,-34.43 22.5,-13.16 38.08,-19.62 58.41,-36.29 64.47,-52.88 88.12,-68.77 140.74,-147.95 20.71,-31.16 60.03,-98.48 67.2,-136.92 -80.11,0.74 -218.35,64.17 -277.23,107.17 -41.49,30.29 -68.82,47.41 -101.34,90.11l-71.46 134.51zm-396.81 167.21c26.35,-106 47.95,-122.4 96.16,-206.45l104.11 -157.48c15.89,-17.29 1.1,-8.51 23.97,-18.51 -16.52,27.75 -29.4,49.57 -45.98,79.18 -40.57,72.44 -95.08,164.26 -124.2,241.64 42.12,-44.73 119.87,-74.86 181.19,-178.07 48.79,-82.13 75.43,-155.33 96.25,-271.16 -41.46,15.99 -84.73,53.68 -126.36,82.07 -76.62,52.24 -163.81,138.95 -191.07,239.87 -13.69,50.69 -4.78,52.61 -3.26,97.03 1.35,39.27 -14,64.2 -10.81,91.88zm1170.21 490.88c70.7,-1.91 327.95,8.05 369.98,43.83l-367.09 -24.16c28.97,13.39 27.77,37.82 103.48,67.59 82.49,32.44 221.12,28.65 302,5.92 16.4,-4.61 111.07,-46.38 117.69,-51.6 -26.56,-32.78 -187.05,-82.42 -242.92,-88.64 -67.43,-7.5 -244.27,-3.34 -283.14,47.06zm-2155.38 248.73c8.85,-78.85 -81.35,-190.77 -112.33,-214.69 -55.9,-43.16 2.29,-12.86 -90.74,-71.07 -26.02,-16.28 -84.07,-41.35 -115.16,-48.01 62.27,95.63 46.54,42.04 104.71,113.94l92.81 119.55c-17.29,-14.22 -17.51,-11.35 -32.96,-21.96l-88.12 -89.4c-67.82,-64.85 -75.86,-98.68 -114.98,-118.4 23.78,236.93 177.99,283.94 356.77,330.04zm1777.65 -505.65c91.9,-36.96 239.92,-63.39 343.25,-71.47 -35.83,30.81 -125.6,38.88 -183.94,55.78 -52.11,15.1 -142.43,26.64 -184.31,55.72 154.59,51.13 264.8,30.37 400.4,-58.86l93.86 -79.28c-64.94,-35.37 -197.99,-30.96 -269.48,-13.14 -101,25.19 -134.7,66.68 -199.78,111.25zm-1308.23 232.56c-27.45,-13.2 -25.44,-26.1 -52.55,-60.36 -9.16,-11.58 -14.68,-16.26 -23.53,-27.91l-128.02 -134.37c13.52,87.34 23.94,165.15 86.31,227.07 34.28,34.03 127.57,100.63 200.47,108.5 4.31,-118.11 -41.57,-249.23 -137.64,-302.55 -34.99,-19.42 -62.79,-37.13 -106.44,-42.72 55.65,71.6 124.01,131.22 161.4,232.34zm776.37 112.96c-20.03,-16.14 -99.63,-152.31 -139.38,-203.53 -23.83,-30.71 -28.58,-37.76 -55.61,-62.79 -10.19,113.94 41.54,181.95 77.35,241.66 28.21,47.04 35.2,43.31 76.98,78.13 26.99,22.49 62.2,48.39 100.1,64.17 7.61,-149.49 9.22,-198.06 -86.6,-297.28 -35.52,-36.78 -85.35,-83.36 -133.72,-102.01 17.58,34.2 24.97,28.39 44.28,61.13 46.08,78.14 89.52,115.4 116.6,220.52zm-801.73 -530.13l34.39 -24.64c-12.45,27.15 -11.24,10.25 -22.22,41.13 67.17,-29.64 117.05,-91.02 167.46,-139.75 30.77,-29.73 16.74,-4.39 60.46,-57.6 13.49,-16.42 17.19,-17.65 34.19,-35.12 -11.31,38.03 -17.07,32.67 -49.58,72.18l-151.97 151.31c-23.41,15.43 -19.73,6.97 -38.75,31.18 166.41,-22.34 308.38,-219.39 335.52,-366.41 -84.53,39.5 -144.95,70.02 -218.48,125.98 -12.28,9.34 -10.96,7.47 -20.37,16.66 -10.96,10.68 -10.09,11.09 -22.01,22.04 -18.2,16.72 -24.08,25.77 -40.94,48.08l-67.7 114.96zm1258.31 798.55c43.23,-100.6 7.92,-251.45 -77.25,-328.99l-82.22 -63.82c46.3,83.94 60.83,75.68 100.97,207.67 4.03,13.26 9.56,28.09 13.08,41.06 1.47,5.43 3.41,11.87 3.84,17.5l-2.71 22.4c-43.81,-81.82 -99.08,-246.88 -148.07,-288.75 -4.92,164.92 8.22,183.03 71.58,299.74 19.86,36.59 81.48,87.86 120.78,93.19zm-509.65 -810.15c1.6,1.94 4.58,2.02 5.1,5.5 0.51,3.43 6.18,7.95 6.62,9.09 0.99,2.63 5.64,-3.03 -1.53,7.54 69.97,9.82 232.74,34.73 289.81,64.18 -93.13,14.64 -224.06,-59.3 -308.31,-28.74 47.68,86.88 298.48,110.8 429.04,23.95 -106.14,-60.99 -160.78,-97.53 -295,-98.31 -52.58,-0.3 -82.3,15.05 -125.73,16.79zm765.72 664.37c-24.29,-27.54 -131.98,-189.67 -160.86,-217.42 10.7,221.96 177.13,314.09 218.66,305.4 5.37,-94.81 -2.75,-167.52 -58.66,-225.86 -65.11,-67.94 -29.51,-36.94 -96.99,-71.7 -21.12,-10.88 -16.98,-15.54 -44.41,-27.02 13,25.37 7.62,11.12 21.04,29.84 99.2,138.45 26.87,31.17 121.22,206.76zm-2114.91 -287.83c8.18,50.89 93.02,39.34 141.84,44.27 53.1,5.37 124.99,4.41 165.45,-35.52l-155.33 -81.38c-24.9,-10.71 -40.6,-18.24 -59.54,-5.32 24.48,19.27 26.84,11.94 48.47,35.71 15.67,17.22 16.3,26.41 10.03,34.45 -51.37,30.08 -92.92,28.37 -150.92,7.79zm1057.92 44.53c-20.69,-65.62 -49.38,-75.42 -98.17,-113.31 -77.87,-60.47 -50.23,-37.38 -131.06,-83.12 58.37,124.88 77.61,156.02 229.23,196.43z"/>
   <g>
    <path class="fil0" d="M3845.16 660.12c-16.2,7.41 -22.57,3.41 -42.25,-9.02 -5.12,-6.17 -13.13,-17.57 -17.72,-18.98l-24.51 4.62c15.57,35.78 -25.03,-29.02 8.46,12.09 22.37,27.47 49.5,57.23 76.9,51.9 14.66,-2.85 -24.83,-30.8 27.95,2.68 0.29,1.57 -0.19,3.88 -0.22,4.79 -1.63,46.12 0.36,29.13 6.99,61.05 6.75,31.14 15.82,28.44 35.82,45.67l92.67 84.87c44.55,40.06 12.37,12.05 26.06,48.74 -44.22,0 -52.41,-10.31 -85.55,-14.45l-255.08 -47.91c-20.04,5.18 -137.56,-5.57 -183.78,-3.55 34.79,35.91 107.86,14.08 199.39,45.75l196.83 40.75c-41.21,-2.37 -162.54,-38.75 -202.81,-26.4 16.73,20.5 42.72,18.23 80.44,25.9l174.4 34.05c56.74,6.87 27.51,14.8 -32.65,59.27 -78.3,57.88 -130.5,104.91 -166.94,220.68 -7.74,24.6 -23.33,60.47 4.14,75.47 63.56,34.73 192.17,-26.27 233.52,-54.19 105.29,-71.09 135.75,-162.2 178.94,-261.84 26.95,14.31 72.38,11.81 108.6,20.11 88.57,20.3 242.2,57.84 328.05,57.84 -1.26,1.21 -3.25,1.22 -3.82,3.57l-15.83 13.65c-29.58,23.44 -38.22,22.41 -66.74,50.85 -37.21,37.11 -40.98,34.99 -72.69,83.24 -29.19,44.44 -88.02,171.39 -52.2,254.01 33.23,36.78 182.41,-24.35 243.58,-73.37 103.97,-83.32 127.42,-162.1 149.88,-286.2 10.57,-58.41 56.28,-20.83 218.25,-31.34 24.9,-1.61 5.95,-1.86 26.13,-0.97 11.49,0.5 24.67,2.04 37.81,2.28 28.11,0.51 56.89,-0.15 85.07,-0.21 58.78,-0.14 97.87,11.13 140.74,0.08 0,241.33 230.4,424.22 394.38,381.94 45.64,-105.26 -44.7,-268.02 -104.58,-320.75l-66.92 -58.45c-13.66,-11.45 -4.27,-3.48 -11.6,-10.54 126.56,0 298.66,-56.76 383.74,-65.07 70.38,-6.87 45.4,119.56 221.82,244.47 48.72,34.5 164.98,82.51 232.51,46.65 0,-60.48 -9.29,-82.05 -31.02,-121.56 -37.55,-68.3 -76.98,-120.3 -140.88,-163.66l-102.76 -49.95c26.33,-6.79 51.74,-10.29 67.36,-13.47 68.55,-13.93 180.65,-40.92 242.51,-41.13 -47.13,-0.32 -41.76,-8.95 -49.26,-15.55 26.46,-22.44 60.67,-29.47 99.17,-37.81 33.49,-7.26 32.97,0.76 70.24,-7.97l27.75 -8.22c2.08,-0.68 4.76,-1.43 7.01,-2.54l-77.61 6.26 7.25 -19.88c-74.08,11.74 -351.7,70.16 -408.51,70.16 4.73,-4.56 3.07,-3.22 11.38,-10.79l172.08 -167.53c21.26,-18.93 8.24,-12.36 34.83,-24.35 14.57,-36.96 -30.68,2.03 35.21,-46.8 -2.07,-2.37 -4.58,-4.86 -6.98,-6.16 -37.18,-20.17 -29.51,-1.62 -31.24,-0.55l-11.01 14.39c11.2,-38.36 9.35,-20.61 14.76,-32.17l4.25 -8.84c0.09,-0.19 2.1,-5.23 2.05,-5.61 -22.17,-10.27 -10.71,16.19 -13.71,-29.92 -0.71,-10.94 13.44,-52.83 14.06,-102.29 0.71,-57.63 -2.86,-104.1 -15.06,-147.67 -12.13,-43.37 -24.72,-75.22 -43.88,-115.12 -52.24,-108.84 -97.98,-128.34 -143.24,23.48 -29.45,98.79 -22.4,234.8 14.56,337.19 13.51,37.39 38.56,101.62 74.62,112.28 -6.16,25.56 -27.38,49.72 -46.08,65.92 -23.96,20.74 -39.12,35.29 -61.62,56.51 -23.13,21.83 -109.99,80.6 -138.79,88.03 15.95,-66.12 48.64,-48.23 65.36,-270.73 6.67,-88.77 -32.71,-198.81 -65.36,-267.11 -41.76,0 -61.69,20.99 -89.5,72.42 -198.31,366.76 42.09,496.19 -70.08,530.41l-136.7 23.74c-68.99,10.61 -193.01,28.19 -288.26,28.19 16.78,-51.3 173.62,-81.42 252.63,-297.2 51.89,-141.71 82.09,-203.64 -176.11,-109.18 -34.23,12.52 -58.29,23.43 -87.79,43.14 -15.14,10.12 -24.51,19.62 -37.01,29.19 -16.72,12.79 -21.58,12.54 -37.94,28.16 -79.44,75.92 -118.66,125.73 -164.98,238.31 -19.59,47.6 -8.29,67.58 -65.72,67.58 -36.05,-83.16 -38,-164.19 -149.56,-278.77 -35.22,-36.18 -81.1,-63.37 -125.09,-87.59 -20.63,-11.36 -42.49,-25.93 -66.65,-35.36l-81.37 -26.86c-112.13,-17.31 -190.14,-66.34 -61.09,200.11 21.62,44.64 109.35,145.36 148.55,170.77 33.02,21.4 39.55,15.19 60.55,49.9l-232.92 -30.61c-73.78,-5.99 -173.58,-20.11 -224.85,-47.34 72.6,-167.46 63.33,-305.84 -11.63,-470.4 -85.25,-187.14 -137.33,-80.44 -161.72,99.27 -33.67,248.25 161.01,411.53 -42.05,274.37 -26.26,-17.74 -44.7,-35.29 -69.42,-55.68 -86.68,-71.48 -63.07,-81.42 -32.39,-136.28 33.1,-59.18 61.94,-150.48 63.95,-225.47 2.86,-106.81 -31.78,-225.91 -105.91,-280.86 -24.91,14.59 -19.8,11.88 -37.67,36.26 -15.98,21.79 -15.14,20.77 -28.87,45.99 -94.7,173.95 -29.97,327.34 -25.02,393.22zm1054.25 363.77c-7.57,-13.27 -15.14,-16.97 -27.49,-26.46 -19.47,-14.98 -15.09,-11.3 -30.71,-28.6 -29.27,-32.43 -29.14,-19.04 -58.52,-60 -34.37,-47.91 -77.2,-72.42 -114.02,-129.78 43.36,17.69 69.74,56.2 106.14,98.9 20.75,24.34 20.75,17.12 40.68,33.9 17.95,15.1 23.34,36.38 67.96,72.46 57.24,46.29 48.77,56.55 87.58,56.62 -13.96,-72.73 -61.86,-159.32 -103.02,-203.54 -7.92,-8.51 -18.13,-17.17 -26.22,-25.11 -79.68,-78.15 -190.94,-121.48 -316.54,-145.51 30.29,127.95 72.08,170.28 131.57,248.62 22.39,29.48 58.89,63.93 99.82,84.52 36.52,18.37 116.4,38.37 142.77,23.98zm231.21 20.54c30.59,-2.03 35.44,1.5 54.83,-15.08l144.21 -137.58c24.44,-41.22 72.53,-77.36 112.62,-98.05l-93.18 112.41c-1.14,1.01 -2.76,2.44 -3.93,3.41 -75.08,62.1 -0.94,15.5 -64.63,68.52 -18.55,15.46 -48.2,44.25 -60.29,70.27 106.66,-11.63 231.19,-129.45 290.85,-220.55 -0.04,2.59 -0.72,8.46 -0.39,9.28 4.58,11.7 -9.64,5.06 7.46,6.97 21.29,-39.68 70.87,-148.4 70.65,-195.54 -12.46,27.14 -36.92,20.01 -68.26,26.01 -73.65,14.12 -200.87,80.28 -242.53,129.28l-74.3 89.63c-23.99,31.43 -66.11,114.17 -73.11,151.02zm260.01 106.76c53.48,36.81 116.79,132.33 161.62,191.28 26.63,35.02 11.86,-15.73 21.53,42.52 -47.55,-33.63 -121.26,-128.97 -155.81,-166.78 -22.97,-25.13 -28.77,-30.06 -68.03,-38.58 6.03,76.15 55.27,167.89 107.46,205.87 63.82,46.45 109.37,86.55 209.41,89.45 8.65,-101.61 -83.51,-237.28 -174.97,-299.96 -39.67,-27.19 -14.57,-22.37 -42.08,-24.77 -17.4,-1.52 -43,-3.08 -59.13,0.97zm-947.69 328.09c107.09,-0.83 176.85,-77.89 230.9,-135.6 13.29,-14.18 21.11,-20.52 31.78,-42.32 17.23,-35.19 32.1,-79.65 34.56,-127.45 -12.95,10.15 -22.02,15.25 -29.53,23.43 -13.37,14.56 -4.71,9.72 -23.92,27.48 -43.02,39.79 -39.03,54.75 -79.19,84 -16.16,11.77 -18.35,12.17 -31.6,27.7 -25.92,30.37 -17.58,41.16 -55.9,58.37l95.23 -131.42c27.16,-28.33 -4.85,-6.33 52.42,-59.73 39.9,-37.2 -18.85,1.79 58.79,-52.71l-28.85 -7.13c-35.42,0.36 -102.54,42.51 -125.75,63.1 -1.13,1 -2.68,2.52 -3.77,3.58l-7.04 7.72c-70.1,77.05 -115.45,137.36 -118.13,260.98zm1400.07 -513.58c12.97,-15.73 9.91,18.77 9.34,-24.23 -0.21,-16.28 -8.31,-21.75 -8.5,-22.08 7.33,9.87 4.67,12.58 18.07,5.75 -6.91,-82.43 -20.31,-244.09 25.7,-314.71 -1.71,47.92 -29.29,236.58 -14.58,272.94l25.76 31.99c77.4,-223.16 67.26,-220.6 11.09,-451.87 -39.39,25.29 -84.95,149.66 -96.64,214.65 -18.57,103.17 3.38,200.95 29.76,287.56zm-1603.46 -30.47c14.89,-31.08 -1.06,-107.75 -5.69,-146.25 -6.38,-53.11 -7.11,-104.4 -7.84,-162.66 10.49,19.44 6.43,10.41 10.29,35.58l17.32 304.29c31.05,-51.91 50.98,-193.22 42.11,-274 -6.09,-55.52 -35.66,-127.69 -59.61,-176.72l-21.82 -38.3c-4.92,-7.11 -6.37,-8.71 -9.98,-12.97 -95.63,143.47 -2.78,442.27 35.22,471.03zm-338.9 -281.72c17.04,-57.94 24.19,-247.35 36.07,-271.49 12.64,38.04 11.27,180.82 -15.21,245.38 -14.34,34.96 -11.86,34.29 4.6,59.69 4.79,-12.28 13.59,-23.55 20.96,-37.91 23.88,-46.51 49.56,-120.53 51.99,-176.22 3.14,-71.97 -15.84,-197.11 -62.34,-233.68 -21.34,11.24 -38.36,49.65 -47.65,79.14 -32.25,102.43 -43.6,253.97 11.58,335.09zm-95.84 665.88c51.71,-0.55 68.62,-2.29 114.05,-24.66l67.16 -42.44c65.15,-52.96 118.13,-106.67 136.54,-207.03 -26.15,12.94 -6.2,-0.44 -29.23,22.3l-72.76 75.2c-26.83,25.11 -16.05,28.75 -46.11,49.89 -2.23,1.56 -12.16,7.77 -13.6,8.91 -22.34,17.62 -3.75,3.64 -15.21,15l-29.27 18c28.72,-50.87 37.24,-63.83 76.77,-98.67 38.83,-34.22 27.35,-35.08 66.19,-67.39 17.79,-14.8 13.8,-9.74 25.94,-28.82 -84.98,5.03 -100.56,32.73 -140.52,65.7l-27.99 24.02c-31.61,34.47 -111.28,134.08 -111.96,189.99zm2371.85 -645.5c-3.53,-103.11 -27.06,-204.03 -14.08,-315.3 16.84,22.4 13.21,43.26 14.42,75.14 1.73,45.84 11.1,173.13 21.59,210.05l15.71 38c2.07,-94.66 45.22,-82.16 20.11,-252.27 -5.24,-35.54 -11.45,-75.08 -26.64,-108.82l-43.3 -78.12c-1.09,-1.49 -2.59,-3.46 -3.6,-4.82l-7.5 -9.92c-3.53,26.1 -27.07,79.55 -33.53,102.95 -24.51,88.85 -6.32,270.89 56.82,343.11zm123.56 647.23l-49.89 -111.51c-40.02,-70.2 -126.36,-142.18 -212.18,-144.25l34.11 28.9c33.52,32.76 115.56,94.5 141.77,161.11 -31.96,-21.77 -38.04,-14.4 -57.7,-43.04l-162.98 -147.78c9.34,44.01 30.55,60.62 50.05,93.76 25.24,42.88 24.24,45.25 64.78,75.63 49.49,37.11 114.22,83.4 192.04,87.18z"/>
    <path class="fil0" d="M2056.33 784.8c70.71,11.42 -57.49,-18.3 27.9,14.46 1.14,0.45 11.28,14.45 13.77,-2.98 1.23,-8.58 -12.11,-14.77 -15.24,-18.34 -16.85,-19.18 -14.31,-0.29 -5.34,-24.32 -40.06,0 -56.58,-6.79 -84.51,-7.79 16.72,-22.73 44.9,-10.1 120.52,-8.23 36.56,0.91 87.63,21.44 119.47,6.09 24.11,-11.62 8.7,7.43 20.59,-21.21 -118.26,0 -294.45,5.92 -390.05,-51.53 -1.88,-1.13 -7.21,-4.41 -9.08,-5.54l-33.34 -25.46c-22.67,-29.05 -36.27,-51.37 -43.09,-93.14 -7.84,-47.98 9.68,-92.8 -1.25,-153.98 -36.3,-203.19 -195.05,-318.7 -362.42,-379.72 -22.51,-8.2 -40.38,-15.38 -40.68,21.41 -0.64,78.18 42.09,204.73 74.82,269.56 40.6,80.44 84.86,131.11 152.88,181.55 34.99,25.94 68.28,36.97 100.08,60.72 23.27,17.37 66.64,70.73 73.27,98.18 -42.07,-10.84 -101.45,-30.3 -140.02,-47.69 -44.77,-20.21 -79.61,-50.55 -120.23,-77.39 -219.15,-144.79 -57.43,-130.54 -248.44,-340.81 -96.47,-106.2 -265.97,-165.47 -413.9,-165.47 2.89,143.75 154.26,331.34 261.93,396.03 95,57.09 332.36,56.15 357.82,134 -18.3,-8.36 -85.62,-11.64 -133.61,-7.57 -106.66,9.05 -247.14,86.69 -303.03,179.06l196.03 63.64c153.05,28.77 239.85,-7.07 342.17,-107.14 18.96,-18.53 29.31,-33.68 63.9,-23.76 53.05,15.22 100.16,41.02 152.34,58.49 28.45,9.52 34.07,2.68 48.42,24.36 -28.24,2.6 -60.26,11.78 -88.77,18.66l-185.39 44.25c-131.5,31.68 -330.84,137.05 -467.91,64.67 -110.97,-58.59 -91.1,-115.01 -267.86,-194.6 -93.12,-41.93 -313.12,-33.48 -391.56,12.45 5.28,25.05 7.37,28.25 23.41,44.25l11.62 10.52c71.62,65.31 144.04,118.51 235.78,152.17 150.84,55.35 220.24,-1.95 286.27,-3.34 23.93,-0.5 75.08,14.11 83.8,38.04 -17.2,9.14 -43.92,11.23 -67.57,18.75l-205.68 52.95c-47.62,12.51 -88.4,16.84 -146.73,25.41 -82.19,12.07 -152.62,-91.86 -420.25,-44.94 -138.54,24.29 -191.69,98.04 -237.29,111.52 3.33,44.32 32.6,54.47 64.19,69.26 33.34,15.61 60.83,25.9 100.52,36.84 84.12,23.2 134.99,32.19 226.67,15.29 90.23,-16.63 128.4,-31.02 191.86,-76.06 72.11,-51.19 95.77,-76.51 191.45,-76.51 -43.49,71.87 -107.14,104.89 -102.44,258.87 1.15,37.68 6.99,54.28 24.97,91.89 116.83,-30.13 215.51,-121.07 263.08,-231.07 37.23,-86.1 5.96,-155.66 75.58,-181.37 39.36,-14.53 150.68,-47.45 196.58,-47.45 -16.34,15.73 -41.98,22.04 -62.18,32.52 -57.95,30.06 -121.4,92.79 -158.37,152.09 -52.86,84.79 -67.69,245.36 -11.86,337.64 26.14,-0.65 31.46,-3.6 50.84,-13.89 73.7,-39.16 136.01,-101.74 174.95,-180.51 85.65,-173.21 17.68,-291.93 83.9,-335.85 26.54,-17.59 66.87,-26.48 98.74,-38.82 26.2,-10.14 78.73,-22.49 112.73,-23.33 -15.59,25.77 -16.99,20.04 -36.07,38.03 -40.61,38.31 -67.93,78.57 -86.51,138.08 -35.44,113.49 -18.6,166.25 2.86,268.19 53.49,-1.32 151.54,-82.28 184.83,-115.02 98.98,-97.35 123.65,-193.1 132.01,-337.16 3.59,-61.91 31.67,-61.13 82.75,-72.1 53.92,-11.57 127.16,-35.46 188.95,-26.23 5.95,0.89 25.97,3.06 31.45,4.04 37.83,6.82 12.35,-9.93 34.97,16.39zm-728.29 -369.68c-11.12,-11.18 -16.02,-21.28 -27.16,-32.94 -10.99,-11.51 -8.05,-7.52 -19.25,-17.77 -87.64,-80.24 -180.88,-142.01 -253.17,-210.59 55.02,14.56 165.34,95.12 206.34,129.42l111.6 97.33c-18.01,-73.38 -105.56,-177.39 -164.11,-218.21 -78.37,-54.66 -177.56,-88.49 -279.51,-108 6.5,33.73 57.05,142.17 80.22,172.78 77.85,102.85 215.66,188.24 345.04,187.98zm355.83 66.88c-19.21,-68.11 -115.01,-214.78 -144.84,-316.04 20.98,12.93 18.16,13.72 30.36,36.28 9.29,17.19 12.94,21.16 22.48,36.8 58.56,96.1 75.2,148.99 126.41,254.46l14.49 -39.65c13.67,85.68 8.25,-48.97 -10.9,-109.91 -20.62,-65.59 -77.96,-140.04 -119.66,-178.85 -17.01,-15.84 -159.27,-108.42 -185.89,-114.42 7.9,77.46 55.59,215.32 87.2,262.99 14.71,22.18 22.01,25.18 35,46.48 51.73,84.87 23.04,28.17 89.36,88.33 18.15,16.46 29.79,24.75 55.99,33.53zm-1634.96 616.14c175.1,68.9 320.7,104.53 490.46,1.89 2.87,-1.74 12.06,-7.77 13.69,-8.95 1.43,-1.05 3.29,-2.59 4.59,-3.58l9.34 -7.78c-129.28,-1.65 -243.02,11.49 -365.21,19.24 12.5,-10.96 -10.05,1.95 15.04,-10.77 23.34,-11.84 45.3,-11.66 71.61,-16.93 31.6,-6.33 63.01,-11.77 92.61,-12.96 155.04,-6.2 66.36,-2.32 194.25,-19.89 -84.24,-14.88 -116.3,-54.41 -281.98,-38.08 -44.36,4.37 -90.33,17.34 -132.76,33.17 -29.94,11.18 -97.02,49.17 -111.64,64.64zm1378.12 159.47c29.29,-4.43 66.61,-39.4 92.27,-61.92 97.39,-85.49 143.73,-158.25 154.7,-337.31 -8.15,15.08 -7.65,18.24 -16.42,29.65l-27.61 32.79c-9.36,11.66 -18.13,21.15 -25.96,33.44 -13.72,21.55 -9.31,16.05 -25.13,34.79 -17.31,20.5 -29.24,45.33 -45.04,74.72l-50.9 77.48c9.07,-38.21 55.99,-142.16 71.48,-163.47l100.28 -133.36c-11.85,4.14 -84.28,46.82 -98.71,57.34 -30.93,22.57 -53.26,51.04 -79.76,82.54 -56.01,66.57 -63.14,170.18 -49.2,273.31zm-415.22 154.5c66.2,-16.2 124.4,-80.59 161.23,-139.06 49.15,-78.04 56.95,-143.96 54.36,-255.35 -56.91,41.37 -123.04,234.64 -146.67,295.01 -12.59,-102.2 61,-220.24 116.29,-295.08 9.82,-13.29 16.83,-27.17 23.86,-33.7 -15.03,11.56 -17.56,15.6 -35.78,28.87 -79.38,57.79 -150.92,117.43 -171.38,238.36 -13.05,77.09 -2.06,89.42 -1.91,160.95zm-512.03 -713.65c86.51,96.93 287.25,200.62 439.66,140.94 -67.08,-65.89 -244.58,-55.27 -298.64,-105.41 140.05,14.38 249.6,59.74 324.54,72.91 -29.28,-50.66 -126.51,-103.61 -197.96,-114.66 -102.39,-15.84 -163.43,-16.42 -267.6,6.22zm625.23 -0.69c110.11,41.57 208.53,67.62 335.12,3.85l83.96 -67.86c-81.49,4.32 -181.04,46.69 -326.04,47.83 35.98,-23.15 267.22,-63.82 324.46,-68.33 -52.54,-27.75 -34.12,-28.73 -105.75,-31.98 -108.21,-4.92 -242.13,19.23 -311.75,116.49zm-412.84 648.88c66.49,-4.48 188.81,-132.89 213.23,-191.46 6.61,-15.85 11.4,-34.83 15.47,-52.51 4.12,-17.85 9.42,-43.63 2.72,-60.01 -18.92,22.18 -18.49,30.17 -32.76,48.81 -20.77,27.12 -21.05,12.5 -42.33,46.7 -21.09,33.88 -53.11,74.98 -80.89,98.36 28.38,-75.94 30.67,-60.46 65.28,-115.55l77.11 -109.99c-151.02,55.5 -228.35,150.33 -217.83,335.65z"/>
    <path class="fil0" d="M2253.49 722.48c-11.89,28.64 3.52,9.59 -20.59,21.21 -31.84,15.35 -82.91,-5.18 -119.47,-6.09 -75.62,-1.87 -103.8,-14.5 -120.52,8.23 27.93,1 44.45,7.79 84.51,7.79 -8.97,24.03 -11.51,5.14 5.34,24.32 3.13,3.57 16.47,9.76 15.24,18.34 -2.49,17.43 -12.63,3.43 -13.77,2.98 -85.39,-32.76 42.81,-3.04 -27.9,-14.46 -51,0.18 -13.29,-12.93 -45.7,11.24 -50.77,37.86 -48.76,7.34 -146.35,119.2l-63.75 101.98c-29.16,69.85 46.62,50.81 104.92,37.12 73.84,-17.34 153.6,-89.22 186.32,-160.13 44.95,-97.39 -12.54,-96.6 156.27,-106.83 18.18,-1.11 45.06,5.25 75.91,5.25l-40.31 33.33c-37.95,30.85 -88.19,82.1 -111.84,125.65 -34.32,63.22 -75.52,184.77 -16.87,246.35 26.25,-6.77 43.59,-15.67 68.56,-25.45 108.4,-42.5 215.33,-97.7 267.38,-226.32 13.46,-33.26 34.23,-128.05 37.32,-169.15l176.04 0.02c30.39,-0.12 59.64,-1.54 88.77,3.09l75.62 17.64c1.04,0.5 3.19,1.6 4.66,2.64 -40.82,10.52 -58.53,19.81 -95.89,34.18 -36.84,14.16 -63.4,23.56 -96.63,41.14l-89.23 49.34c-66.2,37.92 -63.34,34.57 -63.34,78 64.08,16.52 8.72,54.56 267.62,54.56 -5.65,23.43 -23.38,39.69 -37.3,60.06 -31.65,46.33 -99.48,185.71 -75.38,212.75 22,24.71 394.49,6.19 454.7,-322.97 14.37,-78.56 -2.79,-69.34 70.84,-93.07 31.89,-10.28 97.22,-26.13 130.15,-27.72 39.29,-1.9 90.6,15.06 126.04,15.06 -1.39,1.07 -3.63,0.74 -4.24,3.09l-33.38 25.42c-104.64,74.3 -173.66,175.83 -173.66,322.25 41.15,12.16 21.72,30.55 147.29,-8.47 121.98,-37.9 207.17,-108.15 258.86,-235.74 16.6,-40.98 5.47,-48.43 44.58,-65.59 40.27,-12.35 161.6,24.03 202.81,26.4l-196.83 -40.75c-91.53,-31.67 -164.6,-9.84 -199.39,-45.75 46.22,-2.02 163.74,8.73 183.78,3.55l-175.59 -28.84c-73.74,-11.75 -100.63,-14.94 -171.96,-27.93 -52.77,-9.6 -120.8,-31.22 -159.22,-35.06 -66.05,-6.6 -126.61,-20.03 -182.76,-30.74 -111.36,-21.24 -257.72,-42.16 -371.29,-48.95 -68.2,-4.08 -142.28,9.07 -207.83,-3.82 -36.16,-7.11 -46.45,-16.87 -64.04,-46.04 -66.2,-109.85 -39.63,-166.37 -231.1,-321.03 -35.14,-28.39 -90.21,-58.68 -132.92,-78.93 -28.11,-13.34 -43.67,-25.8 -75.88,-34.73 -61.9,-17.16 -31.91,69.16 -7.63,142.75 19.47,59.02 39.56,103.03 74.33,151.57 152.22,212.5 314.05,144.9 349.25,198.06l-84.55 0zm473.4 567.52c57.63,16.11 245.42,-41.83 316.69,-160.95 21.23,-35.47 36.53,-85.95 39.98,-135.53 -30.55,5.75 -45.2,20.04 -69.9,40.18l-104.52 118.17c-21.51,25.43 -30.99,28.86 -54.98,51.46 14.25,-21.83 21.78,-37.95 38.29,-62.06 18.56,-27.1 32.27,-40.14 50.49,-61.22 18.58,-21.51 26.01,-39.61 45.54,-58.25 25.9,-24.72 31.69,-17.93 56.41,-55.94 -35.24,8.47 -73.87,23.37 -110.06,43.04 -38,20.65 -58.39,42.76 -89.84,71.92 -48.31,44.79 -105.17,136.26 -118.1,209.18zm-556.78 -152.87c118.82,-0.3 313.03,-162.1 292.16,-309.4 -62.27,35.05 -146.86,179.25 -197.52,200.64l63.84 -97.85c59.03,-79.83 65.3,-72.9 119.06,-139.18 -84.91,-4.22 -36.73,1.48 -98.66,36.88 -104.78,59.88 -183.26,175.13 -178.88,308.91zm1129.09 81.8c121.68,2.75 286.8,-99.17 338.21,-259.92 -86.72,12.41 -155.87,129.3 -236.48,171.24l85.4 -95.77c40.32,-47.53 62.29,-54.04 93.02,-88.68 1.02,-1.14 2.84,-3.23 4.01,-5.07l-26.88 -12.16c-87.28,-16.27 -251.92,121.79 -257.28,290.36zm-1011.46 -557.97c-30.98,-26.55 -84.9,-58.56 -120.25,-92.46 -9.21,-8.83 -10.43,-8.56 -19.63,-17.31 -38.68,-36.81 -102.14,-98.29 -118.79,-145.73 16.95,12.75 20.74,18.31 33.47,30.11 57.55,53.32 174.79,172.76 241.36,209.37 -55.09,-134.03 -141.73,-234.32 -253.55,-305.19 -22.99,-14.57 -102.65,-54.3 -124.42,-59.61 13.11,16.97 81.18,341.94 361.81,380.82zm-436.63 349.92c54.69,19.35 198.97,-76.78 217.74,-185.24 -66.13,42.08 -43.67,4.79 -121.88,72.01l-51.36 52.27c-21.15,25.03 -29.87,27.38 -44.5,60.96z"/>
   </g>
   <path class="fil0" d="M3880.76 769.25c-6.63,-31.92 -8.62,-14.93 -6.99,-61.05 0.03,-0.91 0.51,-3.22 0.22,-4.79 -52.78,-33.48 -13.29,-5.53 -27.95,-2.68 -27.4,5.33 -54.53,-24.43 -76.9,-51.9 -33.49,-41.11 7.11,23.69 -8.46,-12.09l24.51 -4.62c4.59,1.41 12.6,12.81 17.72,18.98 -90.21,-133.87 -81.17,-223.92 -214.15,-338.56 -48,-41.39 -105.2,-77.99 -168.7,-101.69 -61.04,-22.79 -149.79,-52.83 -222.82,-34 4.94,65.72 129.55,238.44 164.86,285.22 17.86,23.65 92.81,84.56 119.66,101.4 20.85,13.06 50.61,24.71 77.55,31.09l81.61 26.59c-66.22,0 -343.31,21.99 -366.21,116.92 123.09,72.09 327.82,120.43 462.89,60.23 65.42,-29.16 88.03,-60.32 143.16,-29.05zm-222.53 -203.89l-257.95 -247.29c-1.28,-1.75 -3.13,-4.21 -4.33,-6.57 47.04,17.32 64.34,41.35 104.04,75.68 46.98,40.62 155.2,144.36 191.75,163.18 -7.77,-60.24 -53.97,-119.81 -86.82,-154.29 -36.52,-38.34 -14.8,-28.01 -73.67,-74.12 -70.76,-55.44 -175.76,-105.75 -275.17,-108.09 43.63,107.6 151.52,249.21 252.9,311.67 39.47,24.33 99.35,31.3 149.25,39.83zm-297.54 157.12c42.42,31.86 225.41,74.02 313.09,50.97 58.28,-15.32 75.36,-25.33 85.45,-56.03 -94.4,-5.2 -163.1,43.37 -273.95,36.79 38.59,-22.73 170.84,-36.89 204.24,-49.28l27.15 -13.63c-27.29,-41.67 -130.33,-22.74 -192.2,-20.15 -52.54,2.21 -124.69,22.43 -163.78,51.33z"/>
   <path class="fil0" d="M6288.92 660.12c0.05,0.38 -1.96,5.42 -2.05,5.61l-4.25 8.84c-5.41,11.56 -3.56,-6.19 -14.76,32.17l11.01 -14.39c1.73,-1.07 -5.94,-19.62 31.24,0.55 2.4,1.3 4.91,3.79 6.98,6.16 -65.89,48.83 -20.64,9.84 -35.21,46.8 100.66,49.56 123,86.47 281.87,78.09 31.1,-1.64 47.4,-10.18 77.34,-15.72 72.17,-13.37 82,-22.57 141.84,-45.68 32.36,-12.51 43.96,-4.43 62.39,-32.27 -7.09,-29.42 -3.14,-17.82 -27.63,-31.78 -95.21,-54.28 -149.76,-60.23 -249.11,-75.41 -38.77,-5.93 -71.34,5.85 -117.64,5.85 19.04,-28.76 -0.13,-6.26 31.5,-19.69 71.29,-30.27 69.8,-17.32 129.67,-43.55 91.96,-40.29 176.99,-141.12 227.63,-231.34 24.15,-43.03 71.12,-117.26 61.93,-165.3 -26.06,0.64 -87.27,10.17 -112.27,16.05 -128.61,30.22 -261.19,98.25 -342.65,213.15 -45.64,64.38 -84.73,183.88 -122.43,231 -17.32,21.65 -25.11,16.14 -35.4,30.86zm142.47 -113.71c25.56,-8.73 25.33,-14.59 43.26,-31.6 1.09,-1.04 2.68,-2.52 3.79,-3.53 1.58,-1.44 6.4,-5.31 8.02,-6.73 12.25,-10.76 7.04,-5.67 18.89,-18.16l67.59 -65.42c18.9,-16.56 13.25,-7.66 35.2,-31.26 25.67,-27.6 85.32,-68.44 116.7,-83.86l-182.76 182.72c-24.53,34.29 -33.41,37.97 -57.5,68.75 37.19,-10.88 88.69,-23.42 121.97,-44.85 54.75,-35.25 147.24,-115.79 178.38,-176.45 14.73,-28.7 55.19,-81.55 58.67,-120.07 -173.19,16.35 -224.91,68.72 -324.55,168.82 -18.2,18.28 -9.93,3.19 -24.67,26.97 -24.43,39.44 -53.14,88.77 -62.99,134.67zm-40.37 147.1c34.28,6.88 191.75,44.17 214.83,58.22 -49.89,1.61 -95.8,-4.21 -138.8,-14.15l-128.6 -7.3c47.04,36.11 146.89,67.09 211.2,54.83 51.32,-9.79 113.31,-20.56 162.81,-39.4l51.19 -23.23c-75.64,-59.8 -323.94,-76.57 -372.63,-28.97z"/>
   <path class="fil0" d="M6472.1 878.37l-7.25 19.88 77.61 -6.26c-2.25,1.11 -4.93,1.86 -7.01,2.54l-27.75 8.22c-37.27,8.73 -36.75,0.71 -70.24,7.97 -38.5,8.34 -72.71,15.37 -99.17,37.81 7.5,6.6 2.13,15.23 49.26,15.55 72.65,-7.38 24.41,82.99 173.87,205.13 58.76,48.01 183.11,91.1 283.9,91.1 25.34,-41.87 24.48,-50.08 4.25,-106.01 -25.71,-71.11 -59.39,-131.28 -111.86,-180.21 -22.65,-21.12 -69.55,-44.92 -82.54,-64.54 25.75,-13.67 47.65,-5.77 83.12,-17.23 15.79,-5.1 5.3,0.96 15.48,-6.64 -19.81,-4.27 -5.84,5.05 -17.25,-10.84l66.51 5.15 -26.88 -28.73c-0.55,-0.8 -1.19,-2.98 -1.85,-3.7 -24.35,-26.41 -67.67,9.62 -91.72,-0.36 -26.98,0.69 -70.74,10.7 -96.28,17.3 -21.23,5.5 -86.04,13.87 -114.2,13.87zm243.66 246.94c-39.16,-14.89 -105.85,-73.64 -139.58,-104.8l-38.06 -35.92c-27.56,-23.97 -19.44,-26.57 -52.77,-31.43 2.04,55.89 18.87,71.54 40.33,108 44.32,75.34 202.97,159.45 286.17,152.52 0.36,-48.47 -52.29,-167.43 -90.92,-197.59 -63.17,-49.32 -98.67,-68.14 -193.31,-86.82 1.28,1.65 3.68,1.46 4.4,4.36 2.73,11.04 5.1,4.89 8.52,8.47l33.53 41.5c20.62,20.46 33.46,21.2 51.7,43.75 19,23.49 24.77,32.58 45.97,50.83 37.98,32.69 30.42,37.04 44.02,47.13z"/>
  </g>
 </g>
</svg>
