<?xml version="1.0" encoding="UTF-8"?>
<!DOCTYPE svg PUBLIC "-//W3C//DTD SVG 1.1//EN" "http://www.w3.org/Graphics/SVG/1.1/DTD/svg11.dtd">
<!-- Creator: CorelDRAW -->
<svg xmlns="http://www.w3.org/2000/svg" xml:space="preserve" width="52.306mm" height="40.089mm" version="1.1" style="shape-rendering:geometricPrecision; text-rendering:geometricPrecision; image-rendering:optimizeQuality; fill-rule:evenodd; clip-rule:evenodd"
viewBox="0 0 5230.6 4008.9"
 xmlns:xlink="http://www.w3.org/1999/xlink"
 xmlns:xodm="http://www.corel.com/coreldraw/odm/2003">
 <defs>
  <style type="text/css">
   <![CDATA[
    .str1 {stroke:white;stroke-width:7.62;stroke-miterlimit:22.9256}
    .str0 {stroke:white;stroke-width:10;stroke-linecap:round;stroke-linejoin:round;stroke-miterlimit:22.9256}
    .fil0 {fill:white;fill-rule:nonzero}
   ]]>
  </style>
 </defs>
 <g id="Capa_x0020_1">
  <metadata id="CorelCorpID_0Corel-Layer"/>
  <g id="_2279688928960">
   <path class="fil0 str0" d="M2209.81 66.43l0 0c2.29,4.12 2.29,7.1 0,8.94 -2.29,1.83 -5.04,1.14 -8.25,-2.07 -37.11,-42.61 -79.16,-61.4 -126.12,-56.36 -46.97,5.04 -95.65,28.18 -146.06,69.42 36.2,23.83 63.92,51.9 83.17,84.2 19.24,32.3 27.95,68.39 26.12,108.25 -5.5,50.86 -26.81,91.19 -63.92,120.97 -37.12,29.78 -79.39,51.21 -126.81,64.27 -47.43,13.05 -88.9,19.58 -124.41,19.58 -35.51,0 -54.41,-4.58 -56.7,-13.74 0.45,-8.25 6.41,-13.63 17.87,-16.15 11.45,-2.52 23.48,-2.52 36.08,0 12.6,2.52 20.96,6.98 25.09,13.4 0,0 10.77,-1.38 32.3,-4.13 21.54,-2.75 46.17,-10.31 73.89,-22.68 27.72,-12.37 52.58,-32.19 74.57,-59.45 22,-27.26 34.83,-64.95 38.49,-113.06 1.38,-62.32 -20.62,-114.1 -65.98,-155.34 -82.48,78.81 -156.71,183.29 -222.69,313.42 -34.37,68.27 -77.67,134.48 -129.9,198.63 -52.24,64.15 -109.52,118.68 -171.83,163.59 -62.32,44.9 -125.78,72.85 -190.39,83.85 -58.65,7.33 -104.59,3.09 -137.81,-12.72 -33.22,-15.8 -55.33,-35.85 -66.33,-60.14 -10.99,-24.28 -12.14,-45.36 -3.43,-63.23 11.45,-17.41 25.31,-22.91 41.58,-16.5 16.27,6.42 21.19,19.71 14.78,39.87 -4.58,9.62 -10.08,15.69 -16.5,18.21 -6.41,2.52 -12.14,3.33 -17.18,2.41 -5.04,-0.92 -7.56,-1.38 -7.56,-1.38 -0.46,7.34 5.5,18.68 17.87,34.03 12.37,15.35 32.19,28.18 59.45,38.49 27.27,10.31 63.12,12.02 107.57,5.15 60.94,-13.29 117.87,-47.42 170.8,-102.41 52.92,-54.98 104.01,-120.17 153.27,-195.54 49.26,-75.38 98.63,-150.18 148.12,-224.41 77.89,-109.97 152.12,-191.08 222.69,-243.31 -53.61,-37.58 -121.2,-59.11 -202.76,-64.61 -81.56,-5.5 -167.36,8.93 -257.4,43.3 -90.04,34.37 -174.93,93.02 -254.66,175.95 -81.56,90.27 -126.46,166.56 -134.71,228.88 -8.25,62.32 7.45,106.77 47.08,133.34 39.64,26.58 90.5,31.16 152.59,13.75 62.08,-17.41 122.45,-60.72 181.11,-129.91 43.53,-55.44 69.64,-102.52 78.35,-141.24 8.71,-38.72 6.87,-68.62 -5.5,-89.7 -12.37,-21.07 -28.18,-32.99 -47.42,-35.74 -19.25,-2.29 -34.26,-0.34 -45.02,5.85 -10.77,6.18 -16.16,9.28 -16.16,9.28 16.04,-4.13 28.18,-0.35 36.43,11.34 8.25,11.68 7.33,24.62 -2.75,38.83 -7.33,7.33 -15.81,10.42 -25.43,9.28 -9.62,-1.15 -17.64,-4.93 -24.05,-11.34 -5.5,-7.33 -7.56,-17.3 -6.19,-29.9 1.38,-12.6 8.25,-24.06 20.62,-34.37 12.37,-10.31 32.07,-15.46 59.11,-15.46 21.08,0.91 40.32,11.34 57.73,31.27 17.42,19.93 24.63,49.6 21.66,89.01 -2.98,39.41 -24.86,88.43 -65.64,147.09 -57.28,77.43 -119.48,128.18 -186.61,152.24 -67.13,24.05 -127.61,26.23 -181.45,6.53 -53.84,-19.71 -89.7,-56.02 -107.57,-108.94 -17.87,-52.93 -6.19,-117.65 35.05,-194.17 49.49,-84.77 112.61,-152.13 189.36,-202.07 76.75,-49.95 158.77,-84.43 246.06,-103.44 87.29,-19.02 171.95,-24.4 253.97,-16.16 82.02,8.25 153.27,28.41 213.75,60.49 70.57,-45.82 132.66,-67.7 186.27,-65.64 53.61,2.06 94.39,22.79 122.34,62.2zm107.89 533.36l0 0c3.21,-3.66 6.07,-4.7 8.59,-3.09 2.52,1.6 2.87,4.24 1.04,7.9 -7.79,11.46 -30.36,39.98 -67.71,85.57 -37.34,45.6 -66.78,75.27 -88.32,89.01 -23.37,8.71 -45.47,6.53 -66.32,-6.53 -20.85,-13.06 -29.44,-35.17 -25.78,-66.32 -12.37,13.74 -27.95,28.63 -46.73,44.67 -20.62,16.96 -42.85,27.49 -66.67,31.62 -23.83,4.12 -43.31,-0.57 -58.43,-14.09 -15.12,-13.52 -20.16,-37.92 -15.12,-73.2 8.71,-45.36 27.15,-85.11 55.33,-119.25 28.18,-34.14 59.11,-60.83 92.79,-80.07 33.68,-19.25 63.35,-29.1 89.01,-29.56 36.65,0.46 56.59,14.43 59.79,41.93 8.71,-14.21 16.96,-28.18 24.75,-41.93l74.92 0c0,0 -48.8,79.96 -146.4,239.88 -14.67,27.03 -16.16,46.16 -4.47,57.39 11.68,11.22 30.81,4.46 57.39,-20.28 26.58,-27.49 51.21,-55.21 73.89,-83.16 22.68,-27.96 38.83,-48.12 48.45,-60.49zm-282.49 129.22l0 0c30.25,-30.7 53.62,-57.74 70.11,-81.11 15.58,-26.11 35.74,-59.56 60.49,-100.35 11.45,-33.9 9.16,-52.8 -6.88,-56.7 -16.04,-3.89 -35.51,2.41 -58.42,18.9 -31.16,23.83 -62.66,56.82 -94.51,98.98 -31.84,42.15 -51.66,83.39 -59.45,123.71 -2.75,23.83 4.7,35.06 22.34,33.68 17.64,-1.37 39.75,-13.74 66.32,-37.11zm675.63 -129.91l0 0c3.67,-3.2 6.76,-4.01 9.28,-2.4 2.52,1.6 2.86,4.01 1.03,7.21 -8.25,11.92 -31.04,40.67 -68.39,86.26 -37.34,45.6 -66.78,75.04 -88.32,88.32 -23.37,9.17 -45.48,7.11 -66.33,-6.18 -20.84,-13.29 -29.44,-35.51 -25.77,-66.67 -12.37,14.2 -28.18,29.55 -47.42,46.05 -20.62,16.95 -42.85,27.38 -66.67,31.27 -23.83,3.9 -43.31,-0.8 -58.43,-14.09 -15.12,-13.29 -20.16,-37.57 -15.12,-72.85 8.71,-45.37 27.15,-85.23 55.33,-119.6 28.18,-34.36 59.11,-61.05 92.79,-80.07 33.68,-19.02 63.35,-28.75 89.01,-29.21 36.65,0.46 56.59,14.43 59.79,41.92 81.11,-134.25 141.59,-234.37 181.46,-300.35l74.23 0c0,0 -100.35,165.87 -301.05,497.62 -15.12,27.03 -16.84,46.16 -5.15,57.39 11.68,11.22 30.81,4.46 57.39,-20.28 26.57,-27.49 51.2,-55.21 73.88,-83.16 22.69,-27.96 38.84,-48.35 48.46,-61.18zm-208.94 43.3l0 0c0,-0.45 0.22,-0.68 0.68,-0.68 13.29,-22.46 31.62,-53.16 54.99,-92.1 11.91,-34.83 9.96,-54.3 -5.84,-58.43 -15.81,-4.12 -35.4,2.3 -58.77,19.25 -31.16,23.37 -62.66,56.25 -94.51,98.63 -31.84,42.38 -51.66,83.74 -59.45,124.06 -2.75,23.83 4.7,35.05 22.34,33.68 17.64,-1.37 39.75,-13.75 66.32,-37.12 37.12,-38.49 61.86,-67.58 74.24,-87.29zm499.66 -43.3c3.21,-3.66 6.07,-4.69 8.59,-3.09 2.52,1.6 2.18,5.16 -1.03,10.65 -6.87,10.08 -26.12,35.17 -57.73,75.27 -31.62,40.09 -60.26,69.99 -85.92,89.69 -20.62,12.83 -40.66,15.81 -60.14,8.94 -19.47,-6.88 -32.99,-20.28 -40.55,-40.21 -7.56,-19.93 -4.24,-42.96 9.97,-69.08 13.28,-22.91 31.84,-54.53 55.67,-94.85 16.04,-24.74 25.09,-42.38 27.15,-52.92 2.06,-10.54 -2.41,-23.83 -13.4,-39.87 -1.84,-2.29 -3.21,-4.58 -4.13,-6.87 -51.78,67.36 -90.27,117.07 -115.47,149.15 -2.75,2.75 -5.38,3.21 -7.9,1.37 -2.52,-1.83 -2.41,-4.58 0.34,-8.24 26.12,-33.91 65.53,-85.23 118.22,-153.96 -4.58,-15.12 -4.81,-29.44 -0.69,-42.96 4.13,-13.52 10.31,-24.86 18.56,-34.02 17.87,-17.42 31.96,-22.69 42.27,-15.81 10.31,6.87 11.34,17.18 3.09,30.93 -14.2,17.41 -27.26,33.68 -39.17,48.8 -7.34,11.45 -5.04,23.48 6.87,36.08 11.91,12.6 22.57,27.84 31.96,45.71 9.39,17.87 6.53,40.32 -8.59,67.36 -22.91,38.03 -44.91,74.68 -65.98,109.97 -7.79,13.74 -10.77,26.57 -8.94,38.49 1.83,11.91 8.36,18.21 19.59,18.9 11.23,0.69 26.92,-8.82 47.08,-28.53 19.7,-20.16 38.26,-40.43 55.67,-60.82 17.42,-20.39 31.85,-37.92 43.3,-52.58 11.46,-14.67 18.56,-23.83 21.31,-27.5zm204.12 0l0 0c3.67,-3.2 6.76,-4.01 9.28,-2.4 2.52,1.6 2.87,4.24 1.03,7.9 -8.24,11.46 -31.04,39.98 -68.38,85.57 -37.35,45.6 -66.79,75.04 -88.32,88.32 -17.87,7.34 -35.75,7.56 -53.62,0.69 -17.87,-6.87 -30.24,-19.93 -37.11,-39.18 -6.87,-19.24 -2.52,-43.3 13.06,-72.16 26.57,-44.45 66.9,-111.58 120.97,-201.39l74.23 0c0,0 -48.57,79.96 -145.71,239.88 -15.13,27.03 -16.84,46.16 -5.16,57.39 11.68,11.22 30.82,4.46 57.39,-20.28 26.58,-27.49 51.21,-55.21 73.89,-83.16 22.68,-27.96 38.83,-48.35 48.45,-61.18zm-41.92 -158.77c-8.71,0 -16.04,-3.09 -22,-9.28 -5.95,-6.18 -8.93,-13.4 -8.93,-21.65 0,-8.7 2.98,-16.03 8.93,-21.99 5.96,-5.96 13.29,-8.94 22,-8.94 8.25,0 15.46,2.98 21.65,8.94 6.18,5.96 9.28,13.29 9.28,21.99 0,8.25 -3.1,15.47 -9.28,21.65 -6.19,6.19 -13.4,9.28 -21.65,9.28zm413.75 159.46l0 0c3.21,-3.66 6.07,-4.7 8.59,-3.09 2.53,1.6 2.18,5.15 -1.03,10.65 -6.87,10.08 -26,35.17 -57.39,75.26 -31.38,40.1 -60.14,70 -86.26,89.7 -20.62,12.37 -40.55,15.12 -59.79,8.25 -19.25,-6.88 -32.65,-20.17 -40.21,-39.87 -7.56,-19.7 -4.47,-42.38 9.28,-68.04 19.24,-32.99 45.59,-77.21 79.04,-132.66 14.66,-27.49 15.35,-45.7 2.06,-54.64 -13.29,-8.93 -33.45,-0.8 -60.48,24.4 -48.11,52.24 -85.92,96.46 -113.41,132.65l-82.48 141.59 -73.54 0 184.2 -317.54 74.23 0 -61.86 105.85c37.12,-45.36 69.42,-77.9 96.91,-97.6 16.04,-8.71 33.68,-10.65 52.93,-5.84 19.24,4.81 33.45,15.8 42.61,32.99 9.17,17.18 6.65,39.98 -7.56,68.39 -26.58,46.73 -54.53,93.93 -83.85,141.58 -7.79,13.75 -10.77,26.58 -8.94,38.49 1.84,11.92 8.36,18.1 19.59,18.56 11.23,0.46 26.92,-8.93 47.08,-28.18 19.71,-20.16 38.26,-40.44 55.68,-60.83 17.41,-20.39 31.84,-38.03 43.3,-52.92 11.45,-14.89 18.55,-23.94 21.3,-27.15zm340.9 0l0 0c3.67,-3.66 6.76,-4.7 9.28,-3.09 2.52,1.6 2.63,4.47 0.34,8.59 -32.99,45.82 -64.6,72.51 -94.85,80.07 -30.24,7.56 -53.84,1.49 -70.79,-18.21 -20.62,27.49 -46.74,55.44 -78.35,83.85 -20.17,16.96 -42.16,27.49 -65.99,31.62 -23.82,4.12 -43.41,-0.46 -58.76,-13.75 -15.35,-13.29 -20.51,-37.57 -15.47,-72.85 8.71,-45.83 27.27,-86.03 55.67,-120.63 28.41,-34.59 59.92,-61.51 94.51,-80.76 34.6,-19.24 65.18,-28.41 91.76,-27.49 28.41,0.91 46.28,11.91 53.61,32.99 7.33,21.08 -2.75,54.3 -30.24,99.66 -16.96,26.58 -29.56,45.13 -37.81,55.67 5.5,10.08 13.75,16.73 24.75,19.94 23.83,4.58 45.93,-0.81 66.32,-16.16 20.4,-15.35 39.07,-35.16 56.02,-59.45zm-164.27 -41.93l0 0c6.88,-13.74 17.07,-24.97 30.59,-33.67 13.51,-8.71 26,-7.34 37.46,4.12 0,0 0.57,-3.55 1.71,-10.65 1.15,-7.11 0.12,-13.41 -3.09,-18.91 -9.16,-13.28 -27.49,-12.6 -54.98,2.07 -35.29,22.91 -70.22,56.47 -104.82,100.69 -34.6,44.22 -55.79,86.72 -63.58,127.5 -3.2,24.28 2.98,37 18.56,38.14 15.58,1.15 38.03,-10.19 67.36,-34.02 22.91,-21.08 46.28,-47.65 70.1,-79.73 -5.95,-11 -9.5,-24.86 -10.65,-41.58 -1.14,-16.73 2.64,-34.71 11.34,-53.96zm514.79 42.62l0 0c3.66,-4.13 6.87,-5.39 9.62,-3.78 2.75,1.6 2.52,4.92 -0.69,9.96 -14.66,20.62 -33.79,43.42 -57.39,68.39 -23.6,24.98 -52.81,47.43 -87.63,67.36 -34.83,19.93 -76.3,32.88 -124.41,38.83 -24.74,5.04 -48.8,3.21 -72.17,-5.5 -33.9,-15.57 -51.2,-38.37 -51.89,-68.38 -0.69,-30.02 5.38,-57.85 18.21,-83.51 9.63,-19.71 22.57,-35.63 38.84,-47.77 16.27,-12.14 31.27,-18.22 45.02,-18.22 20.16,-25.66 40.55,-51.77 61.17,-78.35 -3.67,-17.87 -2.06,-35.17 4.81,-51.89 6.87,-16.73 14.89,-29.9 24.06,-39.52 17.41,-17.42 31.27,-22.69 41.58,-15.81 10.31,6.87 11.34,17.18 3.09,30.93 -14.2,17.41 -27.26,33.68 -39.17,48.8 0,0 0,0 0,0 -13.75,19.24 -15.81,35.97 -6.19,50.17 9.62,14.21 21.88,30.7 36.77,49.49 14.89,18.79 23.26,44.45 25.09,76.98 -0.92,28.41 -8.94,54.41 -24.06,78.01 -15.12,23.6 -34.59,42.27 -58.42,56.02 43.53,-11.92 83.05,-32.08 118.56,-60.49 35.51,-28.41 67.25,-62.32 95.2,-101.72zm-357.41 140.21l0 0c21.54,19.7 47.31,22.34 77.32,7.91 30.02,-14.44 53.96,-39.53 71.83,-75.27 28.41,-58.19 26.12,-117.53 -6.87,-178.01 -0.92,-1.38 -1.61,-2.75 -2.07,-4.13 -17.87,23.83 -35.74,47.2 -53.61,70.11 3.21,1.38 5.96,3.44 8.25,6.19 11,15.12 11.11,33.45 0.34,54.98 -10.76,21.54 -31.5,34.37 -62.2,38.49 -23.83,3.21 -38.03,14.09 -42.61,32.65 -4.58,18.56 -1.38,34.25 9.62,47.08z"/>
   <g>
    <path class="fil0 str1" d="M791.54 1430.01l16.81 0.43c-4.09,22.3 -7.75,43.38 -10.97,63.33 -3.23,19.86 -6.19,39.29 -8.89,58.37l-17.16 0c0.18,-2.35 0.26,-4.79 0.26,-7.15 0,-2.35 0,-5.92 0,-10.71 0,-33.97 -7.84,-60.72 -23.6,-80.06 -15.77,-19.42 -37.46,-29.09 -65.25,-29.09 -44.17,0 -79.36,19.25 -105.49,57.67 -26.14,38.41 -39.2,90.42 -39.2,156.1 0,40.42 8.36,71.61 25,93.56 16.72,21.95 40.42,32.93 71.25,32.93 11.94,0 23.44,-1.83 34.67,-5.58 11.24,-3.74 22.65,-9.58 34.24,-17.59l7.93 -51.23c0.52,-3.39 0.87,-6.27 1.13,-8.62 0.26,-2.35 0.35,-4.53 0.35,-6.36 0,-8.01 -2.62,-13.41 -7.93,-16.2 -5.23,-2.79 -17.42,-4.18 -36.5,-4.18l0 -19.86c18.56,0.87 33.19,1.48 43.91,1.91 10.71,0.44 19.6,0.7 26.56,0.7 8.72,0 18.91,-0.26 30.49,-0.7 11.68,-0.43 26.14,-1.04 43.3,-1.91l0 19.86c-16.03,1.04 -26.48,3.66 -31.54,7.92 -4.96,4.19 -8.97,15.34 -11.84,33.37l-13.51 84.67 -16.9 0 -2 -26.66c-17.6,10.63 -35.54,18.47 -53.92,23.61 -18.38,5.14 -37.55,7.75 -57.41,7.75 -50.09,0 -88.94,-14.02 -116.47,-41.98 -27.61,-27.97 -41.37,-67.25 -41.37,-117.78 0,-30.66 4.79,-59.58 14.28,-86.67 9.58,-27.18 23.43,-51.14 41.64,-71.87 18.38,-20.91 39.99,-37.2 64.81,-48.87 24.92,-11.67 50.7,-17.51 77.44,-17.51 25.88,0 48.26,4.01 67.25,12.02 19,8.01 35.55,20.38 49.66,37.28l8.97 -20.9zm117.51 284.77c-1.22,5.48 -2.09,10.27 -2.7,14.46 -0.61,4.09 -0.87,7.49 -0.87,10.01 0,5.93 1.48,10.63 4.35,14.12 2.88,3.48 6.8,5.22 11.68,5.22 6.97,0 14.37,-4.09 22.12,-12.19 7.67,-8.19 15.95,-20.3 24.57,-36.42l12.98 6.36c-11.67,24.05 -24.39,41.64 -37.98,52.97 -13.59,11.32 -29.01,16.98 -46.17,16.98 -14.81,0 -26.31,-3.83 -34.58,-11.58 -8.28,-7.75 -12.37,-18.56 -12.37,-32.32 0,-3.75 0.34,-8.19 1.13,-13.42 0.78,-5.14 2.09,-11.67 4.01,-19.51l54.35 -248.09c1.31,-6.54 2.44,-12.29 3.14,-17.51 0.78,-5.23 1.22,-9.15 1.22,-11.85 0,-11.93 -11.85,-18.38 -35.54,-19.43 -0.44,0 -0.87,0 -1.22,0l3.31 -17.16c3.22,0 9.49,0.27 18.73,0.79 9.23,0.43 16.2,0.69 20.82,0.69 6.62,0 14.28,-0.26 22.91,-0.69 8.71,-0.52 20.73,-1.48 36.24,-2.96l-70.13 321.53zm240.95 -189.3c27.7,0 50.17,9.67 67.34,28.92 17.16,19.34 25.78,44.78 25.78,76.23 0,42.85 -13.94,79.53 -41.81,110.02 -27.97,30.4 -61.33,45.64 -100.36,45.64 -30.05,0 -53.74,-9.4 -70.9,-28.31 -17.17,-18.9 -25.79,-44.95 -25.79,-78.14 0,-42.16 14.2,-78.4 42.51,-108.8 28.31,-30.4 62.72,-45.56 103.23,-45.56zm36.15 71.61c0,-17.34 -3.31,-30.67 -9.93,-39.9 -6.62,-9.32 -16.03,-13.94 -28.31,-13.94 -10.54,0 -20.39,3.4 -29.53,10.19 -9.24,6.8 -17.43,16.82 -24.74,30.15 -9.5,17.68 -17.25,38.59 -23.09,62.89 -5.83,24.22 -8.8,47.3 -8.8,69.25 0,17.34 3.4,30.49 10.2,39.38 6.79,8.97 16.81,13.41 30.05,13.41 10.54,0 20.82,-4.35 30.75,-13.15 9.93,-8.71 18.47,-20.99 25.61,-36.59 8.36,-18.2 15.07,-38.41 20.12,-60.63 5.14,-22.12 7.67,-42.51 7.67,-61.06zm190.25 80.23l-23.09 104.27 -55.92 0 40.59 -182.93c1.22,-5.93 2.09,-11.24 2.79,-15.86 0.7,-4.7 1.04,-8.27 1.04,-10.8 0,-6.01 -1.22,-10.72 -3.65,-14.37 -2.53,-3.66 -5.58,-5.49 -9.33,-5.49 -8.53,0 -16.98,3.66 -25.35,10.89 -8.45,7.31 -17.77,19.07 -27.96,35.36l-12.02 -8.36c12.28,-21.08 25.7,-36.85 40.25,-47.3 14.54,-10.45 30.4,-15.68 47.65,-15.68 13.06,0 23.08,3.14 29.88,9.32 6.79,6.19 10.19,15.25 10.19,27.09 0,4.97 -0.53,10.89 -1.66,17.86 -1.13,6.97 -2.79,15.51 -4.96,25.52 12.19,-26.48 25.17,-46.43 38.94,-59.75 13.76,-13.33 28.05,-20.04 42.85,-20.04 10.98,0 19.78,3.57 26.31,10.71 6.54,7.15 9.85,16.56 9.85,28.32 0,10.01 -2.53,17.85 -7.5,23.69 -5.05,5.75 -11.76,8.62 -20.29,8.62 -7.49,0 -13.5,-2.17 -18.03,-6.62 -4.62,-4.35 -6.89,-10.19 -6.89,-17.24 0,-0.88 0.09,-2.53 0.26,-5.14 0.18,-2.53 0.18,-4.62 0.18,-6.36 0,-2.7 -0.44,-5.14 -1.48,-7.49 -1.05,-2.27 -2.27,-3.4 -3.83,-3.4 -9.85,0 -21.96,12.45 -36.33,37.37 -14.37,24.91 -25.18,54.18 -32.49,87.81zm211.5 45.21c0,0.17 -0.09,0.61 -0.26,1.3 -1.83,7.32 -2.79,12.81 -2.79,16.38 0,6.27 1.39,11.15 4.18,14.46 2.88,3.31 6.8,4.97 11.94,4.97 7.31,0 14.81,-4.01 22.47,-11.94 7.67,-7.92 15.94,-20.12 24.74,-36.67l13.07 6.1c-11.76,23.78 -24.39,41.2 -37.81,52.35 -13.5,11.24 -28.66,16.81 -45.47,16.81 -15.51,0 -27.53,-3.74 -36.15,-11.23 -8.63,-7.58 -12.9,-18.12 -12.9,-31.8 0,-3.74 0.44,-8.1 1.4,-13.07 0.96,-4.87 2.35,-10.8 4.27,-17.59l35.71 -122.31c0.87,-3.13 1.57,-6.27 2.18,-9.58 0.61,-3.31 0.87,-6.36 0.87,-9.06 0,-5.49 -1.22,-9.67 -3.66,-12.54 -2.52,-2.88 -5.92,-4.36 -10.36,-4.36 -6.45,0 -13.24,3.75 -20.39,11.15 -7.23,7.41 -15.24,18.82 -24.3,34.32l-13.5 -7.14c11.06,-21.86 23.95,-38.24 38.76,-49.13 14.81,-10.89 31.36,-16.38 49.57,-16.38 12.28,0 22.12,3.31 29.62,10.02 7.49,6.62 11.23,15.51 11.23,26.57 0,4.62 -0.52,9.76 -1.57,15.59 -0.95,5.84 -2.52,12.29 -4.52,19.43l-36.33 123.35zm23.08 -303.67c8.63,0 15.86,2.52 21.61,7.66 5.83,5.14 8.71,11.59 8.71,19.43 0,10.71 -3.49,19.95 -10.45,27.7 -6.97,7.75 -15.16,11.59 -24.48,11.59 -8.37,0 -15.25,-2.79 -20.65,-8.28 -5.49,-5.57 -8.19,-12.37 -8.19,-20.56 0,-10.71 3.23,-19.69 9.59,-26.83 6.35,-7.14 14.28,-10.71 23.86,-10.71zm237.73 247.05l18.21 -78.58c-1.22,-14.11 -4.97,-24.91 -11.24,-32.58 -6.27,-7.66 -14.55,-11.5 -24.74,-11.5 -10.54,0 -20.99,4.53 -31.19,13.68 -10.19,9.06 -19.51,22.13 -27.78,39.11 -9.41,19.25 -16.82,39.2 -22.22,59.93 -5.49,20.74 -8.19,38.86 -8.19,54.36 0,15.07 2.36,26.4 7.06,33.89 4.62,7.49 11.76,11.24 21.26,11.24 5.31,0 11.32,-2.27 18.29,-6.89 6.88,-4.61 14.46,-11.58 22.82,-20.9 9.32,-10.54 17.51,-21.78 24.57,-33.71 7.05,-11.94 11.5,-21.26 13.15,-28.05zm35.63 -140.43l52.18 0 -43.82 183.28c-1.65,6.97 -2.96,13.07 -3.92,18.21 -0.96,5.23 -1.39,9.06 -1.39,11.67 0,5.06 1.48,9.15 4.44,12.2 2.96,3.05 6.8,4.62 11.33,4.62 6.79,0 13.67,-3.75 20.64,-11.24 6.97,-7.49 13.85,-18.56 20.65,-33.19l14.02 6.1c-9.32,22.21 -21.08,39.28 -35.28,51.22 -14.11,11.93 -29.44,17.94 -45.91,17.94 -13.76,0 -24.13,-3.39 -30.92,-10.28 -6.8,-6.79 -10.19,-17.07 -10.19,-30.92 0,-3.92 0.26,-8.54 0.78,-13.85 0.52,-5.31 1.31,-11.33 2.27,-18.21 -13.94,23.78 -29.27,41.9 -46.09,54.45 -16.72,12.54 -33.8,18.81 -51.13,18.81 -18.73,0 -33.28,-6.44 -43.56,-19.25 -10.28,-12.89 -15.42,-30.92 -15.42,-54.27 0,-21.6 3.75,-43.55 11.33,-65.94 7.58,-22.39 18.29,-42.95 32.06,-61.68 14.02,-18.99 29.35,-33.71 45.99,-44.08 16.73,-10.36 33.37,-15.59 50.09,-15.59 12.81,0 23.61,2.62 32.41,7.93 8.88,5.23 15.68,12.98 20.47,23.34l8.97 -31.27zm354.46 189.3c-1.22,6.62 -2.09,12.45 -2.7,17.59 -0.61,5.14 -0.87,8.45 -0.87,9.93 0,6.54 2.26,11.15 6.88,13.94 4.62,2.79 13.68,4.62 27.35,5.49l0.26 19.86c-18.72,-1.05 -33.1,-1.74 -43.03,-2.09 -9.93,-0.35 -18.12,-0.52 -24.39,-0.52 -5.92,0 -13.76,0.17 -23.43,0.52 -9.76,0.35 -24.66,1.04 -44.69,2.09l0.26 -19.86c13.59,-0.52 23.08,-2.79 28.49,-6.8 5.31,-4 9.23,-13.06 11.58,-27.18l41.29 -253.84c1.05,-6.79 1.92,-12.72 2.62,-17.77 0.69,-4.96 0.95,-8.36 0.95,-10.02 0,-6.53 -2.17,-11.06 -6.7,-13.85 -4.53,-2.7 -13.77,-4.53 -27.71,-5.57l0 -20.39c15.68,0.87 28.93,1.48 39.81,1.92 10.89,0.43 20.39,0.7 28.58,0.7 8.01,0 17.77,-0.27 29.18,-0.7 11.5,-0.44 25.87,-1.05 43.03,-1.92l0 20.39c-16.98,0.87 -28.22,3.31 -33.71,7.4 -5.4,4.1 -9.32,13.33 -11.67,27.79l-18.91 114.29 164.04 0 16.9 -102.27c1.04,-6.01 1.74,-11.41 2.26,-16.2 0.52,-4.88 0.78,-8.71 0.78,-11.59 0,-6.7 -2.17,-11.32 -6.62,-13.93 -4.44,-2.62 -13.5,-4.45 -27.35,-5.49l0 -20.39c16.55,0.87 30.05,1.48 40.51,1.92 10.45,0.43 19.25,0.7 26.39,0.7 7.49,0 16.47,-0.27 26.92,-0.7 10.45,-0.44 24.3,-1.05 41.47,-1.92l0 20.39c-13.59,0.52 -23.09,2.78 -28.49,6.79 -5.31,3.92 -9.23,13.07 -11.59,27.35l-41.81 253.67c-1.22,7.32 -2.18,13.51 -2.87,18.47 -0.61,5.05 -0.96,8.19 -0.96,9.32 0,6.71 2.26,11.33 6.88,14.03 4.62,2.79 13.76,4.53 27.53,5.4l0.26 19.86c-19.43,-1.05 -33.98,-1.74 -43.91,-2.09 -9.84,-0.35 -17.94,-0.52 -24.21,-0.52 -6.45,0 -14.99,0.17 -25.53,0.52 -10.54,0.35 -26.04,1.04 -46.43,2.09l0 -19.86c17.16,-0.87 28.4,-3.22 33.71,-7.14 5.23,-3.92 9.15,-13.16 11.68,-27.79l21.43 -129.71 -164.03 0 -19.43 117.69zm499.93 -11.59l13.16 8.45c-12.46,24.56 -27.88,43.12 -46.43,55.75 -18.56,12.63 -39.9,18.9 -64.03,18.9 -26.57,0 -47.39,-8.1 -62.46,-24.39 -15.07,-16.2 -22.56,-38.76 -22.56,-67.51 0,-23.26 5.14,-46.52 15.33,-69.6 10.19,-23.17 24.04,-43.03 41.64,-59.5 13.76,-12.89 29.01,-22.82 45.82,-29.62 16.72,-6.79 34.41,-10.19 52.96,-10.19 20.91,0 36.94,4.36 48.09,12.98 11.15,8.71 16.72,21.17 16.72,37.29 0,24.65 -13.59,44.16 -40.85,58.45 -27.18,14.28 -64.55,21.43 -112.2,21.43 -2.18,10.89 -3.92,21.08 -5.05,30.49 -1.22,9.4 -1.83,18.11 -1.83,26.13 0,17.33 3.48,30.14 10.36,38.24 6.89,8.19 17.51,12.28 31.97,12.28 14.64,0 28.92,-5.22 42.86,-15.76 13.94,-10.46 26.14,-25.09 36.5,-43.82zm-111.5 -64.81c33.54,-0.52 58.8,-6.27 75.7,-17.25 16.99,-10.89 25.44,-26.92 25.44,-48 0,-8.88 -2.62,-15.85 -7.76,-21.08 -5.22,-5.14 -12.19,-7.75 -20.82,-7.75 -16.55,0 -30.92,7.92 -43.2,23.87 -12.2,15.85 -22.04,39.28 -29.36,70.21zm277.98 38.94l-23.09 104.27 -55.92 0 40.59 -182.93c1.22,-5.93 2.09,-11.24 2.79,-15.86 0.7,-4.7 1.04,-8.27 1.04,-10.8 0,-6.01 -1.22,-10.72 -3.65,-14.37 -2.53,-3.66 -5.58,-5.49 -9.33,-5.49 -8.53,0 -16.98,3.66 -25.35,10.89 -8.45,7.31 -17.77,19.07 -27.96,35.36l-12.02 -8.36c12.28,-21.08 25.7,-36.85 40.25,-47.3 14.54,-10.45 30.4,-15.68 47.65,-15.68 13.06,0 23.08,3.14 29.88,9.32 6.79,6.19 10.19,15.25 10.19,27.09 0,4.97 -0.53,10.89 -1.66,17.86 -1.13,6.97 -2.79,15.51 -4.96,25.52 12.19,-26.48 25.17,-46.43 38.94,-59.75 13.76,-13.33 28.05,-20.04 42.85,-20.04 10.98,0 19.78,3.57 26.31,10.71 6.54,7.15 9.85,16.56 9.85,28.32 0,10.01 -2.53,17.85 -7.5,23.69 -5.05,5.75 -11.76,8.62 -20.29,8.62 -7.49,0 -13.5,-2.17 -18.03,-6.62 -4.62,-4.35 -6.89,-10.19 -6.89,-17.24 0,-0.88 0.09,-2.53 0.26,-5.14 0.18,-2.53 0.18,-4.62 0.18,-6.36 0,-2.7 -0.44,-5.14 -1.48,-7.49 -1.05,-2.27 -2.27,-3.4 -3.83,-3.4 -9.85,0 -21.96,12.45 -36.33,37.37 -14.37,24.91 -25.18,54.18 -32.49,87.81zm394.78 -49.05l-29.88 88.42c-2.44,7.14 -4.09,12.72 -4.87,16.73 -0.88,4 -1.31,7.58 -1.31,10.62 0,4.8 1.39,8.54 4.18,11.42 2.87,2.78 6.62,4.18 11.41,4.18 7.32,0 14.98,-4.1 22.91,-12.2 7.93,-8.1 16.2,-20.21 24.92,-36.41l12.98 6.1c-11.42,23.78 -23.87,41.2 -37.38,52.35 -13.58,11.24 -28.83,16.81 -45.9,16.81 -15.68,0 -27.88,-3.74 -36.5,-11.15 -8.71,-7.4 -13.07,-17.77 -13.07,-31.1 0,-4.96 0.44,-10.1 1.39,-15.5 0.96,-5.31 2.36,-10.72 4.27,-15.94l33.98 -98.35c3.13,-8.45 5.48,-16.29 7.05,-23.52 1.66,-7.23 2.44,-12.89 2.44,-17.16 0,-6.45 -1.39,-11.15 -4.18,-14.2 -2.87,-3.05 -7.14,-4.62 -12.89,-4.62 -15.16,0 -33.02,12.81 -53.58,38.33 -20.64,25.61 -34.32,53.66 -41.11,84.24l-23.09 104.27 -55.92 0 40.59 -182.93c1.22,-5.93 2.09,-11.24 2.79,-15.86 0.7,-4.7 1.04,-8.27 1.04,-10.8 0,-6.01 -1.22,-10.72 -3.65,-14.37 -2.53,-3.66 -5.58,-5.49 -9.33,-5.49 -8.53,0 -16.98,3.66 -25.35,10.89 -8.45,7.31 -17.77,19.07 -27.96,35.36l-12.02 -8.36c12.28,-21.08 25.7,-36.85 40.25,-47.3 14.54,-10.45 30.49,-15.68 47.65,-15.68 13.5,0 23.78,3.31 30.92,9.84 7.14,6.54 10.72,16.03 10.72,28.66 0,4.1 -0.53,9.67 -1.66,16.73 -1.13,6.97 -2.96,16.2 -5.49,27.61 20.21,-30.4 38.68,-51.83 55.32,-64.2 16.72,-12.46 34.84,-18.64 54.36,-18.64 14.63,0 26.39,4.27 35.28,12.72 8.79,8.53 13.24,19.95 13.24,34.23 0,6.27 -0.87,13.33 -2.53,21.26 -1.74,7.93 -5.05,18.9 -10.02,33.01zm235.2 37.64l18.21 -78.58c-1.22,-14.11 -4.97,-24.91 -11.24,-32.58 -6.27,-7.66 -14.55,-11.5 -24.74,-11.5 -10.54,0 -20.99,4.53 -31.19,13.68 -10.19,9.06 -19.51,22.13 -27.78,39.11 -9.41,19.25 -16.82,39.2 -22.22,59.93 -5.49,20.74 -8.19,38.86 -8.19,54.36 0,15.07 2.36,26.4 7.06,33.89 4.62,7.49 11.76,11.24 21.26,11.24 5.31,0 11.32,-2.27 18.29,-6.89 6.88,-4.61 14.46,-11.58 22.82,-20.9 9.32,-10.54 17.51,-21.78 24.57,-33.71 7.05,-11.94 11.5,-21.26 13.15,-28.05zm35.63 -140.43l52.18 0 -43.82 183.28c-1.65,6.97 -2.96,13.07 -3.92,18.21 -0.96,5.23 -1.39,9.06 -1.39,11.67 0,5.06 1.48,9.15 4.44,12.2 2.96,3.05 6.8,4.62 11.33,4.62 6.79,0 13.67,-3.75 20.64,-11.24 6.97,-7.49 13.85,-18.56 20.65,-33.19l14.02 6.1c-9.32,22.21 -21.08,39.28 -35.28,51.22 -14.11,11.93 -29.44,17.94 -45.91,17.94 -13.76,0 -24.13,-3.39 -30.92,-10.28 -6.8,-6.79 -10.19,-17.07 -10.19,-30.92 0,-3.92 0.26,-8.54 0.78,-13.85 0.52,-5.31 1.31,-11.33 2.27,-18.21 -13.94,23.78 -29.27,41.9 -46.09,54.45 -16.72,12.54 -33.8,18.81 -51.13,18.81 -18.73,0 -33.28,-6.44 -43.56,-19.25 -10.28,-12.89 -15.42,-30.92 -15.42,-54.27 0,-21.6 3.75,-43.55 11.33,-65.94 7.58,-22.39 18.29,-42.95 32.06,-61.68 14.02,-18.99 29.35,-33.71 45.99,-44.08 16.73,-10.36 33.37,-15.59 50.09,-15.59 12.81,0 23.61,2.62 32.41,7.93 8.88,5.23 15.68,12.98 20.47,23.34l8.97 -31.27zm-52.96 -28.22l-25.01 0 75.79 -76.75c5.4,-5.57 10.72,-9.93 15.77,-12.89 5.14,-2.96 10.02,-4.44 14.55,-4.44 6.27,0 11.5,2.17 15.68,6.62 4.18,4.44 6.27,9.84 6.27,16.29 0,4.79 -1.57,9.06 -4.62,12.8 -3.05,3.75 -8.1,7.58 -15.24,11.41l-83.19 46.96zm409.94 131.01l-29.88 88.42c-2.44,7.14 -4.09,12.72 -4.87,16.73 -0.88,4 -1.31,7.58 -1.31,10.62 0,4.8 1.39,8.54 4.18,11.42 2.87,2.78 6.62,4.18 11.41,4.18 7.32,0 14.98,-4.1 22.91,-12.2 7.93,-8.1 16.2,-20.21 24.92,-36.41l12.98 6.1c-11.42,23.78 -23.87,41.2 -37.38,52.35 -13.58,11.24 -28.83,16.81 -45.9,16.81 -15.68,0 -27.88,-3.74 -36.5,-11.15 -8.71,-7.4 -13.07,-17.77 -13.07,-31.1 0,-4.96 0.44,-10.1 1.39,-15.5 0.96,-5.31 2.36,-10.72 4.27,-15.94l33.98 -98.35c3.13,-8.45 5.48,-16.29 7.05,-23.52 1.66,-7.23 2.44,-12.89 2.44,-17.16 0,-6.45 -1.39,-11.15 -4.18,-14.2 -2.87,-3.05 -7.14,-4.62 -12.89,-4.62 -15.16,0 -33.02,12.81 -53.58,38.33 -20.64,25.61 -34.32,53.66 -41.11,84.24l-23.09 104.27 -55.92 0 40.59 -182.93c1.22,-5.93 2.09,-11.24 2.79,-15.86 0.7,-4.7 1.04,-8.27 1.04,-10.8 0,-6.01 -1.22,-10.72 -3.65,-14.37 -2.53,-3.66 -5.58,-5.49 -9.33,-5.49 -8.53,0 -16.98,3.66 -25.35,10.89 -8.45,7.31 -17.77,19.07 -27.96,35.36l-12.02 -8.36c12.28,-21.08 25.7,-36.85 40.25,-47.3 14.54,-10.45 30.49,-15.68 47.65,-15.68 13.5,0 23.78,3.31 30.92,9.84 7.14,6.54 10.72,16.03 10.72,28.66 0,4.1 -0.53,9.67 -1.66,16.73 -1.13,6.97 -2.96,16.2 -5.49,27.61 20.21,-30.4 38.68,-51.83 55.32,-64.2 16.72,-12.46 34.84,-18.64 54.36,-18.64 14.63,0 26.39,4.27 35.28,12.72 8.79,8.53 13.24,19.95 13.24,34.23 0,6.27 -0.87,13.33 -2.53,21.26 -1.74,7.93 -5.05,18.9 -10.02,33.01zm235.72 42.51l16.64 -73.17c-1.74,-12.89 -5.75,-22.82 -12.02,-29.79 -6.27,-6.97 -14.29,-10.46 -23.96,-10.46 -10.54,0 -20.81,4.36 -30.92,12.98 -10.02,8.72 -18.99,21.09 -27,37.2 -8.72,17.34 -15.6,35.54 -20.65,54.62 -5.14,18.99 -7.67,35.8 -7.67,50.44 0,13.41 2.53,23.87 7.67,31.27 5.05,7.41 12.28,11.06 21.69,11.06 6.45,0 12.89,-1.83 19.25,-5.48 6.36,-3.66 13.24,-9.41 20.56,-17.25 8.8,-9.5 16.55,-19.95 23.26,-31.45 6.79,-11.5 11.15,-21.52 13.15,-29.97zm44.87 45.39c-0.61,2.7 -1.14,5.49 -1.48,8.36 -0.35,2.96 -0.53,5.93 -0.53,8.97 0,6.97 1.4,12.29 4.18,15.95 2.88,3.65 6.97,5.48 12.37,5.48 6.97,0 13.94,-3.48 20.82,-10.45 6.89,-6.97 14.38,-18.12 22.57,-33.45l13.24 6.1c-11.33,23.95 -23.87,41.46 -37.55,52.53 -13.76,11.06 -29.62,16.63 -47.56,16.63 -12.98,0 -22.91,-3.65 -29.88,-10.97 -6.97,-7.41 -10.45,-17.77 -10.45,-31.28 0,-3.74 0.34,-8.01 1.13,-12.8 0.78,-4.79 2.09,-10.8 4.01,-18.21 -15.51,24.92 -31.28,43.38 -47.31,55.32 -15.94,11.93 -33.01,17.94 -51.04,17.94 -19.78,0 -35.2,-6.7 -46.35,-20.03 -11.15,-13.33 -16.72,-31.97 -16.72,-55.75 0,-20.47 3.57,-40.95 10.63,-61.5 7.05,-20.65 17.07,-39.64 29.96,-56.97 13.77,-18.39 29.01,-32.58 45.56,-42.6 16.64,-10.02 33.19,-15.07 49.65,-15.07 13.16,0 23.96,2.52 32.58,7.66 8.54,5.14 15.51,12.98 20.82,23.78l23.44 -103.92c1.39,-5.84 2.44,-11.32 3.13,-16.46 0.79,-5.23 1.22,-9.5 1.22,-12.9 -0.17,-12.1 -12.72,-18.46 -37.54,-19.16 -1.66,-0.18 -2.96,-0.26 -3.84,-0.26l3.14 -17.25c2.53,0 6.45,0.09 11.67,0.26 14.81,0.52 25,0.78 30.67,0.78 7.23,0 15.76,-0.26 25.43,-0.87 9.76,-0.52 21.78,-1.48 36.24,-2.78l-72.21 322.92zm275.44 -12.98l13.16 8.45c-12.46,24.56 -27.88,43.12 -46.43,55.75 -18.56,12.63 -39.9,18.9 -64.03,18.9 -26.57,0 -47.39,-8.1 -62.46,-24.39 -15.07,-16.2 -22.56,-38.76 -22.56,-67.51 0,-23.26 5.14,-46.52 15.33,-69.6 10.19,-23.17 24.04,-43.03 41.64,-59.5 13.76,-12.89 29.01,-22.82 45.82,-29.62 16.72,-6.79 34.41,-10.19 52.96,-10.19 20.91,0 36.94,4.36 48.09,12.98 11.15,8.71 16.72,21.17 16.72,37.29 0,24.65 -13.59,44.16 -40.85,58.45 -27.18,14.28 -64.55,21.43 -112.2,21.43 -2.18,10.89 -3.92,21.08 -5.05,30.49 -1.22,9.4 -1.83,18.11 -1.83,26.13 0,17.33 3.48,30.14 10.36,38.24 6.89,8.19 17.51,12.28 31.97,12.28 14.64,0 28.92,-5.22 42.86,-15.76 13.94,-10.46 26.14,-25.09 36.5,-43.82zm-111.5 -64.81c33.54,-0.52 58.8,-6.27 75.7,-17.25 16.99,-10.89 25.44,-26.92 25.44,-48 0,-8.88 -2.62,-15.85 -7.76,-21.08 -5.22,-5.14 -12.19,-7.75 -20.82,-7.75 -16.55,0 -30.92,7.92 -43.2,23.87 -12.2,15.85 -22.04,39.28 -29.36,70.21zm386.61 -104.62c-21.43,36.76 -53.58,76.48 -96.44,119.25 -42.86,42.69 -68.99,71.43 -78.57,86.24 6.79,-5.48 13.67,-9.58 20.56,-12.19 6.88,-2.7 14.11,-4.01 21.77,-4.01 9.76,0 25.44,2.96 47.22,8.89 21.78,5.92 38.07,8.88 48.96,8.88 8.53,0 14.8,-2.79 18.72,-8.45 4.01,-5.66 6.45,-15.07 7.32,-28.22l10.19 1.04c-0.17,29.88 -3.92,50.96 -11.23,63.25 -7.32,12.28 -19.52,18.38 -36.68,18.38 -11.06,0 -30.92,-4.1 -59.58,-12.29 -28.66,-8.18 -50.27,-12.28 -64.73,-12.28 -7.92,0 -14.63,1.57 -19.86,4.71 -5.31,3.22 -10.1,8.62 -14.54,16.29l-9.5 -8.98c19.95,-38.15 52.53,-80.75 98,-127.79 45.39,-47.04 73.61,-77.44 84.5,-91.29 -10.28,6.88 -19.78,11.84 -28.57,15.07 -8.89,3.22 -17.6,4.88 -26.31,4.88 -8.89,0 -20.47,-1.31 -34.85,-3.92 -14.37,-2.62 -24.13,-3.92 -29.44,-3.92 -6.97,0 -13.07,1.82 -18.38,5.48 -5.23,3.66 -12.2,11.94 -20.91,24.83l-10.45 -6.18c11.59,-22.74 23.08,-39.38 34.41,-50.01 11.41,-10.62 23.69,-15.94 36.76,-15.94 5.75,0 18.9,2.01 39.37,6.01 20.56,4.01 37.81,6.01 51.92,6.01 8.37,0 14.9,-0.87 19.69,-2.52 4.79,-1.66 8.62,-4.27 11.76,-7.76l8.89 6.54z"/>
    <path class="fil0 str1" d="M846.11 2211.4c-3.4,-0.52 -6.8,-1.31 -10.28,-2.35 -3.49,-0.96 -7.23,-2.36 -11.06,-4.1 -17.08,6.19 -30.67,17.6 -40.77,34.24 -10.11,16.63 -15.16,35.97 -15.16,57.93 0,26.39 8.89,48.17 26.57,65.5 17.68,17.25 40.42,25.88 68.12,25.88 31.71,0 56.97,-8.8 75.96,-26.4 18.99,-17.6 28.49,-41.03 28.49,-70.3 0,-8.36 -1.05,-16.81 -3.05,-25.26 -2.09,-8.54 -5.4,-17.68 -10.02,-27.35 -2.7,-0.35 -6.62,-0.79 -11.76,-1.22 -8.97,-1.05 -15.24,-1.57 -18.64,-1.57 -10.37,0 -18.82,1.92 -25.18,5.84 -6.44,3.92 -11.58,10.1 -15.5,18.64 5.83,4.09 10.28,9.06 13.41,15.07 3.14,5.92 4.79,12.28 4.79,19.08 0,7.31 -2,13.15 -5.92,17.5 -3.92,4.36 -9.06,6.54 -15.51,6.54 -7.49,0 -13.59,-3.14 -18.38,-9.41 -4.79,-6.36 -7.14,-14.46 -7.14,-24.57 0,-21.25 8.54,-38.32 25.7,-51.22 17.07,-12.98 40.07,-19.42 69.08,-19.42 9.49,0 23.26,0.69 41.29,2.09 18.12,1.39 31.27,2.09 39.63,2.09 11.42,0 19.43,-1.48 24.13,-4.36 4.62,-2.87 8.8,-8.19 12.37,-15.94l10.46 4.62c-5.14,17.86 -10.37,29.44 -15.68,34.84 -5.4,5.32 -14.99,8.02 -28.75,8.02 -7.49,0 -20.99,-0.79 -40.59,-2.27 -4.18,-0.35 -7.32,-0.61 -9.41,-0.78 2.87,7.14 4.96,14.46 6.27,21.95 1.31,7.49 1.92,15.68 1.92,24.48 0,36.15 -13.68,65.85 -41.12,89.29 -27.44,23.43 -62.81,35.1 -106.28,35.1 -39.63,0 -71.69,-10.01 -96.08,-30.14 -24.48,-20.03 -36.67,-46.25 -36.67,-78.66 0,-27 8.1,-50 24.39,-68.82 16.29,-18.81 39.81,-32.4 70.64,-40.94 -20.29,-6.97 -35.45,-16.55 -45.47,-28.75 -10.02,-12.1 -15.07,-26.91 -15.07,-44.25 0,-26.65 10.63,-48.87 31.89,-66.55 21.34,-17.69 48.26,-26.57 81.01,-26.57 27.87,0 51.22,6.79 70.04,20.3 18.81,13.5 28.22,29.27 28.22,47.47 0,7.32 -1.92,13.16 -5.66,17.6 -3.75,4.44 -8.8,6.62 -15.33,6.62 -8.54,0 -14.99,-3.57 -19.43,-10.72 -4.44,-7.14 -6.62,-17.51 -6.62,-31.09 0,-1.49 0.09,-3.14 0.26,-4.71 0.09,-1.65 0.18,-2.53 0.18,-2.7 0,-7.67 -3.49,-13.41 -10.46,-17.42 -6.97,-4.01 -17.07,-6.01 -30.31,-6.01 -20.56,0 -36.85,6.88 -48.87,20.56 -11.94,13.67 -17.95,32.4 -17.95,56.27 0,18.21 4.27,33.1 12.72,44.78 8.54,11.67 21.17,20.03 37.98,25.17l-7.4 16.38zm616.93 -177.8l0 20.39c-17.68,0.87 -29.18,3.22 -34.5,7.14 -5.22,3.92 -9.06,13.42 -11.41,28.57l-35.02 217.43c-6.36,39.47 -12.54,67.69 -18.64,84.59 -6.18,16.9 -14.2,31.36 -24.3,43.21 -11.24,13.32 -24.22,23.43 -39.03,30.4 -14.81,6.97 -30.75,10.45 -47.74,10.45 -19.77,0 -36.06,-4.88 -48.78,-14.63 -12.8,-9.85 -19.16,-22.04 -19.16,-36.59 0,-8.36 2.61,-15.24 7.92,-20.56 5.23,-5.4 12.03,-8.01 20.13,-8.01 9.23,0 17.07,3.74 23.69,11.32 6.53,7.58 9.76,16.81 9.76,27.7 0,3.4 -0.52,8.98 -1.66,16.82 -0.17,0.69 -0.26,1.22 -0.26,1.56 2.53,0.79 4.97,1.48 7.23,1.92 2.35,0.44 4.44,0.61 6.27,0.61 13.59,0 24.39,-6.36 32.32,-18.99 7.93,-12.72 14.55,-35.28 20.04,-67.77l43.38 -267.96c1.04,-6.27 1.74,-12.11 2.26,-17.33 0.53,-5.32 0.79,-8.8 0.79,-10.46 0,-7.49 -3.05,-12.63 -9.15,-15.33 -6.18,-2.7 -19.6,-4.09 -40.33,-4.09l0 -20.39c21.08,0.87 37.72,1.48 49.83,1.92 12.19,0.43 22.21,0.7 30.05,0.7 7.14,0 16.2,-0.27 27.18,-0.7 10.98,-0.44 27.35,-1.05 49.13,-1.92zm153.58 119.17c27.7,0 50.17,9.67 67.34,28.92 17.16,19.34 25.78,44.78 25.78,76.23 0,42.85 -13.94,79.53 -41.81,110.02 -27.97,30.4 -61.33,45.64 -100.36,45.64 -30.05,0 -53.74,-9.4 -70.9,-28.31 -17.17,-18.9 -25.79,-44.95 -25.79,-78.14 0,-42.16 14.2,-78.4 42.51,-108.8 28.31,-30.4 62.72,-45.56 103.23,-45.56zm36.15 71.61c0,-17.34 -3.31,-30.67 -9.93,-39.9 -6.62,-9.32 -16.03,-13.94 -28.31,-13.94 -10.54,0 -20.39,3.4 -29.53,10.19 -9.24,6.8 -17.43,16.82 -24.74,30.15 -9.5,17.68 -17.25,38.59 -23.09,62.89 -5.83,24.22 -8.8,47.3 -8.8,69.25 0,17.34 3.4,30.49 10.2,39.38 6.79,8.97 16.81,13.41 30.05,13.41 10.54,0 20.82,-4.35 30.75,-13.15 9.93,-8.71 18.47,-20.99 25.61,-36.59 8.36,-18.2 15.07,-38.41 20.12,-60.63 5.14,-22.12 7.67,-42.51 7.67,-61.06zm243.47 -38.51c-5.14,-5.48 -11.06,-9.49 -17.86,-12.02 -6.79,-2.52 -14.8,-3.83 -23.95,-3.83 -13.33,0 -24.13,3.57 -32.41,10.63 -8.36,7.05 -12.54,16.2 -12.54,27.61 0,16.2 13.59,31.54 40.68,46 3.05,1.48 5.31,2.7 6.88,3.57 24.31,13.24 40.33,25.09 48.26,35.63 7.93,10.45 11.85,23.52 11.85,39.2 0,24.13 -8.62,43.64 -25.87,58.54 -17.25,14.89 -39.99,22.38 -68.21,22.38 -25,0 -45.47,-5.83 -61.33,-17.42 -15.94,-11.58 -23.87,-26.31 -23.87,-44.16 0,-9.24 2.36,-16.82 7.15,-22.91 4.7,-6.01 10.71,-9.06 18.03,-9.06 6.1,0 11.24,2.09 15.24,6.27 4.1,4.18 6.19,9.41 6.19,15.68 0,5.92 -1.66,12.28 -4.79,18.99 -3.14,6.71 -4.71,10.71 -4.71,11.85 0,5.66 4.62,10.97 13.94,16.02 9.32,4.97 20.12,7.5 32.58,7.5 14.81,0 26.48,-3.75 34.93,-11.24 8.45,-7.49 12.63,-17.86 12.63,-31.1 0,-16.55 -13.24,-31.8 -39.63,-45.73 -3.23,-1.66 -5.84,-3.05 -7.67,-4.1 -21.78,-11.67 -36.76,-22.91 -44.95,-33.62 -8.19,-10.72 -12.28,-23.61 -12.28,-38.77 0,-23.43 8.01,-42.42 24.13,-57.06 16.12,-14.63 37.54,-21.95 64.29,-21.95 23.43,0 42.94,5.23 58.36,15.77 15.42,10.54 23.09,23.61 23.09,39.29 0,8.1 -2.01,14.72 -6.1,19.6 -4.09,4.96 -9.58,7.4 -16.38,7.4 -6.53,0 -11.93,-2.26 -16.37,-6.79 -4.45,-4.45 -6.71,-10.02 -6.71,-16.73 0,-3.4 0.61,-7.14 1.83,-11.32 1.13,-4.19 3.05,-8.89 5.57,-14.12zm254.02 144.61l13.16 8.45c-12.46,24.56 -27.88,43.12 -46.43,55.75 -18.56,12.63 -39.9,18.9 -64.03,18.9 -26.57,0 -47.39,-8.1 -62.46,-24.39 -15.07,-16.2 -22.56,-38.76 -22.56,-67.51 0,-23.26 5.14,-46.52 15.33,-69.6 10.19,-23.17 24.04,-43.03 41.64,-59.5 13.76,-12.89 29.01,-22.82 45.82,-29.62 16.72,-6.79 34.41,-10.19 52.96,-10.19 20.91,0 36.94,4.36 48.09,12.98 11.15,8.71 16.72,21.17 16.72,37.29 0,24.65 -13.59,44.16 -40.85,58.45 -27.18,14.28 -64.55,21.43 -112.2,21.43 -2.18,10.89 -3.92,21.08 -5.05,30.49 -1.22,9.4 -1.83,18.11 -1.83,26.13 0,17.33 3.48,30.14 10.36,38.24 6.89,8.19 17.51,12.28 31.97,12.28 14.64,0 28.92,-5.22 42.86,-15.76 13.94,-10.46 26.14,-25.09 36.5,-43.82zm-111.5 -64.81c33.54,-0.52 58.8,-6.27 75.7,-17.25 16.99,-10.89 25.44,-26.92 25.44,-48 0,-8.88 -2.62,-15.85 -7.76,-21.08 -5.22,-5.14 -12.19,-7.75 -20.82,-7.75 -16.55,0 -30.92,7.92 -43.2,23.87 -12.2,15.85 -22.04,39.28 -29.36,70.21zm50.35 -141.12l-25 0 75.79 -76.75c5.4,-5.57 10.71,-9.93 15.76,-12.89 5.14,-2.96 10.02,-4.44 14.55,-4.44 6.27,0 11.5,2.17 15.68,6.62 4.18,4.44 6.27,9.84 6.27,16.29 0,4.79 -1.57,9.06 -4.61,12.8 -3.05,3.75 -8.11,7.58 -15.25,11.41l-83.19 46.96zm439.66 -90.95l47.21 272.49 138.77 -272.49c5.67,0 14.2,0.44 25.7,1.31 11.41,0.87 19.86,1.31 25.09,1.31 5.14,0 13.24,-0.44 24.48,-1.22 11.24,-0.79 20.03,-1.22 26.31,-1.4l0 20.39 -6.36 0c-10.02,0 -17.34,2.44 -21.87,7.4 -4.44,4.97 -8.01,15.59 -10.54,31.88l-38.07 250.36c-0.96,6.45 -1.65,11.41 -2,14.9 -0.35,3.48 -0.52,6.18 -0.52,8.01 0,9.24 2.26,15.25 6.88,18.12 4.62,2.88 15.33,4.36 32.14,4.36l0 19.86c-20.9,-1.05 -36.41,-1.74 -46.43,-2.09 -10.02,-0.35 -18.03,-0.52 -23.95,-0.52 -6.19,0 -14.38,0.17 -24.66,0.52 -10.28,0.35 -26.83,1.04 -49.65,2.09l0 -19.86 2.61 0c14.73,0 25,-2.88 30.75,-8.71 5.67,-5.75 10.02,-18.99 13.07,-39.81l40.86 -267.61 -164.56 321.53 -22.47 8.71 -56.63 -325.88 -52.09 268.91c-1.04,5.4 -1.74,9.67 -2.18,12.63 -0.43,2.96 -0.61,5.23 -0.61,6.8 0,8.79 2.01,14.72 6.1,17.85 4.1,3.05 14.64,4.97 31.71,5.84l0 19.6c-15.77,-1.05 -27.44,-1.74 -34.84,-2.09 -7.32,-0.35 -13.33,-0.52 -17.95,-0.52 -3.74,0 -8.97,0.17 -15.68,0.52 -6.71,0.35 -18.29,1.04 -34.58,2.09l0 -19.86c15.33,0 25.87,-2.53 31.62,-7.67 5.84,-5.05 10.98,-19.25 15.59,-42.33l48.35 -239.91c1.04,-5.4 1.83,-10.54 2.35,-15.24 0.44,-4.79 0.7,-8.63 0.7,-11.5 0,-6.1 -2.35,-10.46 -7.14,-13.07 -4.71,-2.53 -14.81,-4.27 -30.32,-5.31l0 -20.39c13.24,0.87 24.65,1.48 34.15,1.92 9.58,0.43 18.2,0.7 26.04,0.7 4.8,0 10.98,-0.27 18.56,-0.7 7.49,-0.44 18.9,-1.05 34.06,-1.92zm466.74 259.6l18.21 -78.58c-1.22,-14.11 -4.97,-24.91 -11.24,-32.58 -6.27,-7.66 -14.55,-11.5 -24.74,-11.5 -10.54,0 -20.99,4.53 -31.19,13.68 -10.19,9.06 -19.51,22.13 -27.78,39.11 -9.41,19.25 -16.82,39.2 -22.22,59.93 -5.49,20.74 -8.19,38.86 -8.19,54.36 0,15.07 2.36,26.4 7.06,33.89 4.62,7.49 11.76,11.24 21.26,11.24 5.31,0 11.32,-2.27 18.29,-6.89 6.88,-4.61 14.46,-11.58 22.82,-20.9 9.32,-10.54 17.51,-21.78 24.57,-33.71 7.05,-11.94 11.5,-21.26 13.15,-28.05zm35.63 -140.43l52.18 0 -43.82 183.28c-1.65,6.97 -2.96,13.07 -3.92,18.21 -0.96,5.23 -1.39,9.06 -1.39,11.67 0,5.06 1.48,9.15 4.44,12.2 2.96,3.05 6.8,4.62 11.33,4.62 6.79,0 13.67,-3.75 20.64,-11.24 6.97,-7.49 13.85,-18.56 20.65,-33.19l14.02 6.1c-9.32,22.21 -21.08,39.28 -35.28,51.22 -14.11,11.93 -29.44,17.94 -45.91,17.94 -13.76,0 -24.13,-3.39 -30.92,-10.28 -6.8,-6.79 -10.19,-17.07 -10.19,-30.92 0,-3.92 0.26,-8.54 0.78,-13.85 0.52,-5.31 1.31,-11.33 2.27,-18.21 -13.94,23.78 -29.27,41.9 -46.09,54.45 -16.72,12.54 -33.8,18.81 -51.13,18.81 -18.73,0 -33.28,-6.44 -43.56,-19.25 -10.28,-12.89 -15.42,-30.92 -15.42,-54.27 0,-21.6 3.75,-43.55 11.33,-65.94 7.58,-22.39 18.29,-42.95 32.06,-61.68 14.02,-18.99 29.35,-33.71 45.99,-44.08 16.73,-10.36 33.37,-15.59 50.09,-15.59 12.81,0 23.61,2.62 32.41,7.93 8.88,5.23 15.68,12.98 20.47,23.34l8.97 -31.27zm201.84 151.84l-23.09 104.27 -55.92 0 40.59 -182.93c1.22,-5.93 2.09,-11.24 2.79,-15.86 0.7,-4.7 1.04,-8.27 1.04,-10.8 0,-6.01 -1.22,-10.72 -3.65,-14.37 -2.53,-3.66 -5.58,-5.49 -9.33,-5.49 -8.53,0 -16.98,3.66 -25.35,10.89 -8.45,7.31 -17.77,19.07 -27.96,35.36l-12.02 -8.36c12.28,-21.08 25.7,-36.85 40.25,-47.3 14.54,-10.45 30.4,-15.68 47.65,-15.68 13.06,0 23.08,3.14 29.88,9.32 6.79,6.19 10.19,15.25 10.19,27.09 0,4.97 -0.53,10.89 -1.66,17.86 -1.13,6.97 -2.79,15.51 -4.96,25.52 12.19,-26.48 25.17,-46.43 38.94,-59.75 13.76,-13.33 28.05,-20.04 42.85,-20.04 10.98,0 19.78,3.57 26.31,10.71 6.54,7.15 9.85,16.56 9.85,28.32 0,10.01 -2.53,17.85 -7.5,23.69 -5.05,5.75 -11.76,8.62 -20.29,8.62 -7.49,0 -13.5,-2.17 -18.03,-6.62 -4.62,-4.35 -6.89,-10.19 -6.89,-17.24 0,-0.88 0.09,-2.53 0.26,-5.14 0.18,-2.53 0.18,-4.62 0.18,-6.36 0,-2.7 -0.44,-5.14 -1.48,-7.49 -1.05,-2.27 -2.27,-3.4 -3.83,-3.4 -9.85,0 -21.96,12.45 -36.33,37.37 -14.37,24.91 -25.18,54.18 -32.49,87.81zm257.58 -218.74l-17.6 87.29 62.29 0 -3.31 18.81 -63.33 0 -31.97 157.41c-0.09,1.05 -0.26,2.35 -0.44,3.84 -1.04,5.48 -1.56,9.23 -1.56,11.23 0,7.49 1.91,13.51 5.66,17.95 3.74,4.44 8.62,6.62 14.72,6.62 9.76,0 19.43,-4.88 29.01,-14.55 9.67,-9.76 18.99,-24.22 27.96,-43.47l12.81 7.41c-11.59,26.39 -24.74,45.64 -39.38,57.66 -14.63,12.03 -32.23,18.04 -52.79,18.04 -17.07,0 -30.23,-4.01 -39.46,-12.02 -9.32,-8.02 -13.94,-19.52 -13.94,-34.5 0,-4.62 1.48,-13.94 4.36,-27.88l0.52 -2.61 30.14 -145.13 -43.99 0 3.31 -18.81 44.95 0 18.9 -87.29 53.14 0zm147.92 263.95c0,0.17 -0.09,0.61 -0.26,1.3 -1.83,7.32 -2.79,12.81 -2.79,16.38 0,6.27 1.39,11.15 4.18,14.46 2.88,3.31 6.8,4.97 11.94,4.97 7.31,0 14.81,-4.01 22.47,-11.94 7.67,-7.92 15.94,-20.12 24.74,-36.67l12.98 6.1c-11.67,23.78 -24.39,41.2 -37.89,52.35 -13.51,11.24 -28.84,16.81 -45.82,16.81 -15.34,0 -27.27,-3.74 -35.72,-11.23 -8.54,-7.58 -12.81,-18.12 -12.81,-31.8 0,-3.74 0.44,-8.1 1.4,-13.07 0.96,-4.87 2.35,-10.8 4.27,-17.59l35.71 -122.31c0.87,-3.13 1.57,-6.27 2.18,-9.58 0.61,-3.31 0.87,-6.36 0.87,-9.06 0,-5.49 -1.22,-9.67 -3.66,-12.54 -2.52,-2.88 -5.92,-4.36 -10.36,-4.36 -6.45,0 -13.24,3.75 -20.39,11.15 -7.23,7.41 -15.24,18.82 -24.3,34.32l-13.5 -7.14c11.06,-21.86 23.95,-38.24 38.76,-49.13 14.81,-10.89 31.36,-16.38 49.57,-16.38 12.28,0 22.12,3.31 29.62,10.02 7.49,6.62 11.23,15.51 11.23,26.57 0,4.62 -0.52,9.76 -1.57,15.59 -0.95,5.84 -2.52,12.29 -4.52,19.43l-36.33 123.35zm3.66 -225.27l-25 0 75.78 -76.75c5.41,-5.57 10.72,-9.93 15.77,-12.89 5.14,-2.96 10.02,-4.44 14.55,-4.44 6.27,0 11.5,2.17 15.68,6.62 4.18,4.44 6.27,9.84 6.27,16.29 0,4.79 -1.57,9.06 -4.62,12.8 -3.04,3.75 -8.1,7.58 -15.24,11.41l-83.19 46.96zm347.57 131.01l-29.88 88.42c-2.44,7.14 -4.09,12.72 -4.87,16.73 -0.88,4 -1.31,7.58 -1.31,10.62 0,4.8 1.39,8.54 4.18,11.42 2.87,2.78 6.62,4.18 11.41,4.18 7.32,0 14.98,-4.1 22.91,-12.2 7.93,-8.1 16.2,-20.21 24.92,-36.41l12.98 6.1c-11.42,23.78 -23.87,41.2 -37.38,52.35 -13.58,11.24 -28.83,16.81 -45.9,16.81 -15.68,0 -27.88,-3.74 -36.5,-11.15 -8.71,-7.4 -13.07,-17.77 -13.07,-31.1 0,-4.96 0.44,-10.1 1.39,-15.5 0.96,-5.31 2.36,-10.72 4.27,-15.94l33.98 -98.35c3.13,-8.45 5.48,-16.29 7.05,-23.52 1.66,-7.23 2.44,-12.89 2.44,-17.16 0,-6.45 -1.39,-11.15 -4.18,-14.2 -2.87,-3.05 -7.14,-4.62 -12.89,-4.62 -15.16,0 -33.02,12.81 -53.58,38.33 -20.64,25.61 -34.32,53.66 -41.11,84.24l-23.09 104.27 -55.92 0 40.59 -182.93c1.22,-5.93 2.09,-11.24 2.79,-15.86 0.7,-4.7 1.04,-8.27 1.04,-10.8 0,-6.01 -1.22,-10.72 -3.65,-14.37 -2.53,-3.66 -5.58,-5.49 -9.33,-5.49 -8.53,0 -16.98,3.66 -25.35,10.89 -8.45,7.31 -17.77,19.07 -27.96,35.36l-12.02 -8.36c12.28,-21.08 25.7,-36.85 40.25,-47.3 14.54,-10.45 30.49,-15.68 47.65,-15.68 13.5,0 23.78,3.31 30.92,9.84 7.14,6.54 10.72,16.03 10.72,28.66 0,4.1 -0.53,9.67 -1.66,16.73 -1.13,6.97 -2.96,16.2 -5.49,27.61 20.21,-30.4 38.68,-51.83 55.32,-64.2 16.72,-12.46 34.84,-18.64 54.36,-18.64 14.63,0 26.39,4.27 35.28,12.72 8.79,8.53 13.24,19.95 13.24,34.23 0,6.27 -0.87,13.33 -2.53,21.26 -1.74,7.93 -5.05,18.9 -10.02,33.01zm252.36 74.92l13.16 8.45c-12.46,24.56 -27.88,43.12 -46.43,55.75 -18.56,12.63 -39.9,18.9 -64.03,18.9 -26.57,0 -47.39,-8.1 -62.46,-24.39 -15.07,-16.2 -22.56,-38.76 -22.56,-67.51 0,-23.26 5.14,-46.52 15.33,-69.6 10.19,-23.17 24.04,-43.03 41.64,-59.5 13.76,-12.89 29.01,-22.82 45.82,-29.62 16.72,-6.79 34.41,-10.19 52.96,-10.19 20.91,0 36.94,4.36 48.09,12.98 11.15,8.71 16.72,21.17 16.72,37.29 0,24.65 -13.59,44.16 -40.85,58.45 -27.18,14.28 -64.55,21.43 -112.2,21.43 -2.18,10.89 -3.92,21.08 -5.05,30.49 -1.22,9.4 -1.83,18.11 -1.83,26.13 0,17.33 3.48,30.14 10.36,38.24 6.89,8.19 17.51,12.28 31.97,12.28 14.64,0 28.92,-5.22 42.86,-15.76 13.94,-10.46 26.14,-25.09 36.5,-43.82zm-111.5 -64.81c33.54,-0.52 58.8,-6.27 75.7,-17.25 16.99,-10.89 25.44,-26.92 25.44,-48 0,-8.88 -2.62,-15.85 -7.76,-21.08 -5.22,-5.14 -12.19,-7.75 -20.82,-7.75 -16.55,0 -30.92,7.92 -43.2,23.87 -12.2,15.85 -22.04,39.28 -29.36,70.21zm386.61 -104.62c-21.43,36.76 -53.58,76.48 -96.44,119.25 -42.86,42.69 -68.99,71.43 -78.57,86.24 6.79,-5.48 13.67,-9.58 20.56,-12.19 6.88,-2.7 14.11,-4.01 21.77,-4.01 9.76,0 25.44,2.96 47.22,8.89 21.78,5.92 38.07,8.88 48.96,8.88 8.53,0 14.8,-2.79 18.72,-8.45 4.01,-5.66 6.45,-15.07 7.32,-28.22l10.19 1.04c-0.17,29.88 -3.92,50.96 -11.23,63.25 -7.32,12.28 -19.52,18.38 -36.68,18.38 -11.06,0 -30.92,-4.1 -59.58,-12.29 -28.66,-8.18 -50.27,-12.28 -64.73,-12.28 -7.92,0 -14.63,1.57 -19.86,4.71 -5.31,3.22 -10.1,8.62 -14.54,16.29l-9.5 -8.98c19.95,-38.15 52.53,-80.75 98,-127.79 45.39,-47.04 73.61,-77.44 84.5,-91.29 -10.28,6.88 -19.78,11.84 -28.57,15.07 -8.89,3.22 -17.6,4.88 -26.31,4.88 -8.89,0 -20.47,-1.31 -34.85,-3.92 -14.37,-2.62 -24.13,-3.92 -29.44,-3.92 -6.97,0 -13.07,1.82 -18.38,5.48 -5.23,3.66 -12.2,11.94 -20.91,24.83l-10.45 -6.18c11.59,-22.74 23.08,-39.38 34.41,-50.01 11.41,-10.62 23.69,-15.94 36.76,-15.94 5.75,0 18.9,2.01 39.37,6.01 20.56,4.01 37.81,6.01 51.92,6.01 8.37,0 14.9,-0.87 19.69,-2.52 4.79,-1.66 8.62,-4.27 11.76,-7.76l8.89 6.54z"/>
   </g>
   <path class="fil0" d="M6.79 3747.93c-13.34,-15.77 -11.38,-39.39 4.39,-52.73 15.77,-13.34 39.39,-11.38 52.73,4.39 0.67,0.8 233.07,282.45 728.06,230.99 225.09,-23.4 391.95,-73.17 535.44,-115.95 185.81,-55.39 333.89,-99.55 522.08,-64.67 213.17,39.51 329.03,91.24 396.84,121.5 30.49,13.61 49.24,21.97 55.48,21.33 9.94,-1.03 39.01,-16.19 77.71,-40.54l-2.82 -2.18c-70.2,-54.47 -147.74,-123.27 -213.04,-197 -42.4,-47.87 -61.59,-92.51 -64.13,-132.02 -2.27,-35.38 8.48,-66.12 28.02,-91.4 18.28,-23.65 44.18,-41.93 73.9,-54.16 49.85,-20.51 111.95,-24.39 166.36,-8.07 46.79,14.03 81.07,32.47 105.1,52.42 19.76,-21.76 45.6,-42.88 78.69,-60.36 38.99,-20.6 76.81,-29.13 110.56,-27.44 33.33,1.69 62.66,13.11 85.69,32.67 22.99,19.51 39.28,46.72 46.61,79.97 7.6,34.49 5.46,75.46 -9.26,120.61 -20.89,64.08 -90.16,138.8 -169.6,206.13 -34.38,29.14 -71.22,57.18 -107.11,82.49 42.67,29.1 73.48,46.27 83.12,46.58 3.52,-0.1 7.57,-8.71 24.05,-21.29 71.03,-54.22 212.65,-162.31 483.13,-163.24 139.16,-0.48 268.08,43.78 412.31,93.32 222.67,76.46 483.41,166 866.71,112.42 618.45,-86.45 780.3,-382.36 780.78,-383.21 10.19,-17.96 33.02,-24.25 50.98,-14.06 17.96,10.19 24.25,33.02 14.06,50.98 -0.53,0.93 -180.13,328.79 -835.56,420.41 -401.21,56.09 -670.94,-36.54 -901.29,-115.64 -138.32,-47.51 -261.95,-89.95 -387.99,-89.52 -244.89,0.84 -373.3,98.85 -437.71,148.02 -28.96,22.1 -48.29,36.85 -70.81,36.53l-0.99 -0.02c-21.49,-0.67 -78.12,-29.74 -146.81,-76.97 -63.5,40.43 -115.72,67.2 -133.04,68.99 -25.98,2.69 -51.69,-8.8 -93.56,-27.49 -64.79,-28.92 -175.5,-78.34 -379.86,-116.22 -170.33,-31.57 -310.87,10.34 -487.22,62.91 -146.38,43.64 -316.58,94.4 -549.2,118.59 -534.63,55.59 -792.05,-256.18 -792.8,-257.07zm2438.43 60.42c39.15,-27.56 81.77,-59.92 122.04,-94.05 70.3,-59.58 130.74,-123.07 146.74,-172.15 10.45,-32.05 12.32,-59.56 7.52,-81.35 -3.68,-16.68 -11.37,-29.94 -22.01,-38.97 -10.58,-8.99 -24.57,-14.27 -40.87,-15.09 -20.89,-1.04 -45.49,4.86 -72.18,18.96 -31.61,16.7 -53.82,37.04 -68.74,56.63 6.45,19.95 6.32,39.41 1.13,56.73 -3.95,13.18 -10.86,25.08 -20.05,34.98 -13.01,14 -27.81,19.2 -42.53,17.16 -21.5,-3 -34.89,-18.01 -38.1,-41.78 -1.37,-9.98 -0.59,-22.86 2.85,-37.09 2.15,-8.89 5.5,-18.85 10.21,-29.43l-1.77 -1.68c-16.41,-15.23 -43.06,-30.04 -83.03,-42.02 -38.32,-11.49 -81.82,-8.86 -116.56,5.43 -17.98,7.4 -33.16,17.81 -43.14,30.72 -8.72,11.28 -13.52,25.08 -12.5,41.02 1.53,23.81 15.07,52.95 45.39,87.18 61.8,69.78 135.69,135.28 202.78,187.34l22.82 17.46z"/>
  </g>
 </g>
</svg>
