<?xml version="1.0" encoding="UTF-8"?>
<!DOCTYPE svg PUBLIC "-//W3C//DTD SVG 1.1//EN" "http://www.w3.org/Graphics/SVG/1.1/DTD/svg11.dtd">
<!-- Creator: CorelDRAW -->
<svg xmlns="http://www.w3.org/2000/svg" xml:space="preserve" width="45.493mm" height="5.513mm" version="1.1" style="shape-rendering:geometricPrecision; text-rendering:geometricPrecision; image-rendering:optimizeQuality; fill-rule:evenodd; clip-rule:evenodd"
viewBox="0 0 4549.3 551.3"
 xmlns:xlink="http://www.w3.org/1999/xlink"
 xmlns:xodm="http://www.corel.com/coreldraw/odm/2003">
 <defs>
  <style type="text/css">
   <![CDATA[
    .str0 {stroke:white;stroke-width:7.62;stroke-miterlimit:22.9256}
    .fil0 {fill:white;fill-rule:nonzero}
   ]]>
  </style>
 </defs>
 <g id="Capa_x0020_1">
  <metadata id="CorelCorpID_0Corel-Layer"/>
  <g id="_2243064454496">
   <path class="fil0 str0" d="M335.34 480.32c-0.77,3.77 -1.94,7.92 -2.33,12.07 -1.04,9.87 -3.77,18.69 -7.92,26.61 -4.15,6.1 -9.08,11.42 -15.18,16.74 -6.1,5.32 -12.2,8.44 -18.3,9.21 -9.48,0.65 -18.56,-1.16 -26.61,-6.48 -8.05,-4.94 -13.37,-13.37 -15.96,-25.57 -2.99,-12.85 -12.98,-47.89 -29.33,-104.09 -16.75,-56.72 -33.75,-114.86 -51.66,-174.56 -17.52,-59.7 -30.11,-101.1 -36.86,-124.33 -1.17,-4.16 -2.33,-6.88 -2.72,-8.31 -0.78,0.65 -1.17,12.85 -1.82,36.08 -0.39,23.23 -0.78,52.04 -1.17,86.31 0,34.65 0,69.56 0,104.21 0.39,34.92 1.17,65.03 1.82,89.3 0.39,8.43 0.39,16.74 0.39,25.04 0,10 0,19.86 0.39,29.73 0,17.91 9.21,29.98 26.99,36.08 4.55,1.16 8.44,3.5 12.2,6.48 3.77,3.12 5.71,6.88 6.1,11.82 -0.39,4.93 -2.33,9.47 -6.49,13.23 -3.76,3.9 -7.91,6.1 -12.85,6.49 -24.39,1.95 -48.66,3.12 -73.06,3.51 -3.77,0 -7.66,0.39 -11.81,0.78 -9.09,0.26 -18.56,0.64 -28.17,0 -9.47,-0.78 -17.39,-3.9 -23.88,-9.22 -5.71,-5.71 -6.88,-11.42 -3.5,-16.74 3.5,-5.71 8.04,-10.25 13.75,-14.02 2.6,-1.95 5.33,-3.76 8.31,-5.32 11.03,-6.1 19.86,-14.79 26.35,-25.83 6.36,-14.92 9.08,-30.5 7.91,-46.46 -1.55,-87.47 -2.33,-174.43 -2.33,-261.91 0,-24.78 0,-49.83 0,-74.88 0.78,-18.69 -1.43,-30.89 -6.36,-36.99 -4.93,-6.36 -16.35,-11.68 -35.04,-17 -8.31,-2.73 -15.97,-7.27 -22.46,-13.37 -1.42,-1.95 -2.59,-4.93 -2.98,-8.31 -0.78,-3.5 -0.39,-6.49 0.78,-9.21 1.17,-2.21 2.98,-4.54 5.71,-6.88 2.98,-2.21 5.71,-3.37 8.3,-3.37 25.05,0.39 50.62,0.77 76.06,1.94 20.5,0.39 41.4,1.17 62.42,1.43 12.85,0.39 23.11,4.67 30.37,11.81 7.27,7.66 12.59,16.35 15.58,27 11.81,36.6 25.83,79.55 42.57,129.26 16.35,50.23 31.15,94.74 44.51,133.55 13.24,39.07 21.29,60.48 23.63,64.24 -0.39,-0.39 -0.39,-2.33 0.25,-5.71 1.17,-3.11 2.34,-6.88 3.51,-10.64 1.56,-4.15 2.59,-7.66 3.76,-11.03 1.17,-2.73 1.56,-4.54 1.95,-5.32 6.88,-25.05 13.63,-50.62 20.51,-75.67 11.81,-45.68 24.01,-91.24 35.69,-136.92 3.5,-12.85 6.88,-25.44 9.99,-38.42 1.43,-5.32 2.6,-10.64 4.15,-15.96 3.77,-19.34 9.87,-37.64 17.78,-55.42 1.95,-3.11 5.07,-5.71 9.22,-7.65 4.54,-1.95 8.69,-3.12 12.46,-3.12 45.68,-1.04 91.37,-1.04 136.53,0.39 3.9,0 8.05,1.56 12.59,3.89 4.54,2.6 7.66,5.71 9.09,9.48 1.55,4.93 0,9.86 -3.77,14.4 -4.15,4.55 -8.69,8.05 -13.37,9.61 -22.32,5.97 -33.35,20.5 -32.96,42.57 -0.39,51.26 -0.78,102.66 -1.95,154.31 0,14.8 -0.39,29.72 -0.78,44.13 -1.55,37.25 -1.94,74.49 -0.78,111.35 0.78,26.61 3.51,53.22 8.44,79.56 1.43,9.09 4.54,17.39 8.7,24.66 4.15,7.66 11.42,12.2 21.28,14.02 4.54,1.17 8.31,3.5 11.03,6.88 2.99,3.76 4.16,8.04 3.38,12.59l0 0.77c-0.65,4.16 -2.6,7.92 -5.71,10.65 -3.38,2.98 -7.14,4.15 -11.68,4.54 -7.66,-0.39 -15.71,-0.39 -23.24,-0.39 -46.07,-0.39 -92.4,-1.17 -138.48,-2.73 -4.54,-0.26 -8.3,-1.81 -10.64,-5.32 -2.59,-2.98 -3.76,-6.75 -3.76,-11.29 0.39,-5.71 2.33,-9.99 5.32,-12.59 3.5,-2.72 7.66,-4.54 12.59,-6.1 11.81,-4.15 19.73,-11.42 23.23,-21.28 3.76,-9.87 5.32,-20.9 4.93,-32.71 0.39,-34.65 0.78,-76.83 1.43,-127.06 0.78,-50.09 1.56,-96.17 2.33,-137.18 0.78,-41.14 1.56,-65.02 1.95,-72.29 -1.95,1.17 -8.04,17.91 -18.3,49.45 -10.25,31.93 -22.06,69.95 -35.04,113.69 -13.24,44.13 -25.44,84.75 -36.08,122.39 -11.03,37.38 -17.91,62.42 -20.9,75.4zm527.64 51.66c-1.56,8.69 -6.49,14.01 -14.02,15.57 -4.15,1.17 -8.43,1.56 -12.2,1.95 -3.76,0.39 -8.04,0.39 -12.2,0l-4.54 0c-6.49,-0.39 -12.98,-0.39 -19.34,-0.39 -6.1,0 -12.59,0 -19.46,0 -9.09,0.39 -18.56,0.39 -27.78,0.39 -9.47,-0.39 -18.56,-0.39 -28.03,-0.78 -2.34,0 -4.93,-1.56 -7.66,-4.15 -2.59,-2.34 -4.15,-4.68 -4.54,-7.27 -0.39,-5.32 0.78,-9.48 3.37,-12.2 3.12,-2.6 6.1,-4.54 9.22,-6.49 2.59,-1.04 5.97,-3.38 9.47,-6.36 4.16,-4.28 6.88,-9.6 7.92,-15.32 0.39,-2.59 1.17,-5.71 1.56,-8.69 0.39,-2.6 0.39,-5.71 0,-8.7 -0.39,-33.48 -0.39,-66.97 -0.39,-100.45 0,-33.1 0,-66.45 0,-100.32l0 -24.4c0.39,-9.48 -0.78,-17.39 -3.77,-23.88 -3.11,-6.88 -9.47,-11.81 -19.46,-14.93 -2.6,-0.65 -4.55,-2.6 -5.97,-5.58 -1.17,-3.11 -1.56,-5.71 -1.17,-8.05 1.81,-8.3 6.75,-13.36 14.79,-14.79 7.27,-1.56 15.19,-2.34 24.01,-1.56 1.43,0 2.99,0.39 4.16,0.39 1.42,0 2.59,0 3.76,0 14.41,-0.78 28.55,-0.78 42.57,0 6.88,-0.39 13.37,0.39 19.47,2.6 5.71,2.33 8.69,7.65 9.08,16.35 0.39,17.13 0.78,34.26 0.78,51.39 0,17.13 0,34.66 0,51.66l0 32.31 0 9.22 -0.39 18.56 0 9.21c0,15.58 0,31.15 0,46.34 0,15.18 0,30.76 0.39,46.33l0 1.17c-0.78,11.42 1.17,22.45 5.71,32.7 2.6,3.77 6.75,7.27 12.07,10.65 3.9,2.72 6.88,4.93 9.22,7.26 2.59,2.6 3.76,6.1 3.37,10.26zm-125.5 -445.3c0.78,-14.4 5.71,-26.21 14.92,-35.3 8.7,-9.08 20.51,-14.14 34.92,-14.53 12.97,-0.26 25.17,5.06 36.47,15.7 10.38,10.25 14.92,22.06 14.53,34.52 -0.78,13.76 -5.32,24.79 -14.92,33.1 -9.09,8.43 -20.12,12.2 -33.75,12.2 -35.43,-1.17 -52.82,-16.35 -52.17,-45.69zm482.21 311.49c6.36,17.39 7.92,36.86 4.93,58.14 -3.11,23.23 -10.64,42.18 -22.84,57.37 -12.2,15.31 -29.72,25.95 -52.43,31.53 -11.04,3.12 -22.46,4.68 -33.49,4.68 -20.11,0 -39.97,-5.32 -59.31,-15.58 -5.71,-3.89 -10.64,-5.32 -14.8,-5.32 -4.28,0 -8.43,2.6 -12.97,7.92 -1.17,1.17 -2.73,2.33 -4.16,3.37 -1.55,1.17 -3.5,2.73 -5.32,3.9 -4.28,1.81 -7.66,2.2 -11.03,1.42 -2.73,-1.03 -5.32,-3.76 -8.05,-7.13 -1.81,-3.9 -2.98,-7.66 -3.76,-11.43 -0.78,-15.57 -1.56,-30.75 -1.95,-46.07 -0.39,-15.18 0,-30.37 0.39,-45.55 0.78,-3.51 1.95,-6.88 4.16,-10.26 2.33,-3.11 4.93,-5.32 8.04,-6.88 5.32,-1.55 10.26,-0.38 14.8,3.38 2.33,1.95 4.15,3.89 5.71,5.71 1.95,1.95 3.37,3.89 4.54,6.1 1.95,3.5 3.89,7.27 5.71,10.64 1.56,3.77 3.12,7.66 4.15,11.03 3.9,11.42 9.22,21.29 16.36,30.5 3.11,3.38 7.27,7.14 11.81,10.65 4.54,3.76 9.47,7.13 14.79,10.25 5.06,2.59 10.78,5.32 16.1,7.14 5.32,1.94 10.64,2.72 15.96,2.72 7.53,0 14.8,-1.94 20.9,-6.49 6.48,-4.54 11.42,-10.25 14.79,-16.74 3.76,-8.31 5.32,-17.91 4.15,-28.94 -1.55,-10.25 -6.1,-18.95 -13.62,-25.44 -5.32,-4.54 -11.42,-8.69 -17.13,-12.85 -6.1,-3.89 -12.59,-7.27 -18.69,-11.03 -6.1,-3.5 -12.07,-7.27 -18.17,-10.64 -6.1,-3.51 -12.2,-7.27 -18.69,-10.38 -18.56,-8.7 -34.92,-19.34 -49.06,-31.54 -18.95,-18.95 -28.81,-41.4 -29.98,-66.84 -0.78,-25.96 6.88,-50.23 23.23,-73.07 9.86,-13.24 22.71,-23.23 38.29,-29.2 15.7,-6.49 31.27,-9.61 48.02,-9.61 10.25,0 20.5,1.56 30.37,4.29 9.86,2.59 19.33,5.97 28.55,10.64 1.04,0.65 2.21,1.04 3.37,1.43 1.17,0.78 2.34,1.16 3.38,1.55l0.78 -0.77 2.33 -1.82 0.78 -0.78c2.21,-2.34 4.93,-4.93 8.31,-7.66 6.1,-3.76 11.42,-4.93 17.13,-2.98 4.93,2.2 7.66,6.36 8.31,13.24 0,14.79 0,29.33 0,44.12 -0.39,14.8 -1.04,29.33 -1.82,43.74 -0.39,5.71 -2.73,9.08 -6.49,10.64 -3.76,1.56 -8.05,1.95 -13.37,0.78 -4.15,-1.17 -7.92,-3.5 -10.64,-7.27 -1.04,-1.81 -2.21,-4.15 -3.38,-6.49 -1.16,-2.59 -1.94,-4.93 -2.59,-7.52 -1.17,-4.55 -2.73,-9.22 -5.32,-13.76 -0.78,-0.78 -1.56,-1.43 -1.56,-1.82 -8.05,-14.14 -17.13,-26.21 -27.77,-36.21 -8.44,-6.36 -17.91,-9.47 -28.17,-7.92 -11.03,1.17 -19.34,5.33 -26.21,12.46 -6.49,6.88 -9.87,15.71 -10.65,26.74 -0.39,10.25 2.99,18.95 10.26,27 13.75,12.07 28.55,22.71 44.51,31.92 0.39,0.39 0.78,0.39 0.78,0.78 0.39,0 0.78,0 1.04,0.26l3.5 1.95c0.39,0.39 0.39,0.39 0.78,0.78 0.39,0 0.39,0 0.78,0.39 3.77,2.2 7.53,4.54 11.68,6.87 3.9,2.21 8.05,4.55 12.2,6.36 14.41,6.88 27.78,15.32 40.37,25.18 12.07,9.87 21.28,22.84 27.38,38.42zm509.08 -69.31c-4.15,9.61 -8.7,19.47 -13.63,29.72 -17.91,40.37 -35.43,77.23 -52.56,110.71 -6.36,13.63 -5.58,26.61 2.34,38.68 4.15,4.67 8.69,7.65 14.79,9.21 3.89,1.04 7.27,2.99 10.64,4.93 4.29,3.77 6.1,7.92 5.32,12.46 -0.39,5.06 -2.98,8.83 -7.52,11.42 -4.55,2.34 -9.61,3.9 -15.19,3.9 -5.71,0 -11.42,0 -17.13,-0.78 -4.28,-0.39 -8.44,-0.39 -12.59,-0.39 -18.3,0 -36.47,0.39 -55.16,0.39 -1.43,0 -2.98,0 -4.54,0 -2.99,0.39 -6.49,0.39 -9.47,0.39 -6.49,0 -12.98,0 -19.47,0 -3.77,0 -6.75,-1.17 -9.87,-3.12 -2.98,-2.2 -5.32,-4.93 -6.48,-7.91 -2.21,-6.1 -1.43,-11.43 2.33,-15.19 3.38,-3.89 7.66,-6.88 13.37,-8.82 11.68,-4.94 21.67,-12.46 29.98,-23.24 8.05,-10.64 15.57,-21.67 21.67,-32.96 1.56,-2.34 2.73,-4.67 4.16,-6.88 9.86,-16.74 19.07,-34.26 27.77,-51.78 4.54,-9.48 9.47,-18.95 14.41,-28.43 1.16,-1.55 1.94,-3.11 2.72,-4.93 6.1,-10.64 11.42,-21.28 16.74,-31.93 6.88,-13.75 14.02,-27.38 21.68,-40.75 7.92,-12.59 7.92,-25.44 -0.39,-38.8 -20.51,-36.86 -40.36,-74.11 -59.7,-111.36 -3.12,-6.1 -6.1,-12.2 -9.09,-18.69 -6.88,-14.79 -14.92,-29.2 -23.62,-42.96 -9.08,-14.01 -20.5,-25.05 -34.65,-33.48 -0.65,-0.39 -1.43,-0.65 -2.21,-1.04 -6.49,-3.5 -12.59,-7.66 -18.69,-12.98 -6.1,-4.93 -8.3,-11.42 -7.13,-19.34 1.81,-6.1 5.97,-9.6 12.46,-10.64 6.87,-1.17 13.75,-1.56 20.89,-1.17 4.28,0 8.05,0 11.42,-0.39 11.42,-0.78 22.84,-1.16 34.27,-0.39 7.26,0 14.4,0 21.67,0 24.27,-0.77 49.06,-1.16 73.33,-1.16 7.66,-0.39 14.92,0.39 21.02,2.72 5.97,1.82 8.31,7.14 6.36,15.96 -1.04,4.16 -3.37,7.53 -6.1,10.65 -2.59,2.59 -5.71,5.32 -8.69,7.52 -4.55,3.51 -8.31,7.27 -10.65,11.43 -2.59,4.54 -2.59,10.64 0.39,18.68 7.92,20.12 17.14,39.46 27.78,58.15 3.76,6.49 7.53,13.37 11.03,20.12 2.21,4.54 4.54,9.47 7.14,14.92 5.71,14.41 13.37,27.26 22.45,38.29 0.39,-1.04 1.17,-2.21 1.95,-3.77 4.93,-9.86 12.2,-23.62 20.89,-42.18 9.09,-18.3 17.52,-36.47 25.05,-54.77 7.66,-18.3 12.2,-31.92 12.98,-41.01 0.39,-6.49 -1.17,-11.03 -4.15,-14.53 -3.51,-2.99 -7.27,-6.1 -11.81,-8.31 -2.34,-1.56 -4.94,-3.12 -7.27,-4.54 -3.77,-2.73 -6.75,-6.1 -8.31,-9.87 -1.56,-4.28 -0.78,-8.04 1.95,-12.59 1.82,-2.72 4.15,-4.15 7.14,-4.93 3.11,-0.39 6.1,-0.78 9.47,-0.78 1.56,0 3.12,0 4.28,0 22.46,-0.77 45.17,-0.77 67.62,-0.77 8.05,0.38 15.97,0.38 24.01,0.38 3.38,0 6.75,0 10.64,0.39 1.17,0 2.21,0 3.38,-0.39 3.37,0 6.88,0 10.25,0.39 3.9,0.39 6.88,1.56 9.48,3.38 3.89,3.5 5.06,8.04 3.11,12.98 -1.95,5.32 -4.93,9.08 -9.08,11.81 -4.94,2.59 -10.39,4.93 -15.97,6.36 -5.06,1.55 -9.6,3.5 -14.14,5.71 -10.26,5.71 -18.95,14.14 -26.22,25.18 -7.27,10.64 -13.37,21.67 -18.95,33.09 -2.34,4.93 -5.06,9.47 -7.27,13.63 -16.74,31.15 -31.92,62.81 -46.07,95.13 -0.78,1.43 -1.04,2.99 -1.82,4.15 -0.39,1.17 -0.78,2.21 -1.55,2.99 -2.73,6.1 -5.33,12.2 -8.31,18.3 -2.34,5.32 -3.51,11.81 -2.73,19.34 0.78,7.65 2.73,14.14 5.71,19.85 11.81,22.07 23.62,43.74 35.31,65.67 16.35,31.28 33.09,62.43 50.61,93.19 2.34,3.89 4.15,7.66 6.49,11.42 4.54,8.83 10.25,17.91 16.35,27.78 0.78,1.55 1.95,3.37 2.99,4.93 5.71,10.64 12.98,19.72 22.06,27.38 4.16,2.73 9.22,4.93 14.8,6.49 6.1,1.56 11.03,3.76 15.7,6.88 4.54,2.98 6.75,7.92 6.36,14.41 0,4.15 -1.43,7.91 -3.76,11.81 -2.21,3.37 -6.1,5.32 -10.26,5.32 -1.94,0 -12.2,0 -30.37,0 -18.3,0 -39.19,0 -63.2,0 -23.88,0 -45.17,0 -63.47,0 -18.68,0 -27.77,0 -28.16,0 -7.53,-0.39 -12.85,-4.29 -16.35,-10.64 -2.99,-6.49 -2.6,-13.37 1.95,-19.86 2.2,-2.21 4.54,-4.16 7.26,-5.32 2.6,-1.04 5.71,-2.21 8.31,-2.99 3.76,-0.78 7.27,-2.33 10.25,-3.76 3.12,-1.56 5.71,-4.67 7.27,-8.44 2.21,-6.1 2.21,-12.59 -0.39,-19.73 -2.72,-6.87 -5.71,-13.36 -9.47,-19.07 -0.39,-1.04 -1.17,-2.21 -1.56,-2.99 -5.71,-10.64 -11.03,-20.5 -15.96,-30.11 -4.16,-7.92 -8.44,-15.96 -12.98,-24.27 -8.7,-16.35 -17.52,-32.7 -25.83,-49.45 -0.39,-1.16 -1.56,-2.59 -2.6,-4.54 -1.55,-2.34 -2.72,-4.93 -4.28,-7.66 -1.43,-2.59 -2.98,-4.93 -3.76,-7.13 -1.17,-2.34 -1.56,-3.9 -1.17,-4.68zm614.33 86.05c1.56,-6.1 7.66,-27.77 17.91,-64.63 10.26,-36.99 21.68,-78.39 34.27,-123.69 12.45,-45.55 22.71,-83.58 31.53,-115.12 0.39,-0.78 0.39,-1.55 0.78,-2.33 4.15,-12.2 5.71,-24.66 4.54,-37.64 -3.11,-13.24 -11.03,-22.45 -24.01,-27.39 -0.39,0 -0.39,0 -0.77,0 -2.21,-1.16 -4.55,-1.81 -6.36,-2.98 -1.56,-1.17 -3.12,-2.73 -4.68,-5.32 -2.2,-5.32 -2.98,-10.64 -1.81,-16.35 0.78,-3.9 2.2,-6.88 4.15,-9.22 5.71,-5.97 12.59,-9.08 20.12,-9.08l116.41 0c7.14,0 12.85,2.72 17.14,8.43 4.15,5.97 5.32,12.07 2.98,19.34 -1.95,4.93 -5.32,8.31 -10.64,9.86 -21.68,10.26 -37.25,24.79 -46.72,44.52 -9.22,19.73 -15.97,40.23 -20.9,62.3 -1.17,4.28 -2.34,8.43 -3.5,12.59 -0.78,2.72 -1.56,5.32 -2.21,8.04 -12.98,44.39 -25.96,89.29 -39.59,133.81 -20.5,67.62 -40.36,135.76 -59.31,204.15 -2.33,11.03 -6.88,21.29 -13.36,30.37 -9.87,10.64 -22.72,15.71 -38.03,14.93 -15.19,-1.17 -27.65,-6.88 -37.64,-17.52 -6.36,-8.7 -11.03,-18.69 -13.63,-29.33 -0.78,-2.21 -1.16,-4.55 -1.94,-6.75 -2.99,-8.05 -5.71,-16.36 -8.7,-24.79 -2.34,-6.1 -4.54,-12.46 -6.49,-18.56 -10.25,-29.72 -19.73,-59.7 -28.55,-89.81 -11.42,-40.24 -22.06,-80.99 -32.71,-121.61 -12.85,-49.84 -26.6,-99.68 -40.62,-149.12 -0.78,-2.21 -1.17,-4.16 -1.95,-6.49 -1.81,-9.87 -5.71,-18.95 -11.03,-27.26 -5.32,-8.43 -15.57,-12.2 -29.98,-12.2 -4.15,0 -8.05,-2.72 -11.81,-8.05 -3.37,-5.32 -4.93,-11.42 -4.15,-17.78 1.17,-4.93 3.76,-9.21 7.91,-12.97 4.55,-3.38 9.87,-5.33 16.36,-6.1 23.23,0 46.46,0 69.56,0 22.84,0 46.08,0 69.31,0 4.93,0 9.86,1.16 14.79,3.11 5.32,1.82 9.48,4.54 12.59,8.31 2.99,4.15 3.77,8.3 1.82,12.98 -1.56,4.15 -4.15,8.3 -7.92,11.68 -3.89,3.89 -7.27,6.49 -10.64,8.43 -6.1,3.77 -10.25,9.09 -12.59,16.35 -2.72,7.27 -2.98,14.41 -1.56,22.07 1.95,10.25 7.66,32.7 16.75,66.84 8.82,33.87 18.68,71.51 30.11,111.87 11.03,40.63 20.89,75.67 29.2,105.26 8.82,29.72 14.14,45.29 15.57,46.85zm777.61 -30.11c-4.29,0 -8.05,0 -12.2,0 -7.66,0.78 -15.19,1.17 -22.46,1.56 -16.35,1.56 -32.31,2.2 -48.67,2.98 -9.86,0.39 -18.56,2.73 -26.6,7.27 -8.05,4.15 -14.41,11.03 -18.69,19.73 -4.93,12.59 -8.7,25.18 -11.03,38.8 -1.43,7.27 -2.99,14.41 -4.93,21.29 -1.82,8.82 0,15.57 6.1,20.5 5.71,5.07 12.58,8.83 19.85,11.04 6.36,3.11 10.26,7.65 11.42,13.36 1.43,6.1 0.65,11.43 -2.72,16.75 -2.99,4.93 -8.05,7.91 -15.19,8.69 -25.43,1.17 -51,1.17 -76.83,0 -2.34,0 -5.32,0 -8.05,0 -6.36,0.39 -13.23,0 -19.72,-1.17 -6.49,-0.65 -12.2,-3.37 -16.75,-7.91 -6.48,-6.88 -7.91,-14.15 -4.93,-22.07 3.51,-7.65 9.48,-12.2 18.69,-14.01 12.46,-1.95 21.29,-6.88 26.22,-14.93 4.54,-7.92 7.91,-16.35 9.86,-25.83 0.78,-1.94 1.17,-4.15 1.95,-6.1 20.89,-74.1 41.4,-148.6 61.52,-223.49 5.32,-19.85 10.64,-39.58 15.96,-59.31 2.34,-7.27 4.28,-14.92 6.49,-22.06 3.76,-14.54 7.66,-28.55 11.42,-42.96 1.17,-3.89 2.34,-8.44 3.37,-13.37 2.73,-13.37 6.49,-26.99 11.43,-41.4 4.93,-14.92 12.2,-26.99 21.67,-37.25 9.6,-9.99 22.84,-14.92 39.58,-14.92 12.98,1.56 24.27,7.66 34.27,18.69 9.86,11.03 17.78,22.84 23.49,34.91 6.49,14.15 11.81,28.94 15.57,43.74 1.95,8.43 4.68,16.35 7.27,24.4 6.1,18.17 11.81,36.86 16.74,55.54 2.34,7.53 4.55,15.58 6.88,23.11 5.71,20.24 11.81,40.75 17.39,60.86 9.61,32.71 19.08,65.42 28.95,97.73 1.16,4.55 2.72,9.09 3.76,13.63 7.27,27 16.35,52.95 27.38,78.39 6.88,15.57 15.58,29.59 25.96,42.96 1.82,2.34 4.54,4.93 7.53,8.05 4.93,4.93 9.47,9.86 13.76,15.57 3.76,5.32 5.32,10.64 4.15,15.96 -1.95,4.55 -5.71,8.31 -11.42,11.42 -5.71,2.6 -11.03,4.16 -15.58,4.55 -31.92,0 -63.85,-0.39 -95.78,-1.56 -11.03,-0.39 -22.45,-0.78 -33.48,-1.17 -2.34,0 -4.93,0 -7.27,0 -4.93,0 -9.86,0 -14.8,-0.39 -4.93,-0.39 -9.47,-1.81 -13.36,-4.54 -6.75,-5.71 -8.31,-12.59 -5.33,-20.12 3.51,-7.65 8.83,-13.36 15.97,-16.74 8.04,-2.98 15.31,-7.27 21.67,-12.98 6.88,-5.71 10.26,-12.85 9.61,-22.06 -1.17,-8.31 -4.29,-16.61 -8.83,-25.05 -1.56,-2.59 -2.59,-4.93 -3.37,-7.27 -1.95,-4.54 -3.77,-9.08 -5.32,-14.01 -2.73,-9.48 -6.49,-17.91 -11.43,-25.44 -8.43,-9.22 -18.68,-13.37 -31.14,-13.37zm16.35 -56.59c-10.25,-37.63 -20.64,-76.44 -30.5,-117.58 -9.47,-38.03 -18.56,-72.55 -27,-103.7 -1.81,1.43 -6.49,15.19 -13.62,41.01 -7.27,25.83 -15.58,55.94 -24.79,89.68 -10.26,37.25 -18.95,69.31 -26.61,95.92 24.4,-1.17 47.24,-1.95 68.14,-3.12 17.13,-0.78 35.3,-1.56 54.38,-2.21z"/>
   <path class="fil0 str0" d="M3766.58 518.22c2.6,1.17 4.93,3.89 6.49,7.66 1.17,3.37 1.43,6.88 0.78,10.25 -0.78,4.54 -3.12,7.66 -6.49,9.08 -3.12,1.56 -6.88,2.73 -11.03,3.12 -10.65,0.78 -21.29,1.17 -31.93,1.17 -10.64,0.39 -21.29,0.39 -31.93,0.39 -5.32,0 -10.64,0 -15.96,0 -5.32,0 -10.64,0.39 -15.96,0.39 -3.9,0 -7.27,0 -11.04,0 -3.5,0 -6.87,0 -10.64,-0.78l-0.39 0c-1.94,0 -4.28,-0.39 -6.1,-1.17 -1.94,-0.78 -3.89,-1.95 -4.93,-4.15 -1.95,-3.51 -1.95,-7.66 -0.39,-12.59 1.82,-6.49 5.71,-12.59 11.03,-18.69 1.82,-2.21 3.38,-4.16 4.93,-5.97 1.17,-2.34 2.6,-4.28 3.77,-6.49 6.1,-12.98 8.43,-27 7.27,-41.79l0 -65.41c0,-11.04 0.39,-22.07 0.39,-32.71 0,-11.03 0,-22.06 0,-33.09 0,-11.43 -0.78,-22.85 -1.95,-34.66 -0.78,-11.42 -4.15,-22.45 -9.48,-33.09 -2.72,-6.49 -6.87,-10.64 -12.58,-13.24 -4.16,-1.95 -8.31,-1.95 -13.24,-0.39 -5.32,1.82 -10.39,4.54 -14.93,8.7 -4.54,3.89 -8.3,8.43 -11.81,13.75 -2.98,5.32 -5.97,10.65 -7.92,16.36 -2.33,5.32 -3.76,11.03 -4.93,16.35 -1.55,9.08 -2.72,18.17 -3.11,27.64 -0.26,9.22 -0.26,18.69 0.39,28.17 0.39,7.65 0.39,15.18 0.78,22.84 0,7.66 0,15.18 0.39,22.84 0.38,11.42 0.38,22.84 0.77,33.87 0.39,11.3 0.78,22.72 1.17,34.14 0,10.25 1.17,19.47 2.99,26.99 2.33,8.05 6.88,15.19 14.14,22.85 1.82,1.16 2.99,2.72 4.16,3.76 0.78,1.17 1.94,2.72 2.98,4.28 1.56,5.32 1.56,9.48 -0.39,12.46 -1.81,3.12 -4.54,4.93 -8.3,6.88 -3.77,1.56 -7.27,2.34 -10.26,2.34 -4.15,0 -8.82,0 -13.36,0 -4.94,0 -9.87,0 -14.8,-0.39 -3.76,0 -7.27,0 -10.25,0 -3.38,-0.39 -6.88,-0.39 -10.26,-0.39 -10.64,0 -21.28,0 -31.92,-0.39 -10.26,-0.39 -21.29,-0.78 -31.93,-1.56 -5.32,-0.39 -9.99,-2.6 -13.37,-6.49 -3.37,-3.76 -3.76,-8.3 -1.56,-14.02 2.73,-4.54 6.88,-8.43 12.2,-11.03 4.55,-2.72 8.44,-6.1 11.43,-9.86 4.93,-8.83 7.26,-18.69 6.87,-29.72 0.39,-69.57 0.39,-139.13 0,-209.09 0,-7.65 -1.55,-14.4 -4.54,-20.89 -3.11,-6.88 -8.05,-11.81 -15.7,-15.19 -4.16,-2.33 -7.53,-5.71 -10.26,-10.38 -2.2,-5.32 -3.37,-10.25 -3.37,-15.18 0.39,-2.21 1.17,-4.16 1.56,-5.32 5.32,-10.26 14.01,-15.58 25.44,-15.19 2.72,0 5.32,0 7.65,0 2.21,0 4.93,0 7.53,-0.39l7.27 0 14.4 -0.39 7.27 0 0.78 0 1.82 -0.39 0.78 0c11.42,-1.17 22.06,0.39 32.7,4.29 6.49,3.37 11.03,7.91 14.15,14.4 0.39,0.78 0.39,1.56 0.65,2.6 0,1.17 0.39,2.72 0.78,4.67 0.39,1.82 0.78,3.76 0.78,5.32 0,1.43 0,3.38 0.38,5.32 0,3.38 -0.38,5.58 -1.55,6.75 3.11,-2.21 6.1,-4.54 9.21,-6.75 2.6,-2.33 5.71,-5.06 8.31,-7.27 12.2,-10.25 24.79,-18.3 37.64,-24.01 9.86,-3.37 19.85,-4.93 29.72,-4.93 10.64,0 20.89,1.95 30.37,6.1 9.08,3.77 17.52,9.09 24.66,15.97 6.87,6.87 12.97,15.18 17.52,24.4 4.54,9.47 7.65,19.33 9.21,29.59 1.43,16.35 2.6,32.7 2.99,49.05 0.39,15.97 0.77,32.32 0.77,48.67l0.39 14.02c0.39,12.98 0.39,26.35 0.39,39.2 0,13.36 0,26.21 0,39.58l0 22.84c-0.39,8.7 0.78,17.13 3.38,24.66 3.11,8.05 8.69,14.41 17.13,19.73zm-120.18 -402.2c12.2,0 23.62,-3.77 34.65,-11.43l0 41.8c-3.89,2.72 -8.82,4.54 -14.92,6.48 -5.58,1.95 -12.46,2.73 -20.12,2.34 -7.14,-1.17 -14.02,-3.11 -20.9,-6.49 -6.49,-3.11 -13.23,-7.66 -19.33,-12.98 -3.12,-2.2 -6.1,-4.54 -8.83,-6.49 -2.98,-1.81 -6.1,-3.76 -9.08,-5.71 -6.1,-2.59 -12.59,-3.76 -19.34,-2.59 -6.88,0.39 -12.98,2.98 -19.08,7.91 -5.71,5.33 -11.42,11.04 -16.35,17.53l0 -41.8c4.54,-6.1 9.86,-11.42 15.96,-16.35 6.1,-4.93 11.81,-8.05 17.91,-8.3 7.53,-0.78 14.41,0.25 20.12,3.76 6.1,3.37 12.2,7.53 18.3,12.59 6.49,5.32 13.23,9.86 20.11,13.24 6.88,3.76 13.63,5.71 20.9,6.49zm512.84 155.09c5.32,13.76 9.87,27.38 12.59,41.79 2.99,14.15 4.54,28.94 4.54,44.13 0,21.67 -2.59,43.34 -8.3,65.8 -5.32,22.45 -13.76,42.96 -25.57,61.65 -11.42,18.55 -25.83,33.74 -43.35,45.94 -17.39,12.2 -38.8,18.69 -63.07,19.47 -23.62,0.78 -45.69,-4.68 -66.97,-16.36 -12.07,-8.04 -22.33,-17.13 -31.15,-28.16 -8.7,-10.64 -15.96,-22.06 -21.29,-34.65 -5.71,-12.07 -10.25,-25.05 -13.23,-39.07 -3.12,-13.75 -5.06,-27.38 -5.71,-41.53 -1.56,-29.59 0.65,-56.58 5.97,-80.98 5.32,-22.85 13.75,-43.74 25.95,-62.3 11.68,-19.08 28.04,-34.65 48.28,-46.85 20.9,-11.42 42.18,-17.14 64.64,-16.36 13.62,0.39 26.21,2.73 38.02,7.27 11.81,4.54 22.85,11.03 32.71,19.08 9.86,7.53 18.95,17 26.6,27.25 7.53,10.65 14.02,22.07 19.34,33.88zm-86.69 196.62c8.04,-49.83 10.25,-99.67 6.49,-149.51 -0.39,-3.37 -0.78,-7.92 -1.56,-14.02 -0.78,-6.1 -1.43,-12.97 -2.6,-19.72 -1.55,-7.27 -3.11,-14.54 -4.93,-22.07 -1.95,-7.26 -4.15,-14.14 -7.27,-19.85 -2.59,-5.97 -5.71,-11.04 -9.47,-14.8 -3.77,-3.76 -8.05,-5.71 -12.98,-5.71 -4.93,0 -10.25,1.95 -16.35,5.71 -12.85,10.25 -21.29,24.01 -24.27,41.14 -3.51,17.78 -5.32,34.53 -5.71,51.27 -0.39,1.94 -0.39,3.37 -0.39,5.32 0,1.56 -0.39,3.11 -0.39,4.54 -2.34,47.89 1.17,94.74 10.64,140.69 0.78,11.03 5.32,21.28 12.98,30.5 9.47,8.3 17.78,11.03 25.44,8.3 4.54,-1.55 8.3,-3.37 11.42,-6.49 3.37,-2.98 6.49,-6.48 8.69,-10.25 2.73,-3.76 4.94,-7.92 6.49,-12.2 1.56,-4.54 2.99,-8.69 3.77,-12.85zm468.84 -69.56c6.36,17.39 7.92,36.86 4.93,58.14 -3.11,23.23 -10.64,42.18 -22.84,57.37 -12.2,15.31 -29.72,25.95 -52.43,31.53 -11.04,3.12 -22.46,4.68 -33.49,4.68 -20.11,0 -39.97,-5.32 -59.31,-15.58 -5.71,-3.89 -10.64,-5.32 -14.8,-5.32 -4.28,0 -8.43,2.6 -12.97,7.92 -1.17,1.17 -2.73,2.33 -4.16,3.37 -1.55,1.17 -3.5,2.73 -5.32,3.9 -4.28,1.81 -7.66,2.2 -11.03,1.42 -2.73,-1.03 -5.32,-3.76 -8.05,-7.13 -1.81,-3.9 -2.98,-7.66 -3.76,-11.43 -0.78,-15.57 -1.56,-30.75 -1.95,-46.07 -0.39,-15.18 0,-30.37 0.39,-45.55 0.78,-3.51 1.95,-6.88 4.16,-10.26 2.33,-3.11 4.93,-5.32 8.04,-6.88 5.32,-1.55 10.26,-0.38 14.8,3.38 2.33,1.95 4.15,3.89 5.71,5.71 1.95,1.95 3.37,3.89 4.54,6.1 1.95,3.5 3.89,7.27 5.71,10.64 1.56,3.77 3.12,7.66 4.15,11.03 3.9,11.42 9.22,21.29 16.36,30.5 3.11,3.38 7.27,7.14 11.81,10.65 4.54,3.76 9.47,7.13 14.79,10.25 5.06,2.59 10.78,5.32 16.1,7.14 5.32,1.94 10.64,2.72 15.96,2.72 7.53,0 14.8,-1.94 20.9,-6.49 6.48,-4.54 11.42,-10.25 14.79,-16.74 3.76,-8.31 5.32,-17.91 4.15,-28.94 -1.55,-10.25 -6.1,-18.95 -13.62,-25.44 -5.32,-4.54 -11.42,-8.69 -17.13,-12.85 -6.1,-3.89 -12.59,-7.27 -18.69,-11.03 -6.1,-3.5 -12.07,-7.27 -18.17,-10.64 -6.1,-3.51 -12.2,-7.27 -18.69,-10.38 -18.56,-8.7 -34.92,-19.34 -49.06,-31.54 -18.95,-18.95 -28.81,-41.4 -29.98,-66.84 -0.78,-25.96 6.88,-50.23 23.23,-73.07 9.86,-13.24 22.71,-23.23 38.29,-29.2 15.7,-6.49 31.27,-9.61 48.02,-9.61 10.25,0 20.5,1.56 30.37,4.29 9.86,2.59 19.33,5.97 28.55,10.64 1.04,0.65 2.21,1.04 3.37,1.43 1.17,0.78 2.34,1.16 3.38,1.55l0.78 -0.77 2.33 -1.82 0.78 -0.78c2.21,-2.34 4.93,-4.93 8.31,-7.66 6.1,-3.76 11.42,-4.93 17.13,-2.98 4.93,2.2 7.66,6.36 8.31,13.24 0,14.79 0,29.33 0,44.12 -0.39,14.8 -1.04,29.33 -1.82,43.74 -0.39,5.71 -2.73,9.08 -6.49,10.64 -3.76,1.56 -8.05,1.95 -13.37,0.78 -4.15,-1.17 -7.92,-3.5 -10.64,-7.27 -1.04,-1.81 -2.21,-4.15 -3.38,-6.49 -1.16,-2.59 -1.94,-4.93 -2.59,-7.52 -1.17,-4.55 -2.73,-9.22 -5.32,-13.76 -0.78,-0.78 -1.56,-1.43 -1.56,-1.82 -8.05,-14.14 -17.13,-26.21 -27.77,-36.21 -8.44,-6.36 -17.91,-9.47 -28.17,-7.92 -11.03,1.17 -19.34,5.33 -26.21,12.46 -6.49,6.88 -9.87,15.71 -10.65,26.74 -0.39,10.25 2.99,18.95 10.26,27 13.75,12.07 28.55,22.71 44.51,31.92 0.39,0.39 0.78,0.39 0.78,0.78 0.39,0 0.78,0 1.04,0.26l3.5 1.95c0.39,0.39 0.39,0.39 0.78,0.78 0.39,0 0.39,0 0.78,0.39 3.77,2.2 7.53,4.54 11.68,6.87 3.9,2.21 8.05,4.55 12.2,6.36 14.41,6.88 27.78,15.32 40.37,25.18 12.07,9.87 21.28,22.84 27.38,38.42z"/>
  </g>
 </g>
</svg>
