<?xml version="1.0" encoding="UTF-8"?>
<!DOCTYPE svg PUBLIC "-//W3C//DTD SVG 1.1//EN" "http://www.w3.org/Graphics/SVG/1.1/DTD/svg11.dtd">
<!-- Creator: CorelDRAW -->
<svg xmlns="http://www.w3.org/2000/svg" xml:space="preserve" width="79.354mm" height="12.599mm" version="1.1" style="shape-rendering:geometricPrecision; text-rendering:geometricPrecision; image-rendering:optimizeQuality; fill-rule:evenodd; clip-rule:evenodd"
viewBox="0 0 7935.4 1259.9"
 xmlns:xlink="http://www.w3.org/1999/xlink"
 xmlns:xodm="http://www.corel.com/coreldraw/odm/2003">
 <defs>
  <style type="text/css">
   <![CDATA[
    .str0 {stroke:white;stroke-width:10;stroke-linecap:round;stroke-linejoin:round;stroke-miterlimit:22.9256}
    .fil0 {fill:white;fill-rule:nonzero}
   ]]>
  </style>
 </defs>
 <g id="Capa_x0020_1">
  <metadata id="CorelCorpID_0Corel-Layer"/>
  <g id="_2243059510928">
   <path class="fil0 str0" d="M728.72 462.64l0 0c-2.59,6.23 -6.74,8.82 -12.46,7.79 -5.71,-1.04 -8.3,-4.42 -7.78,-10.13 3.63,-14.01 6.49,-27.77 8.56,-41.27 -118.36,47.76 -236.21,80.73 -353.53,98.9 -23.36,46.72 -42.31,95.78 -56.85,147.17 -26.99,103.83 -26.86,180.4 0.39,229.72 27.26,49.32 71.9,69.18 133.94,59.57 62.04,-9.6 131.73,-50.35 209.08,-122.25 77.36,-71.9 152.89,-177.16 226.61,-315.77 0,-0.52 0,-1.04 0,-1.56 0,-68.01 12.98,-117.58 38.93,-148.73 23.37,-23.36 41.8,-31.15 55.29,-23.36 13.5,7.78 14.8,22.58 3.9,44.38 -35.82,60.74 -60.48,102.01 -73.98,123.82l0.78 0c-0.52,1.04 -1.04,1.82 -1.56,2.33 0.52,4.68 1.3,17.27 2.34,37.77 1.03,20.51 0.65,46.21 -1.17,77.09 -1.82,30.89 -6.62,64.25 -14.41,100.07 -16.09,74.24 -47.11,150.68 -93.05,229.33 -45.95,78.65 -107.08,146.66 -183.39,204.02 -76.31,57.37 -167.94,91.24 -274.88,101.62 -68.01,4.16 -120.83,-2.72 -158.47,-20.63 -37.64,-17.91 -62.3,-39.85 -73.98,-65.8 -11.68,-25.96 -12.59,-49.06 -2.73,-69.31 12.46,-20.25 27.91,-26.61 46.34,-19.08 18.43,7.53 24.27,22.71 17.52,45.56 -5.19,10.9 -11.42,17.65 -18.69,20.24 -7.27,2.6 -13.89,3.51 -19.86,2.73 -5.97,-0.78 -8.95,-1.17 -8.95,-1.17 -0.52,8.31 6.23,20.51 20.24,36.6 14.02,16.09 36.47,29.85 67.36,41.27 30.89,11.42 71.51,14.8 121.87,10.12 62.3,-8.82 122.91,-36.72 181.83,-83.71 58.92,-46.98 113.3,-104.6 163.14,-172.87 49.84,-68.27 91.89,-138.48 126.15,-210.64 34.26,-72.16 57.88,-137.57 70.86,-196.24 -66.97,124.6 -141.59,221.42 -223.88,290.46 -82.28,69.05 -159.76,108.76 -232.44,119.14 -72.68,10.39 -128.49,-10.12 -167.42,-61.51 -38.94,-51.4 -48.54,-135.24 -28.82,-251.53 8.83,-48.28 24.66,-97.85 47.51,-148.73 -65.94,3.11 -121.61,-3.24 -167.04,-19.08 -45.42,-15.83 -75.14,-42.96 -89.16,-81.37 -14.02,-47.25 -4.02,-97.08 29.98,-149.52 34,-52.43 84.1,-97.85 150.29,-136.27 66.19,-38.42 141.34,-59.44 225.44,-63.08 80.46,-2.07 145.88,8.83 196.23,32.71 68.53,-47.76 138.09,-79.17 208.7,-94.22 96.04,-17.14 165.86,-15.84 209.47,3.89 43.61,19.73 67.75,43.09 72.42,70.08 6.75,35.31 -5.19,71.64 -35.82,109.02 -30.63,37.38 -74.24,74.11 -130.82,110.19 -56.59,36.08 -120.96,69.18 -193.12,99.29 -2.6,17.13 -6.23,34.78 -10.91,52.95zm101.24 -381.57l0 0c-47.76,16.61 -98.12,42.57 -151.07,77.87 53.99,56.07 75.53,131.34 64.63,225.83 97.6,-41.53 177.93,-86.96 241.01,-136.28 63.08,-49.32 93.32,-96.56 90.72,-141.72 -4.15,-22.84 -28.42,-38.42 -72.81,-46.72 -44.39,-8.31 -101.88,-1.3 -172.48,21.02zm-556.78 425.18c74.24,-150.55 179.1,-277.22 314.6,-380.01 -46.73,-20.77 -105.65,-29.6 -176.77,-26.48 -75.79,4.67 -144.45,23.49 -205.97,56.46 -61.52,32.96 -108.63,72.68 -141.33,119.14 -32.71,46.46 -43.61,92.28 -32.71,137.44 10.9,37.38 38.03,63.34 81.37,77.87 43.35,14.54 96.95,19.73 160.81,15.58zm102.79 -11.68c114.73,-19.73 229.72,-53.22 344.97,-100.46 10.9,-92.41 -10.13,-166.12 -63.08,-221.15 -52.95,37.9 -103.96,83.97 -153.02,138.22 -49.05,54.25 -92.01,115.38 -128.87,183.39zm947.68 186.89l0 0c4.15,-4.16 7.65,-5.46 10.51,-3.9 2.85,1.56 2.98,4.67 0.39,9.35 -7.27,12.98 -26.87,39.71 -58.8,80.2 -31.92,40.5 -66.06,72.94 -102.4,97.34 -26.47,15.58 -56.06,23.88 -88.77,24.92 -32.7,1.04 -60.48,-7.53 -83.32,-25.7 -22.84,-18.17 -32.71,-48.8 -29.59,-91.88 6.23,-48.28 24.01,-90.46 53.34,-126.54 29.33,-36.08 63.08,-64.38 101.23,-84.88 38.16,-20.51 72.55,-30.76 103.18,-30.76 21.29,0 37.51,6.36 48.67,19.08 11.16,12.71 12.46,29.98 3.89,51.78 -8.56,21.8 -31.27,46.98 -68.13,75.53 -29.59,21.29 -57.76,36.08 -84.49,44.39 -26.74,8.31 -49.45,12.46 -68.14,12.46 -11.94,27.52 -17.91,56.33 -17.91,86.44 2.6,28.03 18.17,43.61 46.72,46.72 28.56,3.11 61,-7.79 97.34,-32.71 22.84,-16.61 44.13,-36.34 63.86,-59.18 19.72,-22.84 36.21,-43.22 49.44,-61.13 13.24,-17.91 20.9,-28.42 22.98,-31.53zm-117.59 -111.36l0 0c-22.32,14.02 -46.33,33.74 -72.03,59.18 -25.7,25.44 -47.37,54.77 -65.02,88 28.55,-1.04 66.45,-14.02 113.69,-38.94 36.86,-22.32 61.52,-45.03 73.98,-68.14 12.46,-23.1 14.14,-39.71 5.06,-49.83 -9.09,-10.13 -27.65,-6.88 -55.68,9.73zm449.3 109.8c3.64,-4.15 6.88,-5.32 9.74,-3.51 2.85,1.82 2.46,5.84 -1.17,12.07 -7.79,11.43 -29.59,39.85 -65.41,85.27 -35.82,45.43 -68.27,79.3 -97.34,101.62 -23.36,14.54 -46.07,17.91 -68.14,10.13 -22.06,-7.79 -37.38,-22.97 -45.94,-45.56 -8.57,-22.58 -4.8,-48.67 11.29,-78.26 15.06,-25.95 36.08,-61.77 63.08,-107.46 18.17,-28.03 28.42,-48.02 30.75,-59.96 2.34,-11.94 -2.72,-27 -15.18,-45.16 -2.08,-2.6 -3.63,-5.2 -4.67,-7.79 -58.67,76.31 -102.27,132.64 -130.83,168.98 -3.11,3.11 -6.1,3.63 -8.95,1.56 -2.86,-2.08 -2.73,-5.2 0.39,-9.35 29.59,-38.42 74.24,-96.56 133.94,-174.43 -5.19,-17.13 -5.45,-33.35 -0.78,-48.67 4.67,-15.31 11.68,-28.16 21.02,-38.55 20.25,-19.72 36.21,-25.69 47.89,-17.91 11.68,7.79 12.85,19.47 3.51,35.05 -16.1,19.72 -30.89,38.15 -44.39,55.28 -8.3,12.98 -5.71,26.61 7.79,40.89 13.5,14.27 25.57,31.53 36.21,51.78 10.64,20.25 7.4,45.69 -9.74,76.31 -25.95,43.09 -50.87,84.62 -74.75,124.6 -8.83,15.57 -12.2,30.11 -10.12,43.61 2.07,13.49 9.47,20.63 22.19,21.41 12.72,0.78 30.5,-9.99 53.34,-32.32 22.32,-22.84 43.35,-45.81 63.08,-68.91 19.72,-23.1 36.08,-42.96 49.05,-59.57 12.98,-16.62 21.03,-27 24.14,-31.15zm443.86 0.78l0 0c3.63,-4.16 6.88,-5.32 9.73,-3.51 2.86,1.82 3.25,4.8 1.17,8.96 -8.83,12.98 -34.39,45.29 -76.7,96.95 -42.31,51.65 -75.67,85.27 -100.07,100.84 -26.47,9.86 -51.52,7.4 -75.14,-7.4 -23.62,-14.79 -33.36,-39.84 -29.2,-75.14 -14.02,15.57 -31.67,32.44 -52.96,50.61 -23.36,19.21 -48.54,31.15 -75.53,35.82 -27,4.68 -49.06,-0.65 -66.19,-15.96 -17.13,-15.31 -22.84,-42.96 -17.13,-82.93 9.86,-51.4 30.76,-96.43 62.68,-135.11 31.93,-38.67 66.97,-68.91 105.13,-90.72 38.15,-21.8 71.77,-32.96 100.84,-33.48 41.53,0.52 64.11,16.35 67.75,47.5 9.86,-16.09 19.21,-31.93 28.03,-47.5l84.88 0c0,0 -55.29,90.59 -165.86,271.77 -16.62,30.63 -18.3,52.3 -5.07,65.02 13.24,12.72 34.92,5.06 65.03,-22.97 30.11,-31.15 58.01,-62.56 83.71,-94.23 25.7,-31.66 44,-54.51 54.9,-68.52zm-320.05 146.39l0 0c34.26,-34.78 60.74,-65.41 79.43,-91.88 17.65,-29.59 40.49,-67.49 68.52,-113.69 12.98,-38.42 10.39,-59.84 -7.78,-64.25 -18.17,-4.41 -40.24,2.73 -66.19,21.42 -35.31,26.99 -71,64.37 -107.08,112.13 -36.08,47.76 -58.53,94.48 -67.36,140.17 -3.11,26.99 5.33,39.71 25.31,38.15 19.99,-1.55 45.04,-15.57 75.15,-42.05zm552.09 -147.17l0 0c4.15,-4.15 7.66,-5.32 10.51,-3.51 2.86,1.82 3.25,4.81 1.17,8.96 -9.34,12.98 -35.17,45.42 -77.48,97.34 -42.31,51.91 -75.67,85.4 -100.07,100.45 -20.24,8.31 -40.49,8.44 -60.73,0.39 -20.25,-8.05 -34.27,-22.84 -42.06,-44.39 -7.78,-21.54 -2.85,-48.92 14.8,-82.15 88.77,-147.44 193.12,-320.83 313.04,-520.18l84.1 0c0,0 -113.69,187.93 -341.07,563.79 -17.13,30.63 -19.08,52.3 -5.84,65.02 13.24,12.72 34.91,5.32 65.02,-22.19 30.11,-31.67 58.01,-63.34 83.71,-95.01 25.7,-31.66 44,-54.5 54.9,-68.52zm443.08 0l0 0c4.15,-3.64 7.65,-4.54 10.51,-2.73 2.85,1.82 3.24,4.55 1.17,8.18 -9.35,13.5 -35.17,46.07 -77.48,97.73 -42.31,51.65 -75.67,85.01 -100.07,100.06 -26.48,10.38 -51.52,8.05 -75.14,-7.01 -23.63,-15.05 -33.36,-40.23 -29.21,-75.53 -14.01,16.09 -31.92,33.48 -53.73,52.17 -23.36,19.21 -48.54,31.02 -75.53,35.43 -27,4.42 -49.06,-0.91 -66.19,-15.96 -17.13,-15.06 -22.84,-42.57 -17.13,-82.54 9.86,-51.4 30.76,-96.56 62.68,-135.5 31.93,-38.93 66.97,-69.17 105.13,-90.72 38.15,-21.54 71.77,-32.57 100.84,-33.09 41.53,0.52 64.11,16.35 67.75,47.5 91.89,-152.11 160.41,-265.54 205.58,-340.3l84.1 0c0,0 -113.69,187.93 -341.08,563.79 -17.13,30.63 -19.07,52.3 -5.84,65.02 13.24,12.72 34.92,5.06 65.03,-22.97 30.11,-31.15 58.01,-62.56 83.71,-94.23 25.69,-31.66 43.99,-54.77 54.9,-69.3zm-236.73 49.06l0 0c0,-0.52 0.26,-0.78 0.78,-0.78 15.05,-25.44 35.82,-60.22 62.29,-104.35 13.5,-39.45 11.3,-61.52 -6.62,-66.19 -17.91,-4.67 -40.1,2.6 -66.57,21.8 -35.31,26.48 -71,63.73 -107.08,111.75 -36.08,48.02 -58.53,94.87 -67.36,140.56 -3.11,26.99 5.33,39.71 25.31,38.15 19.99,-1.55 45.04,-15.57 75.15,-42.05 42.05,-43.6 70.08,-76.57 84.1,-98.89zm466.44 -49.06l0 0c4.15,-3.64 7.66,-4.54 10.51,-2.73 2.86,1.82 3.25,4.8 1.17,8.96 -9.34,12.98 -35.17,45.29 -77.48,96.95 -42.31,51.65 -75.67,85.01 -100.07,100.06 -20.24,8.31 -40.49,8.57 -60.73,0.78 -20.25,-7.79 -34.27,-22.58 -42.06,-44.39 -7.78,-21.8 -2.85,-49.05 14.8,-81.76 30.11,-50.36 75.79,-126.41 137.05,-228.16l84.1 0c0,0 -55.02,90.59 -165.08,271.77 -17.13,30.63 -19.08,52.3 -5.84,65.02 13.24,12.72 34.91,5.06 65.02,-22.97 30.11,-31.15 58.01,-62.56 83.71,-94.23 25.7,-31.66 44,-54.77 54.9,-69.3zm-47.5 -179.88c-9.87,0 -18.17,-3.51 -24.92,-10.52 -6.75,-7 -10.12,-15.18 -10.12,-24.53 0,-9.86 3.37,-18.17 10.12,-24.91 6.75,-6.75 15.05,-10.13 24.92,-10.13 9.34,0 17.52,3.38 24.53,10.13 7.01,6.74 10.51,15.05 10.51,24.91 0,9.35 -3.5,17.53 -10.51,24.53 -7.01,7.01 -15.19,10.52 -24.53,10.52zm468.78 180.66l0 0c3.63,-4.16 6.87,-5.32 9.73,-3.51 2.86,1.82 2.47,5.84 -1.17,12.07 -7.78,11.42 -29.46,39.85 -65.02,85.27 -35.56,45.43 -68.14,79.3 -97.73,101.62 -23.36,14.02 -45.94,17.13 -67.75,9.35 -21.8,-7.79 -36.98,-22.84 -45.55,-45.17 -8.57,-22.32 -5.06,-48.02 10.51,-77.09 21.81,-37.38 51.66,-87.47 89.55,-150.29 16.62,-31.15 17.39,-51.78 2.34,-61.91 -15.06,-10.12 -37.9,-0.91 -68.53,27.65 -54.51,59.18 -97.34,109.27 -128.48,150.29l-93.45 160.41 -83.32 0 208.69 -359.76 84.1 0 -70.08 119.92c42.05,-51.4 78.65,-88.26 109.8,-110.58 18.17,-9.86 38.15,-12.07 59.96,-6.62 21.8,5.45 37.9,17.91 48.28,37.38 10.38,19.47 7.53,45.3 -8.57,77.48 -30.11,52.95 -61.77,106.43 -95,160.42 -8.82,15.57 -12.2,30.11 -10.12,43.6 2.07,13.5 9.47,20.51 22.19,21.03 12.72,0.52 30.5,-10.12 53.34,-31.93 22.33,-22.84 43.35,-45.81 63.08,-68.91 19.72,-23.11 36.08,-43.09 49.06,-59.96 12.97,-16.88 21.02,-27.13 24.14,-30.76zm312.25 0.78l0 0c4.15,-4.16 7.65,-5.46 10.51,-3.9 2.85,1.56 2.98,4.67 0.39,9.35 -7.27,12.98 -26.87,39.71 -58.8,80.2 -31.92,40.5 -66.06,72.94 -102.4,97.34 -26.47,15.58 -56.06,23.88 -88.77,24.92 -32.7,1.04 -60.48,-7.53 -83.32,-25.7 -22.84,-18.17 -32.71,-48.8 -29.59,-91.88 6.23,-48.28 24.01,-90.46 53.34,-126.54 29.33,-36.08 63.08,-64.38 101.23,-84.88 38.16,-20.51 72.55,-30.76 103.18,-30.76 21.29,0 37.51,6.36 48.67,19.08 11.16,12.71 12.46,29.98 3.89,51.78 -8.56,21.8 -31.27,46.98 -68.13,75.53 -29.59,21.29 -57.76,36.08 -84.49,44.39 -26.74,8.31 -49.45,12.46 -68.14,12.46 -11.94,27.52 -17.91,56.33 -17.91,86.44 2.6,28.03 18.17,43.61 46.72,46.72 28.56,3.11 61,-7.79 97.34,-32.71 22.84,-16.61 44.13,-36.34 63.86,-59.18 19.72,-22.84 36.21,-43.22 49.44,-61.13 13.24,-17.91 20.9,-28.42 22.98,-31.53zm-117.59 -111.36l0 0c-22.32,14.02 -46.33,33.74 -72.03,59.18 -25.7,25.44 -47.37,54.77 -65.02,88 28.55,-1.04 66.45,-14.02 113.69,-38.94 36.86,-22.32 61.52,-45.03 73.98,-68.14 12.46,-23.1 14.14,-39.71 5.06,-49.83 -9.09,-10.13 -27.65,-6.88 -55.68,9.73zm1933.52 -564.56l0 0c34.78,-1.56 67.75,4.15 98.9,17.13 31.15,12.98 54.64,32.05 70.47,57.23 15.83,25.18 18.3,54.9 7.4,89.16 -3.12,6.23 -6.88,8.44 -11.29,6.62 -4.42,-1.81 -6.1,-5.58 -5.06,-11.29 7.26,-30.63 3.24,-56.45 -12.07,-77.48 -15.32,-21.02 -36.21,-36.6 -62.69,-46.72 -26.48,-10.13 -52.95,-14.67 -79.43,-13.63 -62.3,5.19 -126.93,31.93 -193.9,80.21 -66.97,48.28 -130.69,102.92 -191.17,163.92 -60.48,61 -111.75,113.82 -153.8,158.46 -74.75,77.36 -153.01,156.39 -234.78,237.12 -81.76,80.73 -160.41,151.07 -235.95,211.03 -75.53,59.96 -141.07,97.21 -196.62,111.75 -35.82,5.71 -60.48,5.71 -73.98,0 -11.94,-4.16 -17.26,-10 -15.96,-17.52 1.3,-7.53 10.51,-12.33 27.64,-14.41 21.29,-0.52 36.6,1.3 45.95,5.45 9.34,4.15 14.01,6.23 14.01,6.23 75.28,-59.7 152.11,-145.49 230.5,-257.36 78.39,-111.88 147.18,-228.56 206.36,-350.03 45.16,-98.64 57.75,-176.64 37.77,-234.01 -19.99,-57.36 -61.65,-91.49 -124.99,-102.4 -63.33,-10.9 -137.31,4.29 -221.93,45.56 -84.62,41.27 -168.98,111.74 -253.08,211.42 -88.77,111.61 -136.14,202.46 -142.11,272.55 -5.97,70.08 14.4,117.84 61.13,143.28 46.72,25.44 104.86,26.6 174.43,3.5 69.56,-23.1 135.23,-72.29 197.01,-147.56 47.24,-62.3 75.66,-114.73 85.27,-157.3 9.6,-42.57 7.66,-75.41 -5.84,-98.51 -13.5,-23.1 -31.15,-36.21 -52.95,-39.32 -21.81,-2.08 -38.81,0.26 -51.01,7 -12.2,6.75 -18.3,10.13 -18.3,10.13 18.17,-4.67 31.93,-0.39 41.27,12.85 9.35,13.23 8.31,27.9 -3.11,43.99 -8.31,8.83 -17.91,12.59 -28.81,11.29 -10.91,-1.29 -19.99,-5.84 -27.26,-13.62 -6.23,-8.31 -8.57,-19.6 -7.01,-33.88 1.56,-14.27 9.35,-27.25 23.36,-38.93 14.02,-11.68 36.34,-17.26 66.97,-16.74 23.88,0.52 45.56,11.55 65.02,33.09 19.47,21.55 27.39,54.38 23.76,98.51 -3.64,44.12 -28.56,100.45 -74.76,168.98 -62.3,86.18 -131.73,143.15 -208.31,170.92 -76.57,27.78 -146.13,31.28 -208.69,10.52 -62.56,-20.77 -104.09,-61 -124.59,-120.7 -20.51,-59.7 -5.84,-133.68 43.99,-221.94 60.74,-99.15 133.55,-178.71 218.43,-238.67 84.88,-59.96 170.54,-100.19 256.98,-120.7 86.43,-20.51 162.23,-20.64 227.38,-0.39 65.15,20.25 108.37,61.26 129.65,123.04 21.29,61.77 9.35,144.58 -35.82,248.41 -61.25,129.26 -137.05,245.29 -227.38,348.08 -90.33,102.79 -172.87,177.29 -247.63,223.49 61.26,-23.36 139,-77.87 233.22,-163.53 94.23,-85.66 190.79,-180.14 289.68,-283.45 98.9,-103.31 186.51,-192.6 262.82,-267.88 71.64,-71.12 139,-128.22 202.07,-171.31 63.08,-43.09 126.03,-66.97 188.84,-71.64zm-294.36 675.92l0 0c4.15,-4.16 7.65,-5.46 10.51,-3.9 2.85,1.56 2.98,4.67 0.39,9.35 -7.27,12.98 -26.87,39.71 -58.8,80.2 -31.92,40.5 -66.06,72.94 -102.4,97.34 -26.47,15.58 -56.06,23.88 -88.77,24.92 -32.7,1.04 -60.48,-7.53 -83.32,-25.7 -22.84,-18.17 -32.71,-48.8 -29.59,-91.88 6.23,-48.28 24.01,-90.46 53.34,-126.54 29.33,-36.08 63.08,-64.38 101.23,-84.88 38.16,-20.51 72.55,-30.76 103.18,-30.76 21.29,0 37.51,6.36 48.67,19.08 11.16,12.71 12.46,29.98 3.89,51.78 -8.56,21.8 -31.27,46.98 -68.13,75.53 -29.59,21.29 -57.76,36.08 -84.49,44.39 -26.74,8.31 -49.45,12.46 -68.14,12.46 -11.94,27.52 -17.91,56.33 -17.91,86.44 2.6,28.03 18.17,43.61 46.72,46.72 28.56,3.11 61,-7.79 97.34,-32.71 22.84,-16.61 44.13,-36.34 63.86,-59.18 19.72,-22.84 36.21,-43.22 49.44,-61.13 13.24,-17.91 20.9,-28.42 22.98,-31.53zm-117.59 -111.36l0 0c-22.32,14.02 -46.33,33.74 -72.03,59.18 -25.7,25.44 -47.37,54.77 -65.02,88 28.55,-1.04 66.45,-14.02 113.69,-38.94 36.86,-22.32 61.52,-45.03 73.98,-68.14 12.46,-23.1 14.14,-39.71 5.06,-49.83 -9.09,-10.13 -27.65,-6.88 -55.68,9.73zm349.63 109.8l0 0c4.15,-4.15 7.66,-5.32 10.51,-3.51 2.86,1.82 3.25,4.81 1.17,8.96 -9.34,12.98 -35.17,45.42 -77.48,97.34 -42.31,51.91 -75.67,85.4 -100.07,100.45 -20.24,8.31 -40.49,8.44 -60.73,0.39 -20.25,-8.05 -34.27,-22.84 -42.06,-44.39 -7.78,-21.54 -2.85,-48.92 14.8,-82.15 88.77,-147.44 193.12,-320.83 313.04,-520.18l84.1 0c0,0 -113.69,187.93 -341.07,563.79 -17.13,30.63 -19.08,52.3 -5.84,65.02 13.24,12.72 34.91,5.32 65.02,-22.19 30.11,-31.67 58.01,-63.34 83.71,-95.01 25.7,-31.66 44,-54.5 54.9,-68.52zm442.3 0.78l0 0c3.63,-4.16 6.88,-5.32 9.73,-3.51 2.86,1.82 3.25,4.8 1.17,8.96 -8.83,12.98 -34.39,45.29 -76.7,96.95 -42.31,51.65 -75.67,85.27 -100.07,100.84 -26.47,9.86 -51.52,7.4 -75.14,-7.4 -23.62,-14.79 -33.36,-39.84 -29.2,-75.14 -14.02,15.57 -31.67,32.44 -52.96,50.61 -23.36,19.21 -48.54,31.15 -75.53,35.82 -27,4.68 -49.06,-0.65 -66.19,-15.96 -17.13,-15.31 -22.84,-42.96 -17.13,-82.93 9.86,-51.4 30.76,-96.43 62.68,-135.11 31.93,-38.67 66.97,-68.91 105.13,-90.72 38.15,-21.8 71.77,-32.96 100.84,-33.48 41.53,0.52 64.11,16.35 67.75,47.5 9.86,-16.09 19.21,-31.93 28.03,-47.5l84.88 0c0,0 -55.29,90.59 -165.86,271.77 -16.62,30.63 -18.3,52.3 -5.07,65.02 13.24,12.72 34.92,5.06 65.03,-22.97 30.11,-31.15 58.01,-62.56 83.71,-94.23 25.7,-31.66 44,-54.51 54.9,-68.52zm-320.05 146.39l0 0c34.26,-34.78 60.74,-65.41 79.43,-91.88 17.65,-29.59 40.49,-67.49 68.52,-113.69 12.98,-38.42 10.39,-59.84 -7.78,-64.25 -18.17,-4.41 -40.24,2.73 -66.19,21.42 -35.31,26.99 -71,64.37 -107.08,112.13 -36.08,47.76 -58.53,94.48 -67.36,140.17 -3.11,26.99 5.33,39.71 25.31,38.15 19.99,-1.55 45.04,-15.57 75.15,-42.05zm720.29 -295.91l0 0c4.15,-2.07 7.27,-1.55 9.35,1.56 2.07,3.12 1.81,6.23 -0.78,9.35 0,0 -107.21,85.4 -321.61,256.19 22.32,-0.52 42.31,6.36 59.96,20.64 17.65,14.27 28.29,35.69 31.93,64.24 38.93,-16.09 74.49,-39.84 106.68,-71.25 32.19,-31.41 68.53,-74.89 109.02,-130.43 4.15,-4.68 7.92,-6.1 11.29,-4.29 3.38,1.82 3.25,5.32 -0.39,10.52 -31.15,44.12 -63.85,84.23 -98.12,120.31 -34.26,36.08 -76.83,65.28 -127.7,87.6 2.07,39.97 -16.62,91.89 -56.07,155.74 -48.8,74.24 -100.07,127.97 -153.8,161.2 -53.73,33.22 -102.92,50.61 -147.56,52.17 -44.65,1.56 -77.87,-8.05 -99.68,-28.81 -21.8,-20.77 -25.17,-47.76 -10.12,-80.99 25.44,-46.72 76.57,-93.7 153.41,-140.95 76.83,-47.24 162.49,-84.36 256.97,-111.35 9.34,-30.11 10.25,-53.6 2.73,-70.47 -7.53,-16.88 -26.35,-23.49 -56.46,-19.86 -51.91,41.53 -82.02,65.67 -90.33,72.42 -14.02,8.31 -23.49,5.71 -28.42,-7.79 -4.94,-13.5 1.42,-29.59 19.07,-48.28 15.58,-12.98 32.71,-21.15 51.4,-24.53 18.69,-3.37 34.52,-4.8 47.5,-4.28 0,0 74.76,-60.74 224.27,-182.22 -24.4,11.94 -47.76,16.87 -70.08,14.8 -11.43,-2.08 -24.53,-7.79 -39.33,-17.13 -14.8,-9.35 -28.42,-17.53 -40.88,-24.53 -12.46,-7.01 -21.03,-8.44 -25.7,-4.29 -33.74,41.53 -67.75,83.07 -102.01,124.6 -3.12,3.11 -6.1,3.76 -8.96,1.94 -2.85,-1.81 -2.72,-5.06 0.39,-9.73 4.16,-5.19 17.01,-21.54 38.55,-49.06 21.54,-27.51 44.26,-55.03 68.14,-82.54 23.88,-27.52 39.45,-41.27 46.72,-41.27 9.34,0 21.41,4.15 36.21,12.46 14.8,8.3 30.5,16.61 47.11,24.91 16.61,8.31 32.19,13.5 46.72,15.58 27.52,0.52 50.62,-5.97 69.31,-19.47 11.42,-8.82 20.77,-16.09 28.03,-21.8 7.27,-5.71 11.68,-9.35 13.24,-10.91zm-422.06 598.05l0 0c64.89,-68 111.62,-138.87 140.17,-212.58 -71.64,20.24 -141.08,48.8 -208.31,85.65 -67.23,36.86 -120.31,78.65 -159.24,125.38 -25.96,35.82 -31.8,64.89 -17.52,87.21 14.27,22.33 43.21,28.55 86.82,18.69 43.61,-9.86 96.3,-44.64 158.08,-104.35zm861.24 -449.31l0 0c3.64,-3.12 7.01,-3.9 10.13,-2.34 3.11,1.56 3.11,4.93 0,10.13 -1.04,1.55 -6.23,8.69 -15.58,21.41 -9.34,12.72 -21.93,28.16 -37.77,46.33 -15.83,18.17 -34.13,36.73 -54.89,55.68 -20.77,18.95 -43.35,35.69 -67.75,50.23 -24.4,14.53 -50.1,24.4 -77.09,29.59 1.03,26.47 -2.86,65.28 -11.69,116.42 -8.82,51.13 -24.27,101.1 -46.33,149.9 -22.06,48.8 -52.04,82.8 -89.94,102.01 -20.25,7.79 -40.49,7.79 -60.74,0 -20.25,-7.79 -34.26,-22.45 -42.05,-44 -7.79,-21.54 -2.85,-48.93 14.8,-82.15 23.36,-39.98 84.36,-141.47 182.99,-304.48 -8.3,7.79 -17.13,15.58 -26.47,23.36 -23.36,19.21 -48.54,31.15 -75.54,35.82 -26.99,4.68 -49.06,-0.65 -66.19,-15.96 -17.13,-15.31 -22.84,-42.7 -17.13,-82.15 9.86,-51.92 30.76,-97.21 62.69,-135.89 31.92,-38.67 66.97,-68.91 105.12,-90.72 38.16,-21.8 71.77,-32.7 100.84,-32.7 41.54,0 64.12,15.57 67.75,46.72 12.46,-20.77 21.81,-36.34 28.04,-46.72l84.1 0c0,0 -69.05,114.73 -207.14,344.19 48.8,-12.46 93.32,-37.38 133.55,-74.76 40.23,-37.38 75.66,-77.35 106.29,-119.92zm-363.65 538.87l0 0c26.99,-30.63 48.15,-66.84 63.46,-108.63 15.31,-41.8 26.22,-81.9 32.71,-120.32 6.49,-38.41 9.99,-67.48 10.51,-87.21 -87.22,144.32 -142.51,235.69 -165.87,274.11 -17.13,30.62 -18.82,52.56 -5.06,65.8 13.76,13.23 35.17,5.32 64.25,-23.75zm44.38 -391.7l0 0c33.75,-33.22 59.96,-63.33 78.65,-90.33 25.44,-42.57 48.54,-80.98 69.31,-115.24 12.98,-38.42 10.38,-59.84 -7.79,-64.25 -18.17,-4.41 -40.23,2.73 -66.19,21.42 -35.3,26.99 -70.99,64.5 -107.07,112.52 -36.08,48.02 -58.54,94.61 -67.36,139.78 -3.12,26.99 5.45,39.71 25.7,38.15 20.24,-1.55 45.16,-15.57 74.75,-42.05z"/>
   <path class="fil0 str0" d="M7212.88 679.9l0 0c3.63,-4.15 6.87,-5.32 9.73,-3.51 2.85,1.82 3.24,4.81 1.17,8.96 -8.83,12.98 -34.4,45.42 -76.71,97.34 -42.31,51.91 -75.66,85.4 -100.06,100.45 -20.25,8.31 -40.36,8.7 -60.35,1.17 -19.99,-7.53 -34,-21.67 -42.05,-42.44 -8.05,-20.77 -4.28,-46.98 11.29,-78.65 -21.8,26.48 -43.61,51.52 -65.41,75.15 -21.8,23.62 -38.94,38.54 -51.4,44.77 -20.24,8.31 -40.49,8.44 -60.73,0.39 -20.25,-8.05 -34.27,-22.84 -42.06,-44.39 -7.78,-21.54 -2.85,-48.92 14.8,-82.15 30.11,-50.36 75.79,-126.41 137.05,-228.16l84.1 0c0,0 -55.02,90.59 -165.08,271.77 -17.13,30.63 -19.08,52.3 -5.84,65.02 13.24,12.72 34.91,5.32 65.02,-22.19 62.3,-68.53 107.72,-122 136.27,-160.42 29.08,-48.28 59.96,-99.67 92.67,-154.18l84.1 0c0,0 -55.03,90.59 -165.09,271.77 -17.13,30.63 -19.07,52.3 -5.84,65.02 13.24,12.72 35.18,5.32 65.8,-22.19 29.6,-31.67 57.24,-63.34 82.94,-95.01 25.7,-31.66 44.25,-54.5 55.68,-68.52zm312.25 1.56l0 0c4.15,-4.16 7.65,-5.46 10.51,-3.9 2.85,1.56 2.98,4.67 0.39,9.35 -7.27,12.98 -26.87,39.71 -58.8,80.2 -31.92,40.5 -66.06,72.94 -102.4,97.34 -26.47,15.58 -56.06,23.88 -88.77,24.92 -32.7,1.04 -60.48,-7.53 -83.32,-25.7 -22.84,-18.17 -32.71,-48.8 -29.59,-91.88 6.23,-48.28 24.01,-90.46 53.34,-126.54 29.33,-36.08 63.08,-64.38 101.23,-84.88 38.16,-20.51 72.55,-30.76 103.18,-30.76 21.29,0 37.51,6.36 48.67,19.08 11.16,12.71 12.46,29.98 3.89,51.78 -8.56,21.8 -31.27,46.98 -68.13,75.53 -29.59,21.29 -57.76,36.08 -84.49,44.39 -26.74,8.31 -49.45,12.46 -68.14,12.46 -11.94,27.52 -17.91,56.33 -17.91,86.44 2.6,28.03 18.17,43.61 46.72,46.72 28.56,3.11 61,-7.79 97.34,-32.71 22.84,-16.61 44.13,-36.34 63.86,-59.18 19.72,-22.84 36.21,-43.22 49.44,-61.13 13.24,-17.91 20.9,-28.42 22.98,-31.53zm-117.59 -111.36l0 0c-22.32,14.02 -46.33,33.74 -72.03,59.18 -25.7,25.44 -47.37,54.77 -65.02,88 28.55,-1.04 66.45,-14.02 113.69,-38.94 36.86,-22.32 61.52,-45.03 73.98,-68.14 12.46,-23.1 14.14,-39.71 5.06,-49.83 -9.09,-10.13 -27.65,-6.88 -55.68,9.73zm517.83 -38.94l0 0c4.15,-2.07 7.27,-1.55 9.35,1.56 2.07,3.12 1.81,6.23 -0.78,9.35 0,0 -107.21,85.4 -321.61,256.19 22.32,-0.52 42.31,6.36 59.96,20.64 17.65,14.27 28.29,35.69 31.93,64.24 38.93,-16.09 74.49,-39.84 106.68,-71.25 32.19,-31.41 68.53,-74.89 109.02,-130.43 4.15,-4.68 7.92,-6.1 11.29,-4.29 3.38,1.82 3.25,5.32 -0.39,10.52 -31.15,44.12 -63.85,84.23 -98.12,120.31 -34.26,36.08 -76.83,65.28 -127.7,87.6 2.07,39.97 -16.62,91.89 -56.07,155.74 -48.8,74.24 -100.07,127.97 -153.8,161.2 -53.73,33.22 -102.92,50.61 -147.56,52.17 -44.65,1.56 -77.87,-8.05 -99.68,-28.81 -21.8,-20.77 -25.17,-47.76 -10.12,-80.99 25.44,-46.72 76.57,-93.7 153.41,-140.95 76.83,-47.24 162.49,-84.36 256.97,-111.35 9.34,-30.11 10.25,-53.6 2.73,-70.47 -7.53,-16.88 -26.35,-23.49 -56.46,-19.86 -51.91,41.53 -82.02,65.67 -90.33,72.42 -14.02,8.31 -23.49,5.71 -28.42,-7.79 -4.94,-13.5 1.42,-29.59 19.07,-48.28 15.58,-12.98 32.71,-21.15 51.4,-24.53 18.69,-3.37 34.52,-4.8 47.5,-4.28 0,0 74.76,-60.74 224.27,-182.22 -24.4,11.94 -47.76,16.87 -70.08,14.8 -11.43,-2.08 -24.53,-7.79 -39.33,-17.13 -14.8,-9.35 -28.42,-17.53 -40.88,-24.53 -12.46,-7.01 -21.03,-8.44 -25.7,-4.29 -33.74,41.53 -67.75,83.07 -102.01,124.6 -3.12,3.11 -6.1,3.76 -8.96,1.94 -2.85,-1.81 -2.72,-5.06 0.39,-9.73 4.16,-5.19 17.01,-21.54 38.55,-49.06 21.54,-27.51 44.26,-55.03 68.14,-82.54 23.88,-27.52 39.45,-41.27 46.72,-41.27 9.34,0 21.41,4.15 36.21,12.46 14.8,8.3 30.5,16.61 47.11,24.91 16.61,8.31 32.19,13.5 46.72,15.58 27.52,0.52 50.62,-5.97 69.31,-19.47 11.42,-8.82 20.77,-16.09 28.03,-21.8 7.27,-5.71 11.68,-9.35 13.24,-10.91zm-422.06 598.05l0 0c64.89,-68 111.62,-138.87 140.17,-212.58 -71.64,20.24 -141.08,48.8 -208.31,85.65 -67.23,36.86 -120.31,78.65 -159.24,125.38 -25.96,35.82 -31.8,64.89 -17.52,87.21 14.27,22.33 43.21,28.55 86.82,18.69 43.61,-9.86 96.3,-44.64 158.08,-104.35z"/>
  </g>
 </g>
</svg>
