<?xml version="1.0" encoding="UTF-8"?>
<!DOCTYPE svg PUBLIC "-//W3C//DTD SVG 1.1//EN" "http://www.w3.org/Graphics/SVG/1.1/DTD/svg11.dtd">
<!-- Creator: CorelDRAW -->
<svg xmlns="http://www.w3.org/2000/svg" xml:space="preserve" width="75.974mm" height="37.447mm" version="1.1" style="shape-rendering:geometricPrecision; text-rendering:geometricPrecision; image-rendering:optimizeQuality; fill-rule:evenodd; clip-rule:evenodd"
viewBox="0 0 7597.4 3744.7"
 xmlns:xlink="http://www.w3.org/1999/xlink"
 xmlns:xodm="http://www.corel.com/coreldraw/odm/2003">
 <defs>
  <style type="text/css">
   <![CDATA[
    .str0 {stroke:white;stroke-width:7.62;stroke-miterlimit:22.9256}
    .fil1 {fill:white}
    .fil0 {fill:white;fill-rule:nonzero}
   ]]>
  </style>
 </defs>
 <g id="Capa_x0020_1">
  <metadata id="CorelCorpID_0Corel-Layer"/>
  <g id="_2242528787440">
   <g>
    <path class="fil0 str0" d="M78.77 246.58c-0.91,4.42 -1.55,8.64 -2.01,12.73 -0.45,4.02 -0.65,6.62 -0.65,7.72 0,5.59 2.34,9.35 6.95,11.37 4.61,2.01 14.09,3.05 28.44,3.05l0 14.8c-14.87,-0.58 -26.88,-0.97 -36.04,-1.23 -9.22,-0.2 -17.2,-0.33 -23.89,-0.33 -4.29,0 -9.93,0.13 -16.95,0.33 -6.94,0.19 -18.5,0.58 -34.6,1.23l0.19 -14.8c10.26,-0.13 17.53,-1.69 21.69,-4.61 4.15,-2.99 7.14,-9.87 8.96,-20.58l31.16 -189.14c0.65,-4.48 1.17,-8.7 1.63,-12.66 0.45,-4.02 0.65,-6.62 0.65,-7.92 0,-4.67 -1.63,-8.11 -4.94,-10.26 -3.31,-2.14 -10.19,-3.76 -20.71,-4.93l0 -14.8c8.96,0.39 16.82,0.65 23.5,0.84 6.63,0.19 12.08,0.32 16.23,0.32 5.46,0 14.81,-0.19 28.05,-0.58 13.25,-0.39 23.77,-0.58 31.49,-0.58 31.82,0 56.16,6.68 72.98,20.06 16.82,13.37 25.19,32.53 25.19,57.52 0,27.79 -9.41,48.57 -28.24,62.46 -18.83,13.9 -47.07,20.84 -84.73,20.84 -5.07,0 -10.39,-0.06 -15.84,-0.26 -5.46,-0.19 -10.98,-0.51 -16.69,-0.9l-11.82 70.31zm14.48 -86.29c2.02,0.13 4.74,0.26 8.18,0.39 5.78,0.26 9.68,0.39 11.56,0.39 26.17,0 44.99,-5.84 56.62,-17.53 11.62,-11.62 17.4,-30.32 17.4,-56.09 0,-19.74 -4.81,-34.09 -14.48,-42.86 -9.61,-8.83 -25.26,-13.24 -46.94,-13.24 -3.19,0 -5.52,0 -6.95,0.06 -1.49,0.07 -2.99,0.26 -4.48,0.52l-20.91 128.36zm231.27 58.24l-17.2 77.72 -41.68 0 30.25 -136.35c0.91,-4.41 1.56,-8.37 2.08,-11.81 0.52,-3.51 0.78,-6.17 0.78,-8.05 0,-4.48 -0.91,-7.99 -2.73,-10.72 -1.88,-2.72 -4.15,-4.09 -6.95,-4.09 -6.36,0 -12.66,2.73 -18.89,8.12 -6.3,5.45 -13.24,14.22 -20.84,26.36l-8.96 -6.23c9.15,-15.72 19.15,-27.47 30,-35.26 10.84,-7.79 22.65,-11.69 35.51,-11.69 9.74,0 17.21,2.34 22.27,6.95 5.06,4.61 7.6,11.36 7.6,20.19 0,3.7 -0.39,8.12 -1.24,13.31 -0.84,5.2 -2.07,11.56 -3.7,19.03 9.09,-19.74 18.77,-34.61 29.02,-44.54 10.26,-9.94 20.91,-14.94 31.95,-14.94 8.18,0 14.74,2.67 19.61,7.99 4.87,5.32 7.33,12.34 7.33,21.1 0,7.47 -1.88,13.31 -5.58,17.66 -3.77,4.29 -8.77,6.43 -15.13,6.43 -5.58,0 -10.06,-1.62 -13.44,-4.94 -3.44,-3.24 -5.13,-7.59 -5.13,-12.85 0,-0.65 0.07,-1.88 0.2,-3.83 0.13,-1.88 0.13,-3.44 0.13,-4.74 0,-2.01 -0.33,-3.83 -1.11,-5.58 -0.78,-1.69 -1.68,-2.54 -2.85,-2.54 -7.34,0 -16.37,9.29 -27.08,27.86 -10.71,18.57 -18.76,40.38 -24.22,65.44zm218.56 19.29l9.8 6.29c-9.29,18.31 -20.78,32.14 -34.61,41.56 -13.83,9.41 -29.73,14.09 -47.72,14.09 -19.8,0 -35.32,-6.04 -46.55,-18.18 -11.23,-12.08 -16.82,-28.9 -16.82,-50.32 0,-17.34 3.83,-34.67 11.43,-51.88 7.6,-17.27 17.92,-32.07 31.04,-44.34 10.25,-9.61 21.62,-17.01 34.15,-22.08 12.46,-5.06 25.64,-7.59 39.47,-7.59 15.59,0 27.53,3.24 35.84,9.67 8.31,6.49 12.47,15.78 12.47,27.79 0,18.37 -10.13,32.92 -30.45,43.56 -20.26,10.65 -48.11,15.98 -83.63,15.98 -1.62,8.11 -2.92,15.71 -3.76,22.72 -0.91,7.01 -1.37,13.51 -1.37,19.48 0,12.92 2.6,22.46 7.73,28.5 5.13,6.1 13.05,9.16 23.83,9.16 10.9,0 21.55,-3.9 31.94,-11.76 10.39,-7.79 19.48,-18.69 27.21,-32.65zm-83.11 -48.31c25,-0.39 43.82,-4.67 56.42,-12.85 12.66,-8.12 18.96,-20.07 18.96,-35.78 0,-6.62 -1.95,-11.82 -5.78,-15.71 -3.89,-3.83 -9.09,-5.78 -15.52,-5.78 -12.33,0 -23.05,5.91 -32.2,17.79 -9.09,11.82 -16.43,29.28 -21.88,52.33zm246.85 -59.47c-3.83,-4.09 -8.24,-7.08 -13.31,-8.96 -5.06,-1.89 -11.03,-2.86 -17.85,-2.86 -9.93,0 -17.99,2.66 -24.15,7.92 -6.24,5.26 -9.35,12.08 -9.35,20.58 0,12.08 10.13,23.51 30.32,34.29 2.27,1.1 3.96,2.01 5.13,2.66 18.11,9.87 30.06,18.7 35.97,26.55 5.91,7.79 8.83,17.53 8.83,29.22 0,17.98 -6.43,32.53 -19.29,43.63 -12.85,11.1 -29.8,16.69 -50.83,16.69 -18.64,0 -33.9,-4.35 -45.71,-12.99 -11.88,-8.63 -17.79,-19.61 -17.79,-32.92 0,-6.88 1.75,-12.53 5.32,-17.07 3.51,-4.48 7.99,-6.76 13.44,-6.76 4.55,0 8.38,1.56 11.36,4.68 3.06,3.12 4.61,7.01 4.61,11.69 0,4.41 -1.23,9.15 -3.57,14.15 -2.33,5 -3.5,7.99 -3.5,8.83 0,4.22 3.44,8.18 10.38,11.95 6.95,3.7 15,5.58 24.29,5.58 11.03,0 19.74,-2.79 26.03,-8.37 6.3,-5.59 9.42,-13.31 9.42,-23.18 0,-12.34 -9.87,-23.7 -29.54,-34.09 -2.41,-1.23 -4.35,-2.27 -5.72,-3.05 -16.23,-8.7 -27.4,-17.08 -33.5,-25.06 -6.1,-7.99 -9.15,-17.6 -9.15,-28.9 0,-17.46 5.97,-31.62 17.98,-42.52 12.01,-10.91 27.98,-16.36 47.92,-16.36 17.46,0 32,3.89 43.5,11.75 11.49,7.85 17.2,17.59 17.2,29.28 0,6.04 -1.49,10.97 -4.54,14.61 -3.05,3.7 -7.14,5.52 -12.21,5.52 -4.87,0 -8.89,-1.69 -12.2,-5.07 -3.32,-3.31 -5,-7.46 -5,-12.46 0,-2.54 0.45,-5.33 1.36,-8.44 0.84,-3.12 2.27,-6.63 4.15,-10.52zm164.01 -24.67c20.65,0 37.4,7.2 50.19,21.55 12.79,14.41 19.22,33.37 19.22,56.81 0,31.95 -10.39,59.28 -31.16,82 -20.85,22.66 -45.71,34.03 -74.8,34.03 -22.4,0 -40.06,-7.02 -52.85,-21.11 -12.79,-14.08 -19.22,-33.5 -19.22,-58.23 0,-31.43 10.58,-58.44 31.69,-81.1 21.1,-22.66 46.74,-33.95 76.93,-33.95zm26.95 53.37c0,-12.93 -2.47,-22.86 -7.4,-29.74 -4.94,-6.95 -11.95,-10.39 -21.1,-10.39 -7.86,0 -15.2,2.53 -22.01,7.6 -6.89,5.06 -12.99,12.53 -18.44,22.46 -7.08,13.18 -12.86,28.76 -17.21,46.88 -4.35,18.05 -6.56,35.25 -6.56,51.62 0,12.92 2.54,22.72 7.6,29.34 5.06,6.69 12.53,10 22.4,10 7.86,0 15.52,-3.25 22.92,-9.8 7.4,-6.5 13.76,-15.65 19.09,-27.27 6.23,-13.57 11.23,-28.63 14.99,-45.19 3.84,-16.49 5.72,-31.69 5.72,-45.51zm257.43 23.24l-22.27 65.9c-1.82,5.32 -3.05,9.48 -3.64,12.47 -0.65,2.98 -0.97,5.64 -0.97,7.92 0,3.57 1.04,6.36 3.12,8.5 2.14,2.08 4.93,3.12 8.5,3.12 5.45,0 11.17,-3.05 17.08,-9.09 5.9,-6.04 12.07,-15.06 18.57,-27.14l9.67 4.54c-8.51,17.73 -17.79,30.71 -27.85,39.03 -10.13,8.37 -21.49,12.53 -34.22,12.53 -11.69,0 -20.78,-2.8 -27.2,-8.31 -6.5,-5.52 -9.74,-13.25 -9.74,-23.18 0,-3.7 0.32,-7.53 1.04,-11.56 0.71,-3.96 1.75,-7.99 3.18,-11.88l25.32 -73.3c2.34,-6.3 4.09,-12.15 5.26,-17.53 1.23,-5.39 1.82,-9.61 1.82,-12.79 0,-4.81 -1.04,-8.32 -3.12,-10.59 -2.14,-2.27 -5.33,-3.44 -9.61,-3.44 -11.3,0 -24.61,9.55 -39.93,28.57 -15.39,19.09 -25.58,39.99 -30.65,62.78l-17.2 77.72 -41.68 0 30.25 -136.35c0.91,-4.41 1.56,-8.37 2.08,-11.81 0.52,-3.51 0.78,-6.17 0.78,-8.05 0,-4.48 -0.91,-7.99 -2.73,-10.72 -1.88,-2.72 -4.15,-4.09 -6.95,-4.09 -6.36,0 -12.66,2.73 -18.89,8.12 -6.3,5.45 -13.24,14.22 -20.84,26.36l-8.96 -6.23c9.15,-15.72 19.15,-27.47 30,-35.26 10.84,-7.79 22.72,-11.69 35.51,-11.69 10.06,0 17.73,2.47 23.05,7.34 5.32,4.87 7.99,11.95 7.99,21.36 0,3.05 -0.39,7.21 -1.24,12.47 -0.84,5.19 -2.21,12.07 -4.09,20.58 15.06,-22.66 28.83,-38.63 41.23,-47.85 12.47,-9.29 25.97,-13.9 40.51,-13.9 10.91,0 19.68,3.19 26.3,9.48 6.56,6.37 9.87,14.87 9.87,25.52 0,4.67 -0.65,9.93 -1.88,15.84 -1.3,5.91 -3.77,14.09 -7.47,24.61zm175.3 28.05l13.57 -58.57c-0.9,-10.51 -3.7,-18.57 -8.37,-24.28 -4.68,-5.71 -10.84,-8.57 -18.44,-8.57 -7.86,0 -15.65,3.38 -23.24,10.19 -7.6,6.76 -14.55,16.5 -20.72,29.16 -7.01,14.34 -12.53,29.21 -16.55,44.67 -4.09,15.45 -6.11,28.95 -6.11,40.51 0,11.23 1.76,19.67 5.26,25.26 3.45,5.58 8.77,8.37 15.85,8.37 3.96,0 8.44,-1.69 13.63,-5.13 5.13,-3.44 10.78,-8.63 17.01,-15.58 6.95,-7.86 13.05,-16.23 18.31,-25.13 5.26,-8.89 8.57,-15.84 9.8,-20.9zm26.56 -104.66l38.89 0 -32.66 136.6c-1.23,5.2 -2.2,9.74 -2.92,13.57 -0.71,3.9 -1.04,6.75 -1.04,8.7 0,3.77 1.11,6.82 3.31,9.09 2.21,2.27 5.07,3.44 8.44,3.44 5.07,0 10.2,-2.79 15.39,-8.37 5.2,-5.59 10.32,-13.83 15.39,-24.74l10.45 4.54c-6.94,16.56 -15.71,29.29 -26.29,38.18 -10.52,8.9 -21.95,13.38 -34.22,13.38 -10.26,0 -17.98,-2.54 -23.05,-7.67 -5.06,-5.06 -7.59,-12.72 -7.59,-23.04 0,-2.93 0.19,-6.37 0.58,-10.33 0.39,-3.96 0.97,-8.44 1.69,-13.57 -10.39,17.73 -21.82,31.23 -34.35,40.58 -12.46,9.35 -25.19,14.03 -38.11,14.03 -13.96,0 -24.8,-4.81 -32.46,-14.35 -7.67,-9.61 -11.5,-23.05 -11.5,-40.45 0,-16.1 2.8,-32.47 8.44,-49.15 5.65,-16.69 13.64,-32.01 23.9,-45.97 10.45,-14.15 21.88,-25.13 34.28,-32.85 12.46,-7.73 24.87,-11.62 37.33,-11.62 9.55,0 17.6,1.94 24.15,5.9 6.63,3.9 11.69,9.68 15.26,17.4l6.69 -23.3zm365.4 -80.51c-16.1,6.81 -28.5,14.35 -37.2,22.53 -8.7,8.18 -13.05,16.29 -13.05,24.41 0,2.01 0.26,3.57 0.78,4.67 0.52,1.04 1.17,1.63 2.08,1.63 0.65,0 1.95,-0.2 3.89,-0.59 1.95,-0.39 3.51,-0.58 4.68,-0.58 6.17,0 11.23,2.14 15.13,6.36 3.83,4.29 5.77,9.8 5.77,16.69 0,7.59 -2.53,13.89 -7.53,18.89 -5,5 -11.29,7.53 -18.89,7.53 -8.9,0 -15.97,-3.11 -21.3,-9.41 -5.32,-6.3 -7.98,-14.68 -7.98,-25.19 0,-17.73 5.97,-33.38 17.98,-46.88 11.95,-13.51 29.15,-23.89 51.42,-31.1l4.22 11.04zm-79.86 0c-16.29,6.68 -28.82,14.15 -37.52,22.33 -8.77,8.18 -13.12,16.36 -13.12,24.61 0,1.88 0.26,3.44 0.85,4.54 0.58,1.17 1.36,1.76 2.4,1.76 0.65,0 1.88,-0.2 3.7,-0.59 1.82,-0.39 3.31,-0.58 4.48,-0.58 6.17,0 11.23,2.14 15.13,6.36 3.83,4.29 5.78,9.8 5.78,16.69 0,7.59 -2.47,13.89 -7.34,18.89 -4.87,5 -11.1,7.53 -18.7,7.53 -8.9,0 -16.04,-3.18 -21.49,-9.48 -5.45,-6.36 -8.18,-14.74 -8.18,-25.12 0,-17.73 5.97,-33.31 17.85,-46.69 11.88,-13.37 29.03,-23.82 51.43,-31.29l4.73 11.04zm163.75 221.72c-0.91,4.42 -1.55,8.64 -2.01,12.73 -0.45,4.02 -0.65,6.62 -0.65,7.72 0,5.59 2.34,9.35 6.95,11.37 4.61,2.01 14.09,3.05 28.44,3.05l0 14.8c-14.87,-0.58 -26.88,-0.97 -36.04,-1.23 -9.22,-0.2 -17.2,-0.33 -23.89,-0.33 -4.29,0 -9.93,0.13 -16.95,0.33 -6.94,0.19 -18.5,0.58 -34.6,1.23l0.19 -14.8c10.26,-0.13 17.53,-1.69 21.69,-4.61 4.15,-2.99 7.14,-9.87 8.96,-20.58l31.16 -189.14c0.65,-4.48 1.17,-8.7 1.63,-12.66 0.45,-4.02 0.65,-6.62 0.65,-7.92 0,-4.67 -1.63,-8.11 -4.94,-10.26 -3.31,-2.14 -10.19,-3.76 -20.71,-4.93l0 -14.8c8.96,0.39 16.82,0.65 23.5,0.84 6.63,0.19 12.08,0.32 16.23,0.32 5.46,0 14.81,-0.19 28.05,-0.58 13.25,-0.39 23.77,-0.58 31.49,-0.58 31.82,0 56.16,6.68 72.98,20.06 16.82,13.37 25.19,32.53 25.19,57.52 0,27.79 -9.41,48.57 -28.24,62.46 -18.83,13.9 -47.07,20.84 -84.73,20.84 -5.07,0 -10.39,-0.06 -15.84,-0.26 -5.46,-0.19 -10.98,-0.51 -16.69,-0.9l-11.82 70.31zm14.48 -86.29c2.02,0.13 4.74,0.26 8.18,0.39 5.78,0.26 9.68,0.39 11.56,0.39 26.17,0 44.99,-5.84 56.62,-17.53 11.62,-11.62 17.4,-30.32 17.4,-56.09 0,-19.74 -4.81,-34.09 -14.48,-42.86 -9.61,-8.83 -25.26,-13.24 -46.94,-13.24 -3.19,0 -5.52,0 -6.95,0.06 -1.49,0.07 -2.99,0.26 -4.48,0.52l-20.91 128.36zm208.94 86.16c-0.91,4.09 -1.56,7.66 -2.01,10.78 -0.46,3.05 -0.65,5.58 -0.65,7.47 0,4.41 1.1,7.92 3.24,10.51 2.15,2.6 5.07,3.9 8.7,3.9 5.2,0 10.72,-3.05 16.5,-9.09 5.71,-6.1 11.88,-15.13 18.3,-27.14l9.68 4.74c-8.7,17.92 -18.18,31.03 -28.31,39.48 -10.13,8.44 -21.62,12.66 -34.41,12.66 -11.04,0 -19.61,-2.86 -25.78,-8.64 -6.16,-5.78 -9.22,-13.83 -9.22,-24.09 0,-2.79 0.26,-6.1 0.85,-10 0.58,-3.83 1.56,-8.7 2.98,-14.54l40.52 -184.91c0.97,-4.87 1.82,-9.16 2.34,-13.05 0.58,-3.9 0.91,-6.82 0.91,-8.83 0,-8.9 -8.83,-13.7 -26.49,-14.48 -0.33,0 -0.65,0 -0.91,0l2.46 -12.79c2.41,0 7.08,0.19 13.96,0.58 6.89,0.33 12.08,0.52 15.52,0.52 4.93,0 10.65,-0.19 17.08,-0.52 6.49,-0.39 15.45,-1.1 27.01,-2.2l-52.27 239.64zm192.11 -36.42l13.57 -58.57c-0.9,-10.51 -3.7,-18.57 -8.37,-24.28 -4.68,-5.71 -10.84,-8.57 -18.44,-8.57 -7.86,0 -15.65,3.38 -23.24,10.19 -7.6,6.76 -14.55,16.5 -20.72,29.16 -7.01,14.34 -12.53,29.21 -16.55,44.67 -4.09,15.45 -6.11,28.95 -6.11,40.51 0,11.23 1.76,19.67 5.26,25.26 3.45,5.58 8.77,8.37 15.85,8.37 3.96,0 8.44,-1.69 13.63,-5.13 5.13,-3.44 10.78,-8.63 17.01,-15.58 6.95,-7.86 13.05,-16.23 18.31,-25.13 5.26,-8.89 8.57,-15.84 9.8,-20.9zm26.56 -104.66l38.89 0 -32.66 136.6c-1.23,5.2 -2.2,9.74 -2.92,13.57 -0.71,3.9 -1.04,6.75 -1.04,8.7 0,3.77 1.11,6.82 3.31,9.09 2.21,2.27 5.07,3.44 8.44,3.44 5.07,0 10.2,-2.79 15.39,-8.37 5.2,-5.59 10.32,-13.83 15.39,-24.74l10.45 4.54c-6.94,16.56 -15.71,29.29 -26.29,38.18 -10.52,8.9 -21.95,13.38 -34.22,13.38 -10.26,0 -17.98,-2.54 -23.05,-7.67 -5.06,-5.06 -7.59,-12.72 -7.59,-23.04 0,-2.93 0.19,-6.37 0.58,-10.33 0.39,-3.96 0.97,-8.44 1.69,-13.57 -10.39,17.73 -21.82,31.23 -34.35,40.58 -12.46,9.35 -25.19,14.03 -38.11,14.03 -13.96,0 -24.8,-4.81 -32.46,-14.35 -7.67,-9.61 -11.5,-23.05 -11.5,-40.45 0,-16.1 2.8,-32.47 8.44,-49.15 5.65,-16.69 13.64,-32.01 23.9,-45.97 10.45,-14.15 21.88,-25.13 34.28,-32.85 12.46,-7.73 24.87,-11.62 37.33,-11.62 9.55,0 17.6,1.94 24.15,5.9 6.63,3.9 11.69,9.68 15.26,17.4l6.69 -23.3zm150.76 104.01c-3.7,12.01 -6.17,21.16 -7.47,27.27 -1.23,6.17 -1.88,11.55 -1.88,16.1 0,4.54 1.04,7.99 3.05,10.19 2.01,2.21 5,3.31 8.96,3.31 4.81,0 10.19,-2.33 16.1,-7.01 5.91,-4.74 12.79,-12.07 20.65,-22.07 6.62,-8.64 12.4,-17.79 17.4,-27.53 5.06,-9.68 8.18,-17.27 9.41,-22.73l17.53 -76.87 40.91 0 -31.56 144.98c-10.77,50.06 -23.95,84.15 -39.41,102.2 -15.51,18.05 -37.46,27.07 -65.83,27.07 -18.44,0 -33.44,-3.44 -45.13,-10.26 -11.68,-6.82 -17.53,-15.39 -17.53,-25.64 0,-4.68 1.63,-8.64 4.87,-11.82 3.25,-3.25 7.34,-4.87 12.27,-4.87 6.76,0 12.34,2.53 16.76,7.53 4.48,5 6.68,11.36 6.68,19.09 0,1.62 -0.06,2.99 -0.13,4.09 -0.06,1.04 -0.13,2.27 -0.26,3.7 3.05,1.62 6.24,2.86 9.61,3.7 3.38,0.85 7.01,1.24 10.91,1.24 17.92,0 31.81,-9.03 41.68,-27.01 9.94,-17.99 19.94,-55.97 30.13,-113.95 -12.73,20.52 -25.71,36.1 -38.96,46.68 -13.24,10.65 -26.42,15.97 -39.54,15.97 -9.74,0 -17.33,-2.79 -22.66,-8.37 -5.32,-5.52 -7.98,-13.38 -7.98,-23.51 0,-4.47 0.58,-9.67 1.69,-15.71 1.16,-5.97 3.44,-14.93 6.88,-26.81l17.2 -58.83c1.04,-3.83 1.82,-7.59 2.47,-11.29 0.65,-3.77 0.97,-6.82 0.97,-9.29 0,-4.02 -0.97,-7.07 -2.98,-9.09 -1.95,-2.01 -4.81,-3.05 -8.64,-3.05 -5.45,0 -11.17,2.99 -17.07,9.03 -5.91,6.03 -12.08,15.12 -18.57,27.33l-9.68 -4.8c8.44,-17.66 17.79,-30.71 27.99,-39.16 10.13,-8.44 21.49,-12.66 34.08,-12.66 11.75,0 20.71,2.54 26.75,7.6 6.04,5.13 9.03,12.53 9.03,22.34 0,3.44 -0.46,7.53 -1.37,12.27 -0.84,4.74 -2.2,10.19 -3.96,16.29l-13.37 44.35zm248.53 -93.43c16.11,-6.75 28.57,-14.22 37.4,-22.47 8.83,-8.18 13.25,-16.42 13.25,-24.67 0,-1.88 -0.26,-3.44 -0.85,-4.54 -0.58,-1.17 -1.3,-1.76 -2.2,-1.76 -0.52,0 -1.82,0.13 -3.9,0.39 -2.08,0.26 -3.96,0.39 -5.58,0.39 -5.72,0 -10.46,-2.07 -14.22,-6.29 -3.7,-4.16 -5.59,-9.55 -5.59,-16.17 0,-8.12 2.54,-14.67 7.53,-19.61 5,-4.93 11.56,-7.4 19.68,-7.4 8.24,0 15.06,3.25 20.45,9.8 5.39,6.5 8.05,14.81 8.05,24.8 0,17.86 -5.97,33.57 -17.85,47.01 -11.95,13.44 -29.16,23.89 -51.56,31.36l-4.61 -10.84zm-79.86 -0.39c15.98,-6.69 28.38,-14.15 37.14,-22.4 8.77,-8.25 13.12,-16.49 13.12,-24.74 0,-2.01 -0.2,-3.5 -0.65,-4.48 -0.46,-0.91 -1.11,-1.43 -2.01,-1.43 -0.91,0 -2.28,0.13 -4.16,0.39 -1.95,0.26 -3.38,0.39 -4.42,0.39 -6.03,0 -11.03,-2.14 -14.93,-6.36 -3.83,-4.28 -5.78,-9.8 -5.78,-16.69 0,-7.72 2.47,-14.15 7.34,-19.21 4.87,-5.07 11.1,-7.6 18.7,-7.6 8.89,0 15.97,3.18 21.29,9.61 5.33,6.43 7.99,14.87 7.99,25.38 0,17.86 -5.91,33.51 -17.66,46.82 -11.82,13.31 -28.96,23.7 -51.36,31.16l-4.61 -10.84zm363.21 76.61l-12.53 63.5c2.79,6.69 6.68,11.95 11.68,15.58 5,3.7 10.84,5.52 17.6,5.52 7.07,0 13.83,-2.27 20.19,-6.82 6.3,-4.61 12.01,-11.29 17.07,-20.19 6.63,-11.23 12.08,-25.19 16.5,-41.88 4.35,-16.62 6.55,-31.68 6.55,-45.12 0,-10.39 -1.88,-18.5 -5.71,-24.41 -3.83,-5.91 -9.02,-8.83 -15.58,-8.83 -9.55,0 -18.7,5.06 -27.6,15.13 -8.89,10.06 -18.31,25.9 -28.17,47.52zm-15.26 80.25l-13.64 68.37c-0.13,0.71 -0.39,2.08 -0.78,3.96 -1.03,5.32 -1.55,8.77 -1.55,10.26 0,5.32 1.68,8.96 5,10.84 3.24,1.95 11.55,2.99 24.93,3.25l-1.95 12.85c-2.27,-0.13 -5.78,-0.26 -10.52,-0.52 -19.28,-0.71 -32.53,-1.04 -39.73,-1.04 -5.59,0 -12.34,0.13 -20.2,0.46 -7.85,0.26 -16.42,0.65 -25.71,1.1l2.28 -12.85 3.05 0c12.2,0 19.67,-7.21 22.46,-21.69 0.26,-1.36 0.46,-2.47 0.59,-3.24l36.23 -184.46c0.84,-4.22 1.55,-8.18 2.07,-11.95 0.52,-3.7 0.78,-6.81 0.78,-9.22 0,-4.67 -0.97,-8.24 -2.79,-10.58 -1.82,-2.34 -4.54,-3.51 -8.05,-3.51 -5.13,0 -10.84,2.93 -17.34,8.83 -6.49,5.91 -13.44,14.55 -20.9,25.84l-9.42 -6.23c9.16,-15.52 19.29,-27.14 30.52,-34.8 11.23,-7.73 23.5,-11.56 36.88,-11.56 9.61,0 17.01,2.34 22.07,6.95 5.07,4.68 7.6,11.43 7.6,20.32 0,3.38 -0.26,7.28 -0.85,11.63 -0.58,4.28 -1.49,9.21 -2.79,14.86 10.33,-18.44 21.17,-32.01 32.66,-40.71 11.43,-8.7 24.09,-13.05 37.92,-13.05 14.54,0 25.97,5.52 34.28,16.63 8.31,11.1 12.47,26.55 12.47,46.35 0,34.74 -9.09,64.15 -27.21,88.24 -18.11,24.09 -40.12,36.16 -65.96,36.16 -9.48,0 -17.79,-1.75 -24.81,-5.32 -7.01,-3.57 -12.92,-8.96 -17.59,-16.17zm283.2 -62.39l13.57 -58.57c-0.9,-10.51 -3.7,-18.57 -8.37,-24.28 -4.68,-5.71 -10.84,-8.57 -18.44,-8.57 -7.86,0 -15.65,3.38 -23.24,10.19 -7.6,6.76 -14.55,16.5 -20.72,29.16 -7.01,14.34 -12.53,29.21 -16.55,44.67 -4.09,15.45 -6.11,28.95 -6.11,40.51 0,11.23 1.76,19.67 5.26,25.26 3.45,5.58 8.77,8.37 15.85,8.37 3.96,0 8.44,-1.69 13.63,-5.13 5.13,-3.44 10.78,-8.63 17.01,-15.58 6.95,-7.86 13.05,-16.23 18.31,-25.13 5.26,-8.89 8.57,-15.84 9.8,-20.9zm26.56 -104.66l38.89 0 -32.66 136.6c-1.23,5.2 -2.2,9.74 -2.92,13.57 -0.71,3.9 -1.04,6.75 -1.04,8.7 0,3.77 1.11,6.82 3.31,9.09 2.21,2.27 5.07,3.44 8.44,3.44 5.07,0 10.2,-2.79 15.39,-8.37 5.2,-5.59 10.32,-13.83 15.39,-24.74l10.45 4.54c-6.94,16.56 -15.71,29.29 -26.29,38.18 -10.52,8.9 -21.95,13.38 -34.22,13.38 -10.26,0 -17.98,-2.54 -23.05,-7.67 -5.06,-5.06 -7.59,-12.72 -7.59,-23.04 0,-2.93 0.19,-6.37 0.58,-10.33 0.39,-3.96 0.97,-8.44 1.69,-13.57 -10.39,17.73 -21.82,31.23 -34.35,40.58 -12.46,9.35 -25.19,14.03 -38.11,14.03 -13.96,0 -24.8,-4.81 -32.46,-14.35 -7.67,-9.61 -11.5,-23.05 -11.5,-40.45 0,-16.1 2.8,-32.47 8.44,-49.15 5.65,-16.69 13.64,-32.01 23.9,-45.97 10.45,-14.15 21.88,-25.13 34.28,-32.85 12.46,-7.73 24.87,-11.62 37.33,-11.62 9.55,0 17.6,1.94 24.15,5.9 6.63,3.9 11.69,9.68 15.26,17.4l6.69 -23.3zm150.43 113.16l-17.2 77.72 -41.68 0 30.25 -136.35c0.91,-4.41 1.56,-8.37 2.08,-11.81 0.52,-3.51 0.78,-6.17 0.78,-8.05 0,-4.48 -0.91,-7.99 -2.73,-10.72 -1.88,-2.72 -4.15,-4.09 -6.95,-4.09 -6.36,0 -12.66,2.73 -18.89,8.12 -6.3,5.45 -13.24,14.22 -20.84,26.36l-8.96 -6.23c9.15,-15.72 19.15,-27.47 30,-35.26 10.84,-7.79 22.65,-11.69 35.51,-11.69 9.74,0 17.21,2.34 22.27,6.95 5.06,4.61 7.6,11.36 7.6,20.19 0,3.7 -0.39,8.12 -1.24,13.31 -0.84,5.2 -2.07,11.56 -3.7,19.03 9.09,-19.74 18.77,-34.61 29.02,-44.54 10.26,-9.94 20.91,-14.94 31.95,-14.94 8.18,0 14.74,2.67 19.61,7.99 4.87,5.32 7.33,12.34 7.33,21.1 0,7.47 -1.88,13.31 -5.58,17.66 -3.77,4.29 -8.77,6.43 -15.13,6.43 -5.58,0 -10.06,-1.62 -13.44,-4.94 -3.44,-3.24 -5.13,-7.59 -5.13,-12.85 0,-0.65 0.07,-1.88 0.2,-3.83 0.13,-1.88 0.13,-3.44 0.13,-4.74 0,-2.01 -0.33,-3.83 -1.11,-5.58 -0.78,-1.69 -1.68,-2.54 -2.85,-2.54 -7.34,0 -16.37,9.29 -27.08,27.86 -10.71,18.57 -18.76,40.38 -24.22,65.44z"/>
    <path class="fil0 str0" d="M3595.67 210.03l13.57 -58.57c-0.9,-10.51 -3.7,-18.57 -8.37,-24.28 -4.68,-5.71 -10.84,-8.57 -18.44,-8.57 -7.86,0 -15.65,3.38 -23.24,10.19 -7.6,6.76 -14.55,16.5 -20.72,29.16 -7.01,14.34 -12.53,29.21 -16.55,44.67 -4.09,15.45 -6.11,28.95 -6.11,40.51 0,11.23 1.76,19.67 5.26,25.26 3.45,5.58 8.77,8.37 15.85,8.37 3.96,0 8.44,-1.69 13.63,-5.13 5.13,-3.44 10.78,-8.63 17.01,-15.58 6.95,-7.86 13.05,-16.23 18.31,-25.13 5.26,-8.89 8.57,-15.84 9.8,-20.9zm26.56 -104.66l38.89 0 -32.66 136.6c-1.23,5.2 -2.2,9.74 -2.92,13.57 -0.71,3.9 -1.04,6.75 -1.04,8.7 0,3.77 1.11,6.82 3.31,9.09 2.21,2.27 5.07,3.44 8.44,3.44 5.07,0 10.2,-2.79 15.39,-8.37 5.2,-5.59 10.32,-13.83 15.39,-24.74l10.45 4.54c-6.94,16.56 -15.71,29.29 -26.29,38.18 -10.52,8.9 -21.95,13.38 -34.22,13.38 -10.26,0 -17.98,-2.54 -23.05,-7.67 -5.06,-5.06 -7.59,-12.72 -7.59,-23.04 0,-2.93 0.19,-6.37 0.58,-10.33 0.39,-3.96 0.97,-8.44 1.69,-13.57 -10.39,17.73 -21.82,31.23 -34.35,40.58 -12.46,9.35 -25.19,14.03 -38.11,14.03 -13.96,0 -24.8,-4.81 -32.46,-14.35 -7.67,-9.61 -11.5,-23.05 -11.5,-40.45 0,-16.1 2.8,-32.47 8.44,-49.15 5.65,-16.69 13.64,-32.01 23.9,-45.97 10.45,-14.15 21.88,-25.13 34.28,-32.85 12.46,-7.73 24.87,-11.62 37.33,-11.62 9.55,0 17.6,1.94 24.15,5.9 6.63,3.9 11.69,9.68 15.26,17.4l6.69 -23.3zm324.83 132.45l9.8 6.29c-9.29,18.31 -20.78,32.14 -34.61,41.56 -13.83,9.41 -29.73,14.09 -47.72,14.09 -19.8,0 -35.32,-6.04 -46.55,-18.18 -11.23,-12.08 -16.82,-28.9 -16.82,-50.32 0,-17.34 3.83,-34.67 11.43,-51.88 7.6,-17.27 17.92,-32.07 31.04,-44.34 10.25,-9.61 21.62,-17.01 34.15,-22.08 12.46,-5.06 25.64,-7.59 39.47,-7.59 15.59,0 27.53,3.24 35.84,9.67 8.31,6.49 12.47,15.78 12.47,27.79 0,18.37 -10.13,32.92 -30.45,43.56 -20.26,10.65 -48.11,15.98 -83.63,15.98 -1.62,8.11 -2.92,15.71 -3.76,22.72 -0.91,7.01 -1.37,13.51 -1.37,19.48 0,12.92 2.6,22.46 7.73,28.5 5.13,6.1 13.05,9.16 23.83,9.16 10.9,0 21.55,-3.9 31.94,-11.76 10.39,-7.79 19.48,-18.69 27.21,-32.65zm-83.11 -48.31c25,-0.39 43.82,-4.67 56.42,-12.85 12.66,-8.12 18.96,-20.07 18.96,-35.78 0,-6.62 -1.95,-11.82 -5.78,-15.71 -3.89,-3.83 -9.09,-5.78 -15.52,-5.78 -12.33,0 -23.05,5.91 -32.2,17.79 -9.09,11.82 -16.43,29.28 -21.88,52.33zm246.85 -59.47c-3.83,-4.09 -8.24,-7.08 -13.31,-8.96 -5.06,-1.89 -11.03,-2.86 -17.85,-2.86 -9.93,0 -17.99,2.66 -24.15,7.92 -6.24,5.26 -9.35,12.08 -9.35,20.58 0,12.08 10.13,23.51 30.32,34.29 2.27,1.1 3.96,2.01 5.13,2.66 18.11,9.87 30.06,18.7 35.97,26.55 5.91,7.79 8.83,17.53 8.83,29.22 0,17.98 -6.43,32.53 -19.29,43.63 -12.85,11.1 -29.8,16.69 -50.83,16.69 -18.64,0 -33.9,-4.35 -45.71,-12.99 -11.88,-8.63 -17.79,-19.61 -17.79,-32.92 0,-6.88 1.75,-12.53 5.32,-17.07 3.51,-4.48 7.99,-6.76 13.44,-6.76 4.55,0 8.38,1.56 11.36,4.68 3.06,3.12 4.61,7.01 4.61,11.69 0,4.41 -1.23,9.15 -3.57,14.15 -2.33,5 -3.5,7.99 -3.5,8.83 0,4.22 3.44,8.18 10.38,11.95 6.95,3.7 15,5.58 24.29,5.58 11.03,0 19.74,-2.79 26.03,-8.37 6.3,-5.59 9.42,-13.31 9.42,-23.18 0,-12.34 -9.87,-23.7 -29.54,-34.09 -2.41,-1.23 -4.35,-2.27 -5.72,-3.05 -16.23,-8.7 -27.4,-17.08 -33.5,-25.06 -6.1,-7.99 -9.15,-17.6 -9.15,-28.9 0,-17.46 5.97,-31.62 17.98,-42.52 12.01,-10.91 27.98,-16.36 47.92,-16.36 17.46,0 32,3.89 43.5,11.75 11.49,7.85 17.2,17.59 17.2,29.28 0,6.04 -1.49,10.97 -4.54,14.61 -3.05,3.7 -7.14,5.52 -12.21,5.52 -4.87,0 -8.89,-1.69 -12.2,-5.07 -3.32,-3.31 -5,-7.46 -5,-12.46 0,-2.54 0.45,-5.33 1.36,-8.44 0.84,-3.12 2.27,-6.63 4.15,-10.52zm212.71 110.76c-8.12,20 -18.96,34.8 -32.53,44.48 -13.57,9.67 -30.26,14.48 -50.06,14.48 -23.31,0 -41.75,-6.82 -55.25,-20.46 -13.51,-13.63 -20.26,-32.2 -20.26,-55.83 0,-32.34 10.59,-60.06 31.69,-83.3 21.1,-23.18 46.42,-34.8 75.83,-34.8 17.01,0 30.78,4.09 41.36,12.33 10.58,8.25 15.91,18.77 15.91,31.69 0,6.68 -1.63,12.14 -4.94,16.36 -3.31,4.15 -7.66,6.23 -12.98,6.23 -5.46,0 -9.87,-2.01 -13.18,-6.1 -3.38,-4.03 -5.07,-9.29 -5.07,-15.71 0,-2.54 0.33,-6.11 0.98,-10.65 0.58,-4.55 0.91,-7.92 0.91,-10.07 0,-3.05 -1.82,-5.45 -5.39,-7.33 -3.64,-1.82 -8.64,-2.73 -15,-2.73 -17.86,0 -32.92,10.32 -45.13,30.9 -12.14,20.65 -18.24,46.17 -18.24,76.62 0,17.98 3.7,31.81 11.04,41.55 7.33,9.68 17.85,14.54 31.42,14.54 12.21,0 23.51,-4.15 33.89,-12.53 10.39,-8.31 18.7,-19.99 24.94,-34.99l10.06 5.32zm94.4 -5.84c-3.18,9.8 -5.26,16.62 -6.1,20.58 -0.91,3.9 -1.36,7.21 -1.36,9.87 0,4.67 1.04,8.18 3.05,10.39 2.01,2.21 5.32,3.31 9.87,3.31 11.3,0 24.67,-9.54 40.12,-28.63 15.52,-19.09 25.71,-39.93 30.65,-62.53l17.2 -77.52 41.3 0 -29.87 135.96c-1.17,5.32 -1.95,9.61 -2.47,12.92 -0.52,3.31 -0.78,5.71 -0.78,7.27 0,3.89 0.91,7.01 2.67,9.22 1.75,2.21 4.22,3.31 7.2,3.31 6.76,0 13.18,-2.47 19.35,-7.4 6.17,-4.94 12.92,-13.25 20.26,-24.93l9.48 5.9c-8.96,15.78 -18.96,27.53 -30,35.32 -10.97,7.86 -22.98,11.76 -36.1,11.76 -10,0 -17.66,-2.41 -22.85,-7.15 -5.2,-4.74 -7.79,-11.88 -7.79,-21.23 0,-4.22 0.39,-9.15 1.23,-14.8 0.84,-5.65 2.08,-11.88 3.7,-18.76 -14.93,22.59 -28.63,38.56 -41.03,47.91 -12.47,9.35 -25.91,14.03 -40.32,14.03 -11.04,0 -19.87,-3.12 -26.36,-9.42 -6.56,-6.3 -9.81,-14.87 -9.81,-25.64 0,-4.68 0.65,-10 2.02,-15.98 1.3,-5.97 3.76,-14.09 7.33,-24.21l22.27 -66.23c1.43,-4.67 2.47,-8.63 3.18,-11.88 0.72,-3.18 1.04,-5.97 1.04,-8.25 0,-3.37 -0.91,-6.16 -2.72,-8.24 -1.89,-2.08 -4.29,-3.12 -7.34,-3.12 -5.06,0 -10.84,3.25 -17.34,9.68 -6.42,6.42 -12.72,15.45 -18.82,26.94l-10.65 -5.52c9.54,-17.59 19.41,-30.58 29.8,-38.89 10.32,-8.31 21.68,-12.47 34.09,-12.47 10.84,0 19.34,2.73 25.64,8.25 6.3,5.52 9.42,13.12 9.42,22.79 0,3.76 -0.33,7.79 -1.04,11.95 -0.72,4.22 -1.76,8.24 -3.18,12.2l-24.94 73.24zm336.07 5.84c-8.12,20 -18.96,34.8 -32.53,44.48 -13.57,9.67 -30.26,14.48 -50.06,14.48 -23.31,0 -41.75,-6.82 -55.25,-20.46 -13.51,-13.63 -20.26,-32.2 -20.26,-55.83 0,-32.34 10.59,-60.06 31.69,-83.3 21.1,-23.18 46.42,-34.8 75.83,-34.8 17.01,0 30.78,4.09 41.36,12.33 10.58,8.25 15.91,18.77 15.91,31.69 0,6.68 -1.63,12.14 -4.94,16.36 -3.31,4.15 -7.66,6.23 -12.98,6.23 -5.46,0 -9.87,-2.01 -13.18,-6.1 -3.38,-4.03 -5.07,-9.29 -5.07,-15.71 0,-2.54 0.33,-6.11 0.98,-10.65 0.58,-4.55 0.91,-7.92 0.91,-10.07 0,-3.05 -1.82,-5.45 -5.39,-7.33 -3.64,-1.82 -8.64,-2.73 -15,-2.73 -17.86,0 -32.92,10.32 -45.13,30.9 -12.14,20.65 -18.24,46.17 -18.24,76.62 0,17.98 3.7,31.81 11.04,41.55 7.33,9.68 17.85,14.54 31.42,14.54 12.21,0 23.51,-4.15 33.89,-12.53 10.39,-8.31 18.7,-19.99 24.94,-34.99l10.06 5.32zm98.17 -76.16c14.09,-21.1 27.2,-36.03 39.28,-44.86 12.14,-8.83 25.32,-13.25 39.54,-13.25 10.91,0 19.61,3.12 26.04,9.42 6.49,6.3 9.74,14.8 9.74,25.58 0,5.13 -0.65,10.71 -2.02,16.88 -1.3,6.17 -3.63,14.02 -6.94,23.7l-22.14 65.77c-1.89,5.84 -3.19,10.19 -3.77,13.05 -0.65,2.86 -0.97,5.32 -0.97,7.34 0,3.57 1.03,6.36 3.11,8.5 2.14,2.08 4.94,3.12 8.51,3.12 5.45,0 11.17,-3.05 17.07,-9.09 5.91,-6.04 12.08,-15.06 18.57,-27.14l9.68 4.54c-8.51,17.73 -17.79,30.71 -27.86,39.03 -10.13,8.37 -21.49,12.53 -34.21,12.53 -11.69,0 -20.78,-2.8 -27.21,-8.31 -6.49,-5.52 -9.74,-13.25 -9.74,-23.18 0,-3.7 0.33,-7.53 1.04,-11.56 0.72,-3.96 1.76,-7.99 3.18,-11.88l24.94 -73.17c2.46,-6.76 4.28,-12.73 5.58,-18.05 1.23,-5.33 1.88,-9.48 1.88,-12.34 0,-4.87 -1.04,-8.38 -3.11,-10.65 -2.15,-2.27 -5.33,-3.44 -9.61,-3.44 -11.3,0 -24.74,9.61 -40.19,28.89 -15.52,19.22 -25.65,40.06 -30.45,62.53l-16.37 77.65 -40.51 0 48.7 -238.35c0.97,-5.97 1.68,-10.45 2.07,-13.5 0.39,-3.05 0.59,-5.71 0.59,-7.99 0,-8.96 -7.6,-13.83 -22.86,-14.61 -1.62,0 -2.98,-0.06 -3.96,-0.19l2.28 -12.86c1.36,0 3.44,0.07 6.1,0.2 11.23,0.39 18.96,0.58 23.18,0.58 4.28,0 9.48,-0.19 15.51,-0.58 5.98,-0.33 15.33,-1.04 28.05,-2.14l-32.72 157.83zm281.65 45.39l13.57 -58.57c-0.9,-10.51 -3.7,-18.57 -8.37,-24.28 -4.68,-5.71 -10.84,-8.57 -18.44,-8.57 -7.86,0 -15.65,3.38 -23.24,10.19 -7.6,6.76 -14.55,16.5 -20.72,29.16 -7.01,14.34 -12.53,29.21 -16.55,44.67 -4.09,15.45 -6.11,28.95 -6.11,40.51 0,11.23 1.76,19.67 5.26,25.26 3.45,5.58 8.77,8.37 15.85,8.37 3.96,0 8.44,-1.69 13.63,-5.13 5.13,-3.44 10.78,-8.63 17.01,-15.58 6.95,-7.86 13.05,-16.23 18.31,-25.13 5.26,-8.89 8.57,-15.84 9.8,-20.9zm26.56 -104.66l38.89 0 -32.66 136.6c-1.23,5.2 -2.2,9.74 -2.92,13.57 -0.71,3.9 -1.04,6.75 -1.04,8.7 0,3.77 1.11,6.82 3.31,9.09 2.21,2.27 5.07,3.44 8.44,3.44 5.07,0 10.2,-2.79 15.39,-8.37 5.2,-5.59 10.32,-13.83 15.39,-24.74l10.45 4.54c-6.94,16.56 -15.71,29.29 -26.29,38.18 -10.52,8.9 -21.95,13.38 -34.22,13.38 -10.26,0 -17.98,-2.54 -23.05,-7.67 -5.06,-5.06 -7.59,-12.72 -7.59,-23.04 0,-2.93 0.19,-6.37 0.58,-10.33 0.39,-3.96 0.97,-8.44 1.69,-13.57 -10.39,17.73 -21.82,31.23 -34.35,40.58 -12.46,9.35 -25.19,14.03 -38.11,14.03 -13.96,0 -24.8,-4.81 -32.46,-14.35 -7.67,-9.61 -11.5,-23.05 -11.5,-40.45 0,-16.1 2.8,-32.47 8.44,-49.15 5.65,-16.69 13.64,-32.01 23.9,-45.97 10.45,-14.15 21.88,-25.13 34.28,-32.85 12.46,-7.73 24.87,-11.62 37.33,-11.62 9.55,0 17.6,1.94 24.15,5.9 6.63,3.9 11.69,9.68 15.26,17.4l6.69 -23.3zm150.43 113.16l-17.2 77.72 -41.68 0 30.25 -136.35c0.91,-4.41 1.56,-8.37 2.08,-11.81 0.52,-3.51 0.78,-6.17 0.78,-8.05 0,-4.48 -0.91,-7.99 -2.73,-10.72 -1.88,-2.72 -4.15,-4.09 -6.95,-4.09 -6.36,0 -12.66,2.73 -18.89,8.12 -6.3,5.45 -13.24,14.22 -20.84,26.36l-8.96 -6.23c9.15,-15.72 19.15,-27.47 30,-35.26 10.84,-7.79 22.65,-11.69 35.51,-11.69 9.74,0 17.21,2.34 22.27,6.95 5.06,4.61 7.6,11.36 7.6,20.19 0,3.7 -0.39,8.12 -1.24,13.31 -0.84,5.2 -2.07,11.56 -3.7,19.03 9.09,-19.74 18.77,-34.61 29.02,-44.54 10.26,-9.94 20.91,-14.94 31.95,-14.94 8.18,0 14.74,2.67 19.61,7.99 4.87,5.32 7.33,12.34 7.33,21.1 0,7.47 -1.88,13.31 -5.58,17.66 -3.77,4.29 -8.77,6.43 -15.13,6.43 -5.58,0 -10.06,-1.62 -13.44,-4.94 -3.44,-3.24 -5.13,-7.59 -5.13,-12.85 0,-0.65 0.07,-1.88 0.2,-3.83 0.13,-1.88 0.13,-3.44 0.13,-4.74 0,-2.01 -0.33,-3.83 -1.11,-5.58 -0.78,-1.69 -1.68,-2.54 -2.85,-2.54 -7.34,0 -16.37,9.29 -27.08,27.86 -10.71,18.57 -18.76,40.38 -24.22,65.44zm395.86 -52.52c14.68,-21.82 28.18,-37.14 40.39,-46.1 12.2,-8.9 25.45,-13.38 39.67,-13.38 10.84,0 19.61,3.12 26.1,9.42 6.56,6.23 9.8,14.8 9.8,25.58 0,4.93 -0.71,10.58 -2.07,16.88 -1.43,6.36 -3.71,14.22 -6.82,23.57l-22.21 65.9c-1.75,5.32 -2.98,9.48 -3.7,12.47 -0.71,2.98 -1.04,5.64 -1.04,7.92 0,3.57 1.11,6.36 3.25,8.5 2.14,2.08 5,3.12 8.51,3.12 5.45,0 11.1,-3.05 16.88,-9.09 5.84,-6.04 12.01,-15.06 18.44,-27.14l9.67 4.54c-8.44,17.73 -17.73,30.71 -27.72,39.03 -10,8.37 -21.37,12.53 -34.03,12.53 -11.68,0 -20.77,-2.8 -27.27,-8.31 -6.55,-5.52 -9.8,-13.25 -9.8,-23.18 0,-3.7 0.39,-7.53 1.17,-11.56 0.71,-3.96 1.82,-8.05 3.18,-12.08l24.87 -73.1c2.4,-7.08 4.22,-13.18 5.52,-18.38 1.23,-5.19 1.88,-9.15 1.88,-11.94 0,-4.81 -1.04,-8.32 -3.12,-10.59 -2.07,-2.27 -5.39,-3.44 -9.8,-3.44 -11.17,0 -24.35,9.55 -39.74,28.7 -15.32,19.09 -25.51,39.99 -30.58,62.65l-17.27 77.72 -41.61 0 30.77 -132.9c1.17,-5.2 2.01,-9.74 2.6,-13.64 0.58,-3.9 0.84,-7.14 0.84,-9.67 0,-3.9 -0.91,-7.02 -2.66,-9.35 -1.75,-2.34 -4.29,-3.51 -7.4,-3.51 -10.33,0 -22.99,9.61 -37.98,28.89 -15.07,19.22 -25,40.06 -29.81,62.46l-17.2 77.72 -41.68 0 30.25 -136.35c0.91,-4.41 1.56,-8.37 2.08,-11.81 0.52,-3.51 0.78,-6.17 0.78,-8.05 0,-4.48 -0.91,-7.99 -2.73,-10.72 -1.88,-2.72 -4.15,-4.09 -6.95,-4.09 -6.36,0 -12.66,2.73 -18.89,8.12 -6.3,5.45 -13.24,14.22 -20.84,26.36l-8.96 -6.23c9.15,-15.72 19.15,-27.47 30,-35.26 10.84,-7.79 22.72,-11.69 35.51,-11.69 10.06,0 17.73,2.47 23.05,7.34 5.32,4.87 7.99,11.95 7.99,21.36 0,3.05 -0.39,7.21 -1.24,12.47 -0.84,5.19 -2.21,12.07 -4.09,20.58 14.16,-21.56 27.6,-37.2 40.19,-47.01 12.6,-9.8 25.52,-14.74 38.7,-14.74 9.67,0 17.07,2.47 22.27,7.34 5.19,4.87 7.79,11.75 7.79,20.58 0,3.44 -0.39,7.66 -1.17,12.66 -0.71,5 -2.01,11.3 -3.77,18.9zm220.75 86.22c0,0.13 -0.07,0.45 -0.19,0.97 -1.37,5.46 -2.08,9.55 -2.08,12.21 0,4.67 1.04,8.31 3.11,10.78 2.15,2.46 5.07,3.7 8.9,3.7 5.45,0 11.04,-2.99 16.75,-8.9 5.71,-5.9 11.88,-14.99 18.44,-27.33l9.74 4.54c-8.77,17.73 -18.18,30.71 -28.18,39.03 -10.06,8.37 -21.36,12.53 -33.89,12.53 -11.56,0 -20.52,-2.8 -26.95,-8.38 -6.42,-5.65 -9.61,-13.5 -9.61,-23.7 0,-2.79 0.33,-6.04 1.04,-9.74 0.72,-3.63 1.76,-8.05 3.18,-13.11l26.62 -91.16c0.65,-2.34 1.17,-4.67 1.63,-7.14 0.45,-2.47 0.65,-4.74 0.65,-6.75 0,-4.09 -0.91,-7.21 -2.73,-9.35 -1.88,-2.15 -4.41,-3.25 -7.73,-3.25 -4.8,0 -9.86,2.79 -15.19,8.31 -5.39,5.52 -11.36,14.03 -18.11,25.58l-10.07 -5.32c8.25,-16.3 17.86,-28.5 28.9,-36.62 11.03,-8.12 23.37,-12.21 36.94,-12.21 9.15,0 16.49,2.47 22.07,7.47 5.59,4.93 8.38,11.56 8.38,19.8 0,3.44 -0.39,7.27 -1.17,11.62 -0.71,4.36 -1.88,9.16 -3.38,14.48l-27.07 91.94zm17.21 -226.33c6.42,0 11.81,1.88 16.1,5.71 4.35,3.83 6.49,8.63 6.49,14.48 0,7.98 -2.6,14.87 -7.79,20.64 -5.2,5.78 -11.3,8.64 -18.25,8.64 -6.23,0 -11.36,-2.08 -15.38,-6.17 -4.09,-4.15 -6.11,-9.22 -6.11,-15.32 0,-7.99 2.41,-14.67 7.15,-20 4.74,-5.32 10.64,-7.98 17.79,-7.98zm326.71 214.9c-8.12,20 -18.96,34.8 -32.53,44.48 -13.57,9.67 -30.26,14.48 -50.06,14.48 -23.31,0 -41.75,-6.82 -55.25,-20.46 -13.51,-13.63 -20.26,-32.2 -20.26,-55.83 0,-32.34 10.59,-60.06 31.69,-83.3 21.1,-23.18 46.42,-34.8 75.83,-34.8 17.01,0 30.78,4.09 41.36,12.33 10.58,8.25 15.91,18.77 15.91,31.69 0,6.68 -1.63,12.14 -4.94,16.36 -3.31,4.15 -7.66,6.23 -12.98,6.23 -5.46,0 -9.87,-2.01 -13.18,-6.1 -3.38,-4.03 -5.07,-9.29 -5.07,-15.71 0,-2.54 0.33,-6.11 0.98,-10.65 0.58,-4.55 0.91,-7.92 0.91,-10.07 0,-3.05 -1.82,-5.45 -5.39,-7.33 -3.64,-1.82 -8.64,-2.73 -15,-2.73 -17.86,0 -32.92,10.32 -45.13,30.9 -12.14,20.65 -18.24,46.17 -18.24,76.62 0,17.98 3.7,31.81 11.04,41.55 7.33,9.68 17.85,14.54 31.42,14.54 12.21,0 23.51,-4.15 33.89,-12.53 10.39,-8.31 18.7,-19.99 24.94,-34.99l10.06 5.32zm151.21 -30.77l13.57 -58.57c-0.9,-10.51 -3.7,-18.57 -8.37,-24.28 -4.68,-5.71 -10.84,-8.57 -18.44,-8.57 -7.86,0 -15.65,3.38 -23.24,10.19 -7.6,6.76 -14.55,16.5 -20.72,29.16 -7.01,14.34 -12.53,29.21 -16.55,44.67 -4.09,15.45 -6.11,28.95 -6.11,40.51 0,11.23 1.76,19.67 5.26,25.26 3.45,5.58 8.77,8.37 15.85,8.37 3.96,0 8.44,-1.69 13.63,-5.13 5.13,-3.44 10.78,-8.63 17.01,-15.58 6.95,-7.86 13.05,-16.23 18.31,-25.13 5.26,-8.89 8.57,-15.84 9.8,-20.9zm26.56 -104.66l38.89 0 -32.66 136.6c-1.23,5.2 -2.2,9.74 -2.92,13.57 -0.71,3.9 -1.04,6.75 -1.04,8.7 0,3.77 1.11,6.82 3.31,9.09 2.21,2.27 5.07,3.44 8.44,3.44 5.07,0 10.2,-2.79 15.39,-8.37 5.2,-5.59 10.32,-13.83 15.39,-24.74l10.45 4.54c-6.94,16.56 -15.71,29.29 -26.29,38.18 -10.52,8.9 -21.95,13.38 -34.22,13.38 -10.26,0 -17.98,-2.54 -23.05,-7.67 -5.06,-5.06 -7.59,-12.72 -7.59,-23.04 0,-2.93 0.19,-6.37 0.58,-10.33 0.39,-3.96 0.97,-8.44 1.69,-13.57 -10.39,17.73 -21.82,31.23 -34.35,40.58 -12.46,9.35 -25.19,14.03 -38.11,14.03 -13.96,0 -24.8,-4.81 -32.46,-14.35 -7.67,-9.61 -11.5,-23.05 -11.5,-40.45 0,-16.1 2.8,-32.47 8.44,-49.15 5.65,-16.69 13.64,-32.01 23.9,-45.97 10.45,-14.15 21.88,-25.13 34.28,-32.85 12.46,-7.73 24.87,-11.62 37.33,-11.62 9.55,0 17.6,1.94 24.15,5.9 6.63,3.9 11.69,9.68 15.26,17.4l6.69 -23.3zm266.07 76.61l-22.27 65.9c-1.82,5.32 -3.05,9.48 -3.64,12.47 -0.65,2.98 -0.97,5.64 -0.97,7.92 0,3.57 1.04,6.36 3.12,8.5 2.14,2.08 4.93,3.12 8.5,3.12 5.45,0 11.17,-3.05 17.08,-9.09 5.9,-6.04 12.07,-15.06 18.57,-27.14l9.67 4.54c-8.51,17.73 -17.79,30.71 -27.85,39.03 -10.13,8.37 -21.49,12.53 -34.22,12.53 -11.69,0 -20.78,-2.8 -27.2,-8.31 -6.5,-5.52 -9.74,-13.25 -9.74,-23.18 0,-3.7 0.32,-7.53 1.04,-11.56 0.71,-3.96 1.75,-7.99 3.18,-11.88l25.32 -73.3c2.34,-6.3 4.09,-12.15 5.26,-17.53 1.23,-5.39 1.82,-9.61 1.82,-12.79 0,-4.81 -1.04,-8.32 -3.12,-10.59 -2.14,-2.27 -5.33,-3.44 -9.61,-3.44 -11.3,0 -24.61,9.55 -39.93,28.57 -15.39,19.09 -25.58,39.99 -30.65,62.78l-17.2 77.72 -41.68 0 30.25 -136.35c0.91,-4.41 1.56,-8.37 2.08,-11.81 0.52,-3.51 0.78,-6.17 0.78,-8.05 0,-4.48 -0.91,-7.99 -2.73,-10.72 -1.88,-2.72 -4.15,-4.09 -6.95,-4.09 -6.36,0 -12.66,2.73 -18.89,8.12 -6.3,5.45 -13.24,14.22 -20.84,26.36l-8.96 -6.23c9.15,-15.72 19.15,-27.47 30,-35.26 10.84,-7.79 22.72,-11.69 35.51,-11.69 10.06,0 17.73,2.47 23.05,7.34 5.32,4.87 7.99,11.95 7.99,21.36 0,3.05 -0.39,7.21 -1.24,12.47 -0.84,5.19 -2.21,12.07 -4.09,20.58 15.06,-22.66 28.83,-38.63 41.23,-47.85 12.47,-9.29 25.97,-13.9 40.51,-13.9 10.91,0 19.68,3.19 26.3,9.48 6.56,6.37 9.87,14.87 9.87,25.52 0,4.67 -0.65,9.93 -1.88,15.84 -1.3,5.91 -3.77,14.09 -7.47,24.61zm211.47 58.82c-8.12,20 -18.96,34.8 -32.53,44.48 -13.57,9.67 -30.26,14.48 -50.06,14.48 -23.31,0 -41.75,-6.82 -55.25,-20.46 -13.51,-13.63 -20.26,-32.2 -20.26,-55.83 0,-32.34 10.59,-60.06 31.69,-83.3 21.1,-23.18 46.42,-34.8 75.83,-34.8 17.01,0 30.78,4.09 41.36,12.33 10.58,8.25 15.91,18.77 15.91,31.69 0,6.68 -1.63,12.14 -4.94,16.36 -3.31,4.15 -7.66,6.23 -12.98,6.23 -5.46,0 -9.87,-2.01 -13.18,-6.1 -3.38,-4.03 -5.07,-9.29 -5.07,-15.71 0,-2.54 0.33,-6.11 0.98,-10.65 0.58,-4.55 0.91,-7.92 0.91,-10.07 0,-3.05 -1.82,-5.45 -5.39,-7.33 -3.64,-1.82 -8.64,-2.73 -15,-2.73 -17.86,0 -32.92,10.32 -45.13,30.9 -12.14,20.65 -18.24,46.17 -18.24,76.62 0,17.98 3.7,31.81 11.04,41.55 7.33,9.68 17.85,14.54 31.42,14.54 12.21,0 23.51,-4.15 33.89,-12.53 10.39,-8.31 18.7,-19.99 24.94,-34.99l10.06 5.32zm89.21 11.43c0,0.13 -0.07,0.45 -0.19,0.97 -1.37,5.46 -2.08,9.55 -2.08,12.21 0,4.67 1.04,8.31 3.11,10.78 2.15,2.46 5.07,3.7 8.9,3.7 5.45,0 11.04,-2.99 16.75,-8.9 5.71,-5.9 11.88,-14.99 18.44,-27.33l9.74 4.54c-8.77,17.73 -18.18,30.71 -28.18,39.03 -10.06,8.37 -21.36,12.53 -33.89,12.53 -11.56,0 -20.52,-2.8 -26.95,-8.38 -6.42,-5.65 -9.61,-13.5 -9.61,-23.7 0,-2.79 0.33,-6.04 1.04,-9.74 0.72,-3.63 1.76,-8.05 3.18,-13.11l26.62 -91.16c0.65,-2.34 1.17,-4.67 1.63,-7.14 0.45,-2.47 0.65,-4.74 0.65,-6.75 0,-4.09 -0.91,-7.21 -2.73,-9.35 -1.88,-2.15 -4.41,-3.25 -7.73,-3.25 -4.8,0 -9.86,2.79 -15.19,8.31 -5.39,5.52 -11.36,14.03 -18.11,25.58l-10.07 -5.32c8.25,-16.3 17.86,-28.5 28.9,-36.62 11.03,-8.12 23.37,-12.21 36.94,-12.21 9.15,0 16.49,2.47 22.07,7.47 5.59,4.93 8.38,11.56 8.38,19.8 0,3.44 -0.39,7.27 -1.17,11.62 -0.71,4.36 -1.88,9.16 -3.38,14.48l-27.07 91.94zm17.21 -226.33c6.42,0 11.81,1.88 16.1,5.71 4.35,3.83 6.49,8.63 6.49,14.48 0,7.98 -2.6,14.87 -7.79,20.64 -5.2,5.78 -11.3,8.64 -18.25,8.64 -6.23,0 -11.36,-2.08 -15.38,-6.17 -4.09,-4.15 -6.11,-9.22 -6.11,-15.32 0,-7.99 2.41,-14.67 7.15,-20 4.74,-5.32 10.64,-7.98 17.79,-7.98z"/>
    <path class="fil0 str0" d="M7197.7 105.37c20.65,0 37.4,7.2 50.19,21.55 12.79,14.41 19.22,33.37 19.22,56.81 0,31.95 -10.39,59.28 -31.16,82 -20.85,22.66 -45.71,34.03 -74.8,34.03 -22.4,0 -40.06,-7.02 -52.85,-21.11 -12.79,-14.08 -19.22,-33.5 -19.22,-58.23 0,-31.43 10.58,-58.44 31.69,-81.1 21.1,-22.66 46.74,-33.95 76.93,-33.95zm26.95 53.37c0,-12.93 -2.47,-22.86 -7.4,-29.74 -4.94,-6.95 -11.95,-10.39 -21.1,-10.39 -7.86,0 -15.2,2.53 -22.01,7.6 -6.89,5.06 -12.99,12.53 -18.44,22.46 -7.08,13.18 -12.86,28.76 -17.21,46.88 -4.35,18.05 -6.56,35.25 -6.56,51.62 0,12.92 2.54,22.72 7.6,29.34 5.06,6.69 12.53,10 22.4,10 7.86,0 15.52,-3.25 22.92,-9.8 7.4,-6.5 13.76,-15.65 19.09,-27.27 6.23,-13.57 11.23,-28.63 14.99,-45.19 3.84,-16.49 5.72,-31.69 5.72,-45.51zm-37.46 -74.41l-18.64 0 56.49 -57.2c4.02,-4.16 7.98,-7.4 11.75,-9.61 3.83,-2.21 7.47,-3.31 10.84,-3.31 4.68,0 8.57,1.62 11.69,4.93 3.12,3.31 4.67,7.34 4.67,12.14 0,3.58 -1.16,6.76 -3.44,9.55 -2.27,2.79 -6.04,5.65 -11.36,8.5l-62 35zm294.89 97.65l-22.27 65.9c-1.82,5.32 -3.05,9.48 -3.64,12.47 -0.65,2.98 -0.97,5.64 -0.97,7.92 0,3.57 1.04,6.36 3.12,8.5 2.14,2.08 4.93,3.12 8.5,3.12 5.45,0 11.17,-3.05 17.08,-9.09 5.9,-6.04 12.07,-15.06 18.57,-27.14l9.67 4.54c-8.51,17.73 -17.79,30.71 -27.85,39.03 -10.13,8.37 -21.49,12.53 -34.22,12.53 -11.69,0 -20.78,-2.8 -27.2,-8.31 -6.5,-5.52 -9.74,-13.25 -9.74,-23.18 0,-3.7 0.32,-7.53 1.04,-11.56 0.71,-3.96 1.75,-7.99 3.18,-11.88l25.32 -73.3c2.34,-6.3 4.09,-12.15 5.26,-17.53 1.23,-5.39 1.82,-9.61 1.82,-12.79 0,-4.81 -1.04,-8.32 -3.12,-10.59 -2.14,-2.27 -5.33,-3.44 -9.61,-3.44 -11.3,0 -24.61,9.55 -39.93,28.57 -15.39,19.09 -25.58,39.99 -30.65,62.78l-17.2 77.72 -41.68 0 30.25 -136.35c0.91,-4.41 1.56,-8.37 2.08,-11.81 0.52,-3.51 0.78,-6.17 0.78,-8.05 0,-4.48 -0.91,-7.99 -2.73,-10.72 -1.88,-2.72 -4.15,-4.09 -6.95,-4.09 -6.36,0 -12.66,2.73 -18.89,8.12 -6.3,5.45 -13.24,14.22 -20.84,26.36l-8.96 -6.23c9.15,-15.72 19.15,-27.47 30,-35.26 10.84,-7.79 22.72,-11.69 35.51,-11.69 10.06,0 17.73,2.47 23.05,7.34 5.32,4.87 7.99,11.95 7.99,21.36 0,3.05 -0.39,7.21 -1.24,12.47 -0.84,5.19 -2.21,12.07 -4.09,20.58 15.06,-22.66 28.83,-38.63 41.23,-47.85 12.47,-9.29 25.97,-13.9 40.51,-13.9 10.91,0 19.68,3.19 26.3,9.48 6.56,6.37 9.87,14.87 9.87,25.52 0,4.67 -0.65,9.93 -1.88,15.84 -1.3,5.91 -3.77,14.09 -7.47,24.61zm90.77 67.13c6.75,0 12.47,2.47 17.34,7.34 4.8,4.87 7.2,10.58 7.2,17.21 0,7.07 -2.33,12.98 -7.01,17.59 -4.74,4.61 -10.71,6.95 -17.92,6.95 -6.49,0 -12.08,-2.47 -16.95,-7.34 -4.8,-4.87 -7.2,-10.71 -7.2,-17.59 0,-6.37 2.47,-11.95 7.4,-16.82 4.93,-4.87 10.65,-7.34 17.14,-7.34z"/>
   </g>
   <path class="fil0" d="M1286.76 931.84l5023.9 0c36.23,0 69.21,14.84 93.1,38.72 23.92,23.93 38.76,56.91 38.76,93.14l0 853.04c0,36.25 -14.84,69.21 -38.72,93.1 -23.93,23.92 -56.91,38.76 -93.14,38.76l-5023.9 0c-36.25,0 -69.21,-14.84 -93.1,-38.72 -23.92,-23.93 -38.76,-56.89 -38.76,-93.14l0 -853.04c0,-36.23 14.84,-69.21 38.72,-93.1 23.93,-23.92 56.89,-38.76 93.14,-38.76zm5023.9 20l-5023.9 0c-30.77,0 -58.75,12.59 -79.02,32.84 -20.25,20.27 -32.84,48.26 -32.84,79.02l0 853.04c0,30.77 12.59,58.75 32.84,79.02 20.27,20.25 48.25,32.84 79.02,32.84l5023.9 0c30.76,0 58.75,-12.59 79.02,-32.84 20.25,-20.27 32.84,-48.25 32.84,-79.02l0 -853.04c0,-30.76 -12.59,-58.75 -32.84,-79.02 -20.27,-20.25 -48.26,-32.84 -79.02,-32.84z"/>
   <path class="fil1" d="M3687.67 1575.86l0 -194.43c0,-112.11 -0.48,-143.18 104.48,-75.42l145.13 93.7c126.62,81.75 164.48,82.87 26.35,172.05l-124.32 80.26c-146.35,94.51 -151.64,76.59 -151.64,-76.16zm-1696.01 -215.3l10.85 32.64c16.85,50.72 27.11,34.83 84.54,34.72 88.11,-0.16 111.25,11.04 25.27,71.47 -51.3,36.06 -65.9,25.45 -46.27,83.77 17.77,52.76 70.79,159.38 -44.12,77.96 -65.93,-46.72 -76.89,-43.81 -140.99,1.61 -74.92,53.09 -89.59,62.21 -52.09,-49.18 28.88,-85.76 35.78,-63.69 -29.77,-109.76 -55.41,-38.95 -141.86,-76.17 9.3,-75.89 102.31,0.19 78.76,11.95 108.45,-77.44 37.17,-111.81 45.59,-77.91 74.83,10.1zm3698.45 -25.09c19.35,-19.91 42.67,-29.89 77.12,-29.89 58.75,0 106.44,42.6 106.44,95.08 0,61.14 -44.01,122.28 -103.71,183.42 -110.26,112.89 -93.73,122.06 -199.66,18.67 -68.98,-67.36 -122.4,-134.72 -122.4,-202.09 0,-52.48 47.69,-95.08 106.44,-95.08 34.58,0 57.93,10.04 77.33,30.1 20.25,20.94 37.39,21.43 58.44,-0.21zm-1314.51 207.69l0 -120.19c0,-69.31 -0.3,-88.51 64.58,-46.62l89.72 57.92c78.27,50.53 101.68,51.23 16.29,106.36l-76.85 49.61c-90.47,58.43 -93.74,47.35 -93.74,-47.08zm-1012.36 0l0 -120.19c0,-69.31 0.3,-88.51 -64.58,-46.62l-89.72 57.92c-78.27,50.53 -101.68,51.23 -16.29,106.36l76.85 49.61c90.47,58.43 93.74,47.35 93.74,-47.08zm-254.3 0l0 -120.19c0,-69.31 0.3,-88.51 -64.58,-46.62l-89.72 57.92c-78.27,50.53 -101.68,51.23 -16.29,106.36l76.85 49.61c90.47,58.43 93.74,47.35 93.74,-47.08zm1520.96 0l0 -120.19c0,-69.31 -0.3,-88.51 64.58,-46.62l89.72 57.92c78.27,50.53 101.68,51.23 16.29,106.36l-76.85 49.61c-90.47,58.43 -93.74,47.35 -93.74,-47.08z"/>
   <g>
    <path class="fil0 str0" d="M447.99 3269.22l15.77 0c-3.4,15.68 -6.27,32.49 -8.8,50.35 -2.44,17.85 -4.61,36.93 -6.44,57.23l-17.6 0 0 -4.1c0,-33.18 -6.45,-57.92 -19.34,-74.04 -12.8,-16.2 -32.32,-24.3 -58.54,-24.3 -20.29,0 -36.58,5.75 -48.95,17.24 -12.29,11.5 -18.47,26.66 -18.47,45.56 0,22.13 21.34,46.43 64.11,73 5.49,3.4 9.76,6.01 12.81,7.93 34.49,21.43 57.84,40.16 70.04,56.01 12.1,15.94 18.2,33.98 18.2,54.27 0,31.1 -11.84,57.24 -35.45,78.23 -23.61,20.99 -53.31,31.53 -89.03,31.53 -19.95,0 -38.5,-3.13 -55.75,-9.49 -17.25,-6.36 -33.1,-15.94 -47.56,-28.75l-6.89 20.47 -16.11 0c3.74,-20.82 6.88,-41.2 9.49,-61.24 2.53,-20.12 4.36,-39.54 5.58,-58.45l18.64 0c-0.35,5.58 -0.61,9.76 -0.7,12.37 -0.08,2.62 -0.08,5.14 -0.08,7.49 0,30.32 7.75,54.1 23.25,71.35 15.42,17.25 36.59,25.87 63.51,25.87 21.08,0 37.89,-6.1 50.26,-18.21 12.46,-12.19 18.64,-28.66 18.64,-49.39 0,-27.53 -25.08,-56.97 -75.35,-88.24l-7.4 -4.53c-32.32,-20.3 -53.66,-37.29 -64.12,-51.05 -10.45,-13.76 -15.68,-29.53 -15.68,-47.21 0,-30.84 11.33,-56.1 33.89,-75.97 22.65,-19.77 52.09,-29.7 88.33,-29.7 15.94,0 31.71,2.61 47.22,7.93 15.42,5.22 30.75,13.24 45.9,23.95l6.62 -16.11zm214.91 248.53l18.21 -78.58c-1.22,-14.11 -4.97,-24.91 -11.24,-32.58 -6.27,-7.66 -14.55,-11.5 -24.74,-11.5 -10.54,0 -20.99,4.53 -31.19,13.68 -10.19,9.06 -19.51,22.13 -27.78,39.11 -9.41,19.25 -16.82,39.2 -22.22,59.93 -5.49,20.74 -8.19,38.86 -8.19,54.36 0,15.07 2.36,26.4 7.06,33.89 4.62,7.49 11.76,11.24 21.26,11.24 5.31,0 11.32,-2.27 18.29,-6.89 6.88,-4.61 14.46,-11.58 22.82,-20.9 9.32,-10.54 17.51,-21.78 24.57,-33.71 7.05,-11.94 11.5,-21.26 13.15,-28.05zm35.63 -140.43l52.18 0 -43.82 183.28c-1.65,6.97 -2.96,13.07 -3.92,18.21 -0.96,5.23 -1.39,9.06 -1.39,11.67 0,5.06 1.48,9.15 4.44,12.2 2.96,3.05 6.8,4.62 11.33,4.62 6.79,0 13.67,-3.75 20.64,-11.24 6.97,-7.49 13.85,-18.56 20.65,-33.19l14.02 6.1c-9.32,22.21 -21.08,39.28 -35.28,51.22 -14.11,11.93 -29.44,17.94 -45.91,17.94 -13.76,0 -24.13,-3.39 -30.92,-10.28 -6.8,-6.79 -10.19,-17.07 -10.19,-30.92 0,-3.92 0.26,-8.54 0.78,-13.85 0.52,-5.31 1.31,-11.33 2.27,-18.21 -13.94,23.78 -29.27,41.9 -46.09,54.45 -16.72,12.54 -33.8,18.81 -51.13,18.81 -18.73,0 -33.28,-6.44 -43.56,-19.25 -10.28,-12.89 -15.42,-30.92 -15.42,-54.27 0,-21.6 3.75,-43.55 11.33,-65.94 7.58,-22.39 18.29,-42.95 32.06,-61.68 14.02,-18.99 29.35,-33.71 45.99,-44.08 16.73,-10.36 33.37,-15.59 50.09,-15.59 12.81,0 23.61,2.62 32.41,7.93 8.88,5.23 15.68,12.98 20.47,23.34l8.97 -31.27zm-52.96 -28.22l-25.01 0 75.79 -76.75c5.4,-5.57 10.72,-9.93 15.77,-12.89 5.14,-2.96 10.02,-4.44 14.55,-4.44 6.27,0 11.5,2.17 15.68,6.62 4.18,4.44 6.27,9.84 6.27,16.29 0,4.79 -1.57,9.06 -4.62,12.8 -3.05,3.75 -8.1,7.58 -15.24,11.41l-83.19 46.96zm232.76 168.12l-15.25 70.74c-0.35,1.3 -0.61,2.87 -0.78,4.44 -0.17,1.66 -0.26,3.66 -0.26,6.01 0,7.14 2.52,12.63 7.49,16.38 5.05,3.74 12.28,5.57 21.86,5.57 13.77,0 26.49,-4.27 38.16,-12.89 11.59,-8.62 22.47,-21.78 32.49,-39.46 10.37,-18.73 18.99,-39.72 25.79,-63.16 6.79,-23.43 10.19,-42.94 10.19,-58.62 0,-12.2 -2.18,-21.26 -6.62,-27.18 -4.44,-5.84 -11.15,-8.8 -20.21,-8.8 -13.94,0 -28.66,8.97 -44.25,26.92 -15.51,17.94 -31.71,44.69 -48.61,80.05zm7.4 -49.04c15.86,-28.49 32.32,-49.83 49.39,-63.94 17.08,-14.11 34.94,-21.17 53.49,-21.17 20.04,0 35.89,7.06 47.48,21.17 11.58,14.11 17.33,33.54 17.33,58.28 0,47.82 -15.24,89.03 -45.82,123.7 -30.57,34.58 -66.64,51.91 -108.37,51.91 -11.67,0 -22.12,-1.13 -31.27,-3.48 -9.06,-2.35 -17.77,-6.01 -26.13,-11.24l-38.24 13.16 -12.03 -6.71c5.32,-9.32 9.67,-18.99 13.16,-29.01 3.48,-9.93 6.62,-21.78 9.32,-35.37l49.74 -252.1c1.05,-5.57 1.92,-10.97 2.61,-16.29 0.61,-5.22 0.96,-9.49 0.96,-12.72 -0.17,-11.76 -9.75,-18.03 -28.83,-18.9 -3.05,-0.17 -5.4,-0.35 -7.15,-0.52l3.05 -17.25c1.92,0 4.53,0.09 7.93,0.26 15.16,0.52 25.52,0.78 31.19,0.78 5.92,0 12.89,-0.26 20.9,-0.78 8.02,-0.43 20.56,-1.39 37.72,-2.87l-46.43 223.09zm362.65 49.57l18.21 -78.58c-1.22,-14.11 -4.97,-24.91 -11.24,-32.58 -6.27,-7.66 -14.55,-11.5 -24.74,-11.5 -10.54,0 -20.99,4.53 -31.19,13.68 -10.19,9.06 -19.51,22.13 -27.78,39.11 -9.41,19.25 -16.82,39.2 -22.22,59.93 -5.49,20.74 -8.19,38.86 -8.19,54.36 0,15.07 2.36,26.4 7.06,33.89 4.62,7.49 11.76,11.24 21.26,11.24 5.31,0 11.32,-2.27 18.29,-6.89 6.88,-4.61 14.46,-11.58 22.82,-20.9 9.32,-10.54 17.51,-21.78 24.57,-33.71 7.05,-11.94 11.5,-21.26 13.15,-28.05zm35.63 -140.43l52.18 0 -43.82 183.28c-1.65,6.97 -2.96,13.07 -3.92,18.21 -0.96,5.23 -1.39,9.06 -1.39,11.67 0,5.06 1.48,9.15 4.44,12.2 2.96,3.05 6.8,4.62 11.33,4.62 6.79,0 13.67,-3.75 20.64,-11.24 6.97,-7.49 13.85,-18.56 20.65,-33.19l14.02 6.1c-9.32,22.21 -21.08,39.28 -35.28,51.22 -14.11,11.93 -29.44,17.94 -45.91,17.94 -13.76,0 -24.13,-3.39 -30.92,-10.28 -6.8,-6.79 -10.19,-17.07 -10.19,-30.92 0,-3.92 0.26,-8.54 0.78,-13.85 0.52,-5.31 1.31,-11.33 2.27,-18.21 -13.94,23.78 -29.27,41.9 -46.09,54.45 -16.72,12.54 -33.8,18.81 -51.13,18.81 -18.73,0 -33.28,-6.44 -43.56,-19.25 -10.28,-12.89 -15.42,-30.92 -15.42,-54.27 0,-21.6 3.75,-43.55 11.33,-65.94 7.58,-22.39 18.29,-42.95 32.06,-61.68 14.02,-18.99 29.35,-33.71 45.99,-44.08 16.73,-10.36 33.37,-15.59 50.09,-15.59 12.81,0 23.61,2.62 32.41,7.93 8.88,5.23 15.68,12.98 20.47,23.34l8.97 -31.27zm267.08 145.3l16.64 -73.17c-1.74,-12.89 -5.75,-22.82 -12.02,-29.79 -6.27,-6.97 -14.29,-10.46 -23.96,-10.46 -10.54,0 -20.81,4.36 -30.92,12.98 -10.02,8.72 -18.99,21.09 -27,37.2 -8.72,17.34 -15.6,35.54 -20.65,54.62 -5.14,18.99 -7.67,35.8 -7.67,50.44 0,13.41 2.53,23.87 7.67,31.27 5.05,7.41 12.28,11.06 21.69,11.06 6.45,0 12.89,-1.83 19.25,-5.48 6.36,-3.66 13.24,-9.41 20.56,-17.25 8.8,-9.5 16.55,-19.95 23.26,-31.45 6.79,-11.5 11.15,-21.52 13.15,-29.97zm44.87 45.39c-0.61,2.7 -1.14,5.49 -1.48,8.36 -0.35,2.96 -0.53,5.93 -0.53,8.97 0,6.97 1.4,12.29 4.18,15.95 2.88,3.65 6.97,5.48 12.37,5.48 6.97,0 13.94,-3.48 20.82,-10.45 6.89,-6.97 14.38,-18.12 22.57,-33.45l13.24 6.1c-11.33,23.95 -23.87,41.46 -37.55,52.53 -13.76,11.06 -29.62,16.63 -47.56,16.63 -12.98,0 -22.91,-3.65 -29.88,-10.97 -6.97,-7.41 -10.45,-17.77 -10.45,-31.28 0,-3.74 0.34,-8.01 1.13,-12.8 0.78,-4.79 2.09,-10.8 4.01,-18.21 -15.51,24.92 -31.28,43.38 -47.31,55.32 -15.94,11.93 -33.01,17.94 -51.04,17.94 -19.78,0 -35.2,-6.7 -46.35,-20.03 -11.15,-13.33 -16.72,-31.97 -16.72,-55.75 0,-20.47 3.57,-40.95 10.63,-61.5 7.05,-20.65 17.07,-39.64 29.96,-56.97 13.77,-18.39 29.01,-32.58 45.56,-42.6 16.64,-10.02 33.19,-15.07 49.65,-15.07 13.16,0 23.96,2.52 32.58,7.66 8.54,5.14 15.51,12.98 20.82,23.78l23.44 -103.92c1.39,-5.84 2.44,-11.32 3.13,-16.46 0.79,-5.23 1.22,-9.5 1.22,-12.9 -0.17,-12.1 -12.72,-18.46 -37.54,-19.16 -1.66,-0.18 -2.96,-0.26 -3.84,-0.26l3.14 -17.25c2.53,0 6.45,0.09 11.67,0.26 14.81,0.52 25,0.78 30.67,0.78 7.23,0 15.76,-0.26 25.43,-0.87 9.76,-0.52 21.78,-1.48 36.24,-2.78l-72.21 322.92zm241.47 -190.69c27.7,0 50.17,9.67 67.34,28.92 17.16,19.34 25.78,44.78 25.78,76.23 0,42.85 -13.94,79.53 -41.81,110.02 -27.97,30.4 -61.33,45.64 -100.36,45.64 -30.05,0 -53.74,-9.4 -70.9,-28.31 -17.17,-18.9 -25.79,-44.95 -25.79,-78.14 0,-42.16 14.2,-78.4 42.51,-108.8 28.31,-30.4 62.72,-45.56 103.23,-45.56zm36.15 71.61c0,-17.34 -3.31,-30.67 -9.93,-39.9 -6.62,-9.32 -16.03,-13.94 -28.31,-13.94 -10.54,0 -20.39,3.4 -29.53,10.19 -9.24,6.8 -17.43,16.82 -24.74,30.15 -9.5,17.68 -17.25,38.59 -23.09,62.89 -5.83,24.22 -8.8,47.3 -8.8,69.25 0,17.34 3.4,30.49 10.2,39.38 6.79,8.97 16.81,13.41 30.05,13.41 10.54,0 20.82,-4.35 30.75,-13.15 9.93,-8.71 18.47,-20.99 25.61,-36.59 8.36,-18.2 15.07,-38.41 20.12,-60.63 5.14,-22.12 7.67,-42.51 7.67,-61.06zm71.77 258.28c21.61,-8.97 38.33,-18.99 50.18,-30.05 11.85,-11.06 17.77,-22.13 17.77,-33.19 0,-2.53 -0.35,-4.62 -1.13,-6.1 -0.79,-1.57 -1.75,-2.35 -2.97,-2.35 -1.04,0 -2.78,0.17 -5.22,0.52 -2.44,0.35 -4.36,0.53 -5.75,0.53 -8.45,0 -15.33,-2.79 -20.56,-8.45 -5.14,-5.58 -7.75,-13.07 -7.75,-22.48 0,-10.36 3.31,-18.9 9.84,-25.52 6.53,-6.62 14.9,-9.93 25.09,-9.93 11.93,0 21.52,4.35 28.83,12.98 7.32,8.71 10.98,20.12 10.98,34.23 0,23.78 -7.93,44.69 -23.87,62.55 -15.94,17.86 -39.03,31.79 -69.25,41.81l-6.19 -14.55zm1138.47 -184.59l16.64 -73.17c-1.74,-12.89 -5.75,-22.82 -12.02,-29.79 -6.27,-6.97 -14.29,-10.46 -23.96,-10.46 -10.54,0 -20.81,4.36 -30.92,12.98 -10.02,8.72 -18.99,21.09 -27,37.2 -8.72,17.34 -15.6,35.54 -20.65,54.62 -5.14,18.99 -7.67,35.8 -7.67,50.44 0,13.41 2.53,23.87 7.67,31.27 5.05,7.41 12.28,11.06 21.69,11.06 6.45,0 12.89,-1.83 19.25,-5.48 6.36,-3.66 13.24,-9.41 20.56,-17.25 8.8,-9.5 16.55,-19.95 23.26,-31.45 6.79,-11.5 11.15,-21.52 13.15,-29.97zm44.87 45.39c-0.61,2.7 -1.14,5.49 -1.48,8.36 -0.35,2.96 -0.53,5.93 -0.53,8.97 0,6.97 1.4,12.29 4.18,15.95 2.88,3.65 6.97,5.48 12.37,5.48 6.97,0 13.94,-3.48 20.82,-10.45 6.89,-6.97 14.38,-18.12 22.57,-33.45l13.24 6.1c-11.33,23.95 -23.87,41.46 -37.55,52.53 -13.76,11.06 -29.62,16.63 -47.56,16.63 -12.98,0 -22.91,-3.65 -29.88,-10.97 -6.97,-7.41 -10.45,-17.77 -10.45,-31.28 0,-3.74 0.34,-8.01 1.13,-12.8 0.78,-4.79 2.09,-10.8 4.01,-18.21 -15.51,24.92 -31.28,43.38 -47.31,55.32 -15.94,11.93 -33.01,17.94 -51.04,17.94 -19.78,0 -35.2,-6.7 -46.35,-20.03 -11.15,-13.33 -16.72,-31.97 -16.72,-55.75 0,-20.47 3.57,-40.95 10.63,-61.5 7.05,-20.65 17.07,-39.64 29.96,-56.97 13.77,-18.39 29.01,-32.58 45.56,-42.6 16.64,-10.02 33.19,-15.07 49.65,-15.07 13.16,0 23.96,2.52 32.58,7.66 8.54,5.14 15.51,12.98 20.82,23.78l23.44 -103.92c1.39,-5.84 2.44,-11.32 3.13,-16.46 0.79,-5.23 1.22,-9.5 1.22,-12.9 -0.17,-12.1 -12.72,-18.46 -37.54,-19.16 -1.66,-0.18 -2.96,-0.26 -3.84,-0.26l3.14 -17.25c2.53,0 6.45,0.09 11.67,0.26 14.81,0.52 25,0.78 30.67,0.78 7.23,0 15.76,-0.26 25.43,-0.87 9.76,-0.52 21.78,-1.48 36.24,-2.78l-72.21 322.92zm275.44 -12.98l13.16 8.45c-12.46,24.56 -27.88,43.12 -46.43,55.75 -18.56,12.63 -39.9,18.9 -64.03,18.9 -26.57,0 -47.39,-8.1 -62.46,-24.39 -15.07,-16.2 -22.56,-38.76 -22.56,-67.51 0,-23.26 5.14,-46.52 15.33,-69.6 10.19,-23.17 24.04,-43.03 41.64,-59.5 13.76,-12.89 29.01,-22.82 45.82,-29.62 16.72,-6.79 34.41,-10.19 52.96,-10.19 20.91,0 36.94,4.36 48.09,12.98 11.15,8.71 16.72,21.17 16.72,37.29 0,24.65 -13.59,44.16 -40.85,58.45 -27.18,14.28 -64.55,21.43 -112.2,21.43 -2.18,10.89 -3.92,21.08 -5.05,30.49 -1.22,9.4 -1.83,18.11 -1.83,26.13 0,17.33 3.48,30.14 10.36,38.24 6.89,8.19 17.51,12.28 31.97,12.28 14.64,0 28.92,-5.22 42.86,-15.76 13.94,-10.46 26.14,-25.09 36.5,-43.82zm-111.5 -64.81c33.54,-0.52 58.8,-6.27 75.7,-17.25 16.99,-10.89 25.44,-26.92 25.44,-48 0,-8.88 -2.62,-15.85 -7.76,-21.08 -5.22,-5.14 -12.19,-7.75 -20.82,-7.75 -16.55,0 -30.92,7.92 -43.2,23.87 -12.2,15.85 -22.04,39.28 -29.36,70.21zm2221 32.4l16.64 -73.17c-1.74,-12.89 -5.75,-22.82 -12.02,-29.79 -6.27,-6.97 -14.29,-10.46 -23.96,-10.46 -10.54,0 -20.81,4.36 -30.92,12.98 -10.02,8.72 -18.99,21.09 -27,37.2 -8.72,17.34 -15.6,35.54 -20.65,54.62 -5.14,18.99 -7.67,35.8 -7.67,50.44 0,13.41 2.53,23.87 7.67,31.27 5.05,7.41 12.28,11.06 21.69,11.06 6.45,0 12.89,-1.83 19.25,-5.48 6.36,-3.66 13.24,-9.41 20.56,-17.25 8.8,-9.5 16.55,-19.95 23.26,-31.45 6.79,-11.5 11.15,-21.52 13.15,-29.97zm44.87 45.39c-0.61,2.7 -1.14,5.49 -1.48,8.36 -0.35,2.96 -0.53,5.93 -0.53,8.97 0,6.97 1.4,12.29 4.18,15.95 2.88,3.65 6.97,5.48 12.37,5.48 6.97,0 13.94,-3.48 20.82,-10.45 6.89,-6.97 14.38,-18.12 22.57,-33.45l13.24 6.1c-11.33,23.95 -23.87,41.46 -37.55,52.53 -13.76,11.06 -29.62,16.63 -47.56,16.63 -12.98,0 -22.91,-3.65 -29.88,-10.97 -6.97,-7.41 -10.45,-17.77 -10.45,-31.28 0,-3.74 0.34,-8.01 1.13,-12.8 0.78,-4.79 2.09,-10.8 4.01,-18.21 -15.51,24.92 -31.28,43.38 -47.31,55.32 -15.94,11.93 -33.01,17.94 -51.04,17.94 -19.78,0 -35.2,-6.7 -46.35,-20.03 -11.15,-13.33 -16.72,-31.97 -16.72,-55.75 0,-20.47 3.57,-40.95 10.63,-61.5 7.05,-20.65 17.07,-39.64 29.96,-56.97 13.77,-18.39 29.01,-32.58 45.56,-42.6 16.64,-10.02 33.19,-15.07 49.65,-15.07 13.16,0 23.96,2.52 32.58,7.66 8.54,5.14 15.51,12.98 20.82,23.78l23.44 -103.92c1.39,-5.84 2.44,-11.32 3.13,-16.46 0.79,-5.23 1.22,-9.5 1.22,-12.9 -0.17,-12.1 -12.72,-18.46 -37.54,-19.16 -1.66,-0.18 -2.96,-0.26 -3.84,-0.26l3.14 -17.25c2.53,0 6.45,0.09 11.67,0.26 14.81,0.52 25,0.78 30.67,0.78 7.23,0 15.76,-0.26 25.43,-0.87 9.76,-0.52 21.78,-1.48 36.24,-2.78l-72.21 322.92zm275.44 -12.98l13.16 8.45c-12.46,24.56 -27.88,43.12 -46.43,55.75 -18.56,12.63 -39.9,18.9 -64.03,18.9 -26.57,0 -47.39,-8.1 -62.46,-24.39 -15.07,-16.2 -22.56,-38.76 -22.56,-67.51 0,-23.26 5.14,-46.52 15.33,-69.6 10.19,-23.17 24.04,-43.03 41.64,-59.5 13.76,-12.89 29.01,-22.82 45.82,-29.62 16.72,-6.79 34.41,-10.19 52.96,-10.19 20.91,0 36.94,4.36 48.09,12.98 11.15,8.71 16.72,21.17 16.72,37.29 0,24.65 -13.59,44.16 -40.85,58.45 -27.18,14.28 -64.55,21.43 -112.2,21.43 -2.18,10.89 -3.92,21.08 -5.05,30.49 -1.22,9.4 -1.83,18.11 -1.83,26.13 0,17.33 3.48,30.14 10.36,38.24 6.89,8.19 17.51,12.28 31.97,12.28 14.64,0 28.92,-5.22 42.86,-15.76 13.94,-10.46 26.14,-25.09 36.5,-43.82zm-111.5 -64.81c33.54,-0.52 58.8,-6.27 75.7,-17.25 16.99,-10.89 25.44,-26.92 25.44,-48 0,-8.88 -2.62,-15.85 -7.76,-21.08 -5.22,-5.14 -12.19,-7.75 -20.82,-7.75 -16.55,0 -30.92,7.92 -43.2,23.87 -12.2,15.85 -22.04,39.28 -29.36,70.21zm248.01 76.4c-1.22,5.48 -2.09,10.27 -2.7,14.46 -0.61,4.09 -0.87,7.49 -0.87,10.01 0,5.93 1.48,10.63 4.35,14.12 2.88,3.48 6.8,5.22 11.68,5.22 6.97,0 14.37,-4.09 22.12,-12.19 7.67,-8.19 15.95,-20.3 24.57,-36.42l12.98 6.36c-11.67,24.05 -24.39,41.64 -37.98,52.97 -13.59,11.32 -29.01,16.98 -46.17,16.98 -14.81,0 -26.31,-3.83 -34.58,-11.58 -8.28,-7.75 -12.37,-18.56 -12.37,-32.32 0,-3.75 0.34,-8.19 1.13,-13.42 0.78,-5.14 2.09,-11.67 4.01,-19.51l54.35 -248.09c1.31,-6.54 2.44,-12.29 3.14,-17.51 0.78,-5.23 1.22,-9.15 1.22,-11.85 0,-11.93 -11.85,-18.38 -35.54,-19.43 -0.44,0 -0.87,0 -1.22,0l3.31 -17.16c3.22,0 9.49,0.27 18.73,0.79 9.23,0.43 16.2,0.69 20.82,0.69 6.62,0 14.28,-0.26 22.91,-0.69 8.71,-0.52 20.73,-1.48 36.24,-2.96l-70.13 321.53zm492.27 -27.79l14.81 3.83c-8.02,39.98 -16.38,65.94 -25.18,77.7 -8.71,11.85 -22.12,17.77 -40.16,17.77 -19.68,0 -44.95,-2.61 -75.78,-7.84 -30.75,-5.14 -51.14,-7.75 -61.24,-7.75 -7.41,0 -15.33,1.13 -23.7,3.57 -8.36,2.35 -18.2,6.19 -29.62,11.5l-10.88 -18.2c25.35,-31.28 60.19,-65.16 104.62,-101.75l5.14 -4.36c38.24,-31.27 64.02,-57.32 77.26,-78.05 13.33,-20.82 19.95,-42.68 19.95,-65.59 0,-24.48 -6.79,-44 -20.29,-58.46 -13.51,-14.46 -31.89,-21.69 -55.06,-21.69 -22.47,0 -41.38,6.71 -56.8,20.13 -15.41,13.41 -23.08,29.61 -23.08,48.43 0,2.79 0.17,5.58 0.52,8.45 0.35,2.87 0.87,5.75 1.48,8.71 13.85,0.26 24.66,3.75 32.58,10.19 7.93,6.45 11.85,14.9 11.85,25.44 0,7.67 -2.26,13.94 -6.97,18.82 -4.7,4.79 -10.89,7.23 -18.55,7.23 -12.55,0 -23.26,-6.54 -31.89,-19.52 -8.71,-13.06 -13.06,-29.18 -13.06,-48.34 0,-31.36 11.06,-56.89 33.27,-76.58 22.22,-19.77 51.14,-29.61 86.94,-29.61 35.37,0 63.68,10.01 85.02,30.14 21.34,20.03 32.06,46.78 32.06,80.14 0,23.08 -5.31,44.34 -15.94,63.77 -10.63,19.42 -26.57,36.84 -47.83,52.35 -4.96,3.57 -27.44,17.25 -67.51,40.94 -40.07,23.78 -72.04,48.7 -96.08,74.92 16.2,-9.06 30.31,-15.59 42.25,-19.78 12.02,-4.18 22.82,-6.27 32.58,-6.27 8.45,0 22.91,1.57 43.38,4.71 20.38,3.13 36.59,4.7 48.43,4.7 11.24,0 20.47,-3.66 27.7,-11.06 7.23,-7.41 13.86,-20.3 19.78,-38.59zm275.62 -152.27c0,-34.67 -4.44,-60.55 -13.24,-77.71 -8.89,-17.07 -22.22,-25.61 -40.07,-25.61 -27.18,0 -50.01,21.69 -68.47,65.07 -18.47,43.39 -27.7,98.35 -27.7,164.82 0,34.76 4.61,60.89 13.76,78.57 9.23,17.69 22.91,26.57 41.12,26.57 13.76,0 26.22,-5.57 37.45,-16.81 11.24,-11.24 21,-27.79 29.36,-49.57 8.97,-23.6 15.85,-49.56 20.65,-77.79 4.79,-28.22 7.14,-57.4 7.14,-87.54zm-52.27 -123.18c34.59,0 61.85,12.63 81.89,37.81 19.95,25.17 29.96,59.58 29.96,103.4 0,67.33 -15.07,123.17 -45.29,167.34 -30.23,44.16 -67.6,66.2 -112.03,66.2 -33.89,0 -60.89,-13.06 -81.1,-39.2 -20.12,-26.13 -30.23,-61.32 -30.23,-105.58 0,-66.81 14.98,-121.86 44.86,-165.16 29.88,-43.21 67.17,-64.81 111.94,-64.81zm383.99 275.45l14.81 3.83c-8.02,39.98 -16.38,65.94 -25.18,77.7 -8.71,11.85 -22.12,17.77 -40.16,17.77 -19.68,0 -44.95,-2.61 -75.78,-7.84 -30.75,-5.14 -51.14,-7.75 -61.24,-7.75 -7.41,0 -15.33,1.13 -23.7,3.57 -8.36,2.35 -18.2,6.19 -29.62,11.5l-10.88 -18.2c25.35,-31.28 60.19,-65.16 104.62,-101.75l5.14 -4.36c38.24,-31.27 64.02,-57.32 77.26,-78.05 13.33,-20.82 19.95,-42.68 19.95,-65.59 0,-24.48 -6.79,-44 -20.29,-58.46 -13.51,-14.46 -31.89,-21.69 -55.06,-21.69 -22.47,0 -41.38,6.71 -56.8,20.13 -15.41,13.41 -23.08,29.61 -23.08,48.43 0,2.79 0.17,5.58 0.52,8.45 0.35,2.87 0.87,5.75 1.48,8.71 13.85,0.26 24.66,3.75 32.58,10.19 7.93,6.45 11.85,14.9 11.85,25.44 0,7.67 -2.26,13.94 -6.97,18.82 -4.7,4.79 -10.89,7.23 -18.55,7.23 -12.55,0 -23.26,-6.54 -31.89,-19.52 -8.71,-13.06 -13.06,-29.18 -13.06,-48.34 0,-31.36 11.06,-56.89 33.27,-76.58 22.22,-19.77 51.14,-29.61 86.94,-29.61 35.37,0 63.68,10.01 85.02,30.14 21.34,20.03 32.06,46.78 32.06,80.14 0,23.08 -5.31,44.34 -15.94,63.77 -10.63,19.42 -26.57,36.84 -47.83,52.35 -4.96,3.57 -27.44,17.25 -67.51,40.94 -40.07,23.78 -72.04,48.7 -96.08,74.92 16.2,-9.06 30.31,-15.59 42.25,-19.78 12.02,-4.18 22.82,-6.27 32.58,-6.27 8.45,0 22.91,1.57 43.38,4.71 20.38,3.13 36.59,4.7 48.43,4.7 11.24,0 20.47,-3.66 27.7,-11.06 7.23,-7.41 13.86,-20.3 19.78,-38.59zm131.62 -58.72c-0.52,6.8 -0.96,12.98 -1.3,18.56 -0.35,5.66 -0.53,10.45 -0.53,14.55 0,32.31 5.67,57.93 17.08,76.74 11.41,18.9 26.57,28.31 45.64,28.31 20.56,0 37.81,-10.89 51.75,-32.75 13.94,-21.87 20.91,-49.39 20.91,-82.76 0,-22.56 -4.88,-40.24 -14.55,-52.96 -9.67,-12.81 -23.09,-19.17 -40.25,-19.17 -14.28,0 -27.79,4.01 -40.59,12.03 -12.72,7.92 -25.44,20.47 -38.16,37.45zm0.44 -27c14.11,-18.12 28.83,-31.27 44.16,-39.46 15.34,-8.19 32.85,-12.29 52.53,-12.29 26.4,0 48.61,9.5 66.73,28.58 18.12,19.07 27.18,42.86 27.18,71.25 0,37.38 -13.07,69.61 -39.29,96.7 -26.22,27.18 -57.4,40.77 -93.47,40.77 -37.11,0 -66.29,-13.59 -87.63,-40.68 -21.35,-27.18 -32.06,-64.47 -32.06,-112.03 0,-28.57 4.09,-56.01 12.37,-82.32 8.27,-26.31 20.12,-50.09 35.63,-71.35 16.81,-22.47 35.63,-39.63 56.45,-51.57 20.82,-11.93 42.68,-17.85 65.42,-17.85 26.39,0 47.56,6.79 63.41,20.29 15.95,13.51 23.87,31.28 23.87,53.4 0,13.07 -2.44,23.35 -7.4,30.75 -4.88,7.41 -11.67,11.07 -20.39,11.07 -5.4,0 -9.84,-2.01 -13.24,-6.1 -3.39,-4.1 -5.05,-9.41 -5.05,-15.86 0,-8.18 1.74,-15.5 5.14,-21.95 3.4,-6.44 8.36,-11.84 14.81,-16.29 -5.4,-12.11 -12.89,-21.17 -22.3,-27.35 -9.5,-6.1 -20.65,-9.15 -33.54,-9.15 -30.31,0 -55.23,14.81 -74.74,44.34 -19.6,29.53 -32.41,71.87 -38.59,127.1z"/>
    <path class="fil0 str0" d="M2366.28 3552.59c-1.57,8.62 -2.61,15.85 -3.31,21.52 -0.7,5.75 -1.04,10.36 -1.04,13.93 0,9.85 2.52,16.73 7.57,20.48 4.97,3.74 14.29,5.57 27.97,5.57l7.84 0 -3.31 19.34c-20.56,-1.05 -36.94,-1.66 -49.05,-2 -12.1,-0.35 -22.12,-0.53 -30.14,-0.53 -7.14,0 -16.37,0.18 -27.61,0.53 -11.24,0.34 -27.53,0.95 -48.78,2l3.13 -19.34 3.14 0c32.32,0 52.44,-22.04 60.45,-66.12l0.26 -0.26 32.93 -189.12c1.05,-5.57 1.83,-10.97 2.36,-16.2 0.52,-5.14 0.69,-9.93 0.69,-14.11 0,-6.19 -1.04,-10.54 -3.31,-13.07 -2.18,-2.53 -5.75,-3.83 -10.71,-3.83 -1.31,0 -3.66,0.26 -6.88,0.78 -3.23,0.52 -6.54,1.22 -9.94,2.01l-33.45 8.71 -4.09 -16.12c22.3,-5.23 44.86,-11.32 67.69,-18.29 22.82,-7.06 45.82,-14.81 69.16,-23.52l-51.57 287.64zm364.22 -275.62c-13.77,21.08 -25.96,35.11 -36.42,42.16 -10.45,7.06 -23.43,10.63 -38.93,10.63 -10.02,0 -23.79,-1.22 -41.21,-3.57 -17.51,-2.35 -37.37,-5.93 -59.67,-10.46l-21.43 115.43c11.76,-7.84 24.22,-13.85 37.37,-17.95 13.24,-4.09 26.92,-6.1 41.03,-6.1 31.27,0 56.54,9.15 75.79,27.53 19.25,18.38 28.83,42.51 28.83,72.3 0,37.2 -12.98,68.13 -38.94,92.78 -25.96,24.56 -58.62,36.85 -98.08,36.85 -30.32,0 -55.15,-7.58 -74.4,-22.83 -19.34,-15.24 -29.01,-34.75 -29.01,-58.54 0,-10.71 2.53,-19.51 7.67,-26.39 5.05,-6.88 11.59,-10.37 19.43,-10.37 6.96,0 12.54,2.35 16.72,7.06 4.1,4.62 6.19,10.71 6.19,18.2 0,7.67 -1.66,14.64 -4.97,20.91 -3.31,6.27 -8.62,12.37 -15.77,18.12 3.92,10.02 11.15,17.95 21.69,23.7 10.54,5.83 23,8.71 37.29,8.71 27.18,0 49.65,-10.2 67.25,-30.49 17.6,-20.3 26.39,-46.43 26.39,-78.23 0,-23.26 -6.18,-41.73 -18.46,-55.4 -12.37,-13.59 -28.93,-20.39 -49.66,-20.39 -9.67,0 -19.6,1.92 -29.79,5.84 -10.19,3.83 -21.08,9.76 -32.67,17.68l-17.85 -12.1 31.36 -179.11c32.84,6.62 62.28,11.85 88.24,15.6 25.87,3.83 44.6,5.75 56.01,5.75 7.32,0 13.33,-1.22 18.12,-3.66 4.79,-2.44 10.19,-6.97 16.29,-13.59l11.59 9.93zm1074.53 197.05l-22.91 -160.38 -75.27 160.38 98.18 0zm76.57 84.93c0.17,1.39 0.52,3.48 1.04,6.36 4.88,30.49 20.04,46.34 45.39,47.74l0 20.38c-23.17,-1.05 -39.11,-1.74 -47.82,-2.09 -8.8,-0.35 -15.69,-0.52 -20.82,-0.52 -8.63,0 -19,0.17 -31.02,0.61 -11.93,0.43 -27,1.13 -45.03,2l0 -20.38c15.68,-0.88 25.78,-3.05 30.22,-6.54 4.53,-3.48 6.8,-10.1 6.8,-20.03 0,-2.53 -0.17,-5.49 -0.52,-8.8 -0.35,-3.31 -0.87,-6.97 -1.57,-11.06l-10.45 -71.7 -109.68 0 -36.24 76.05c-2.17,4.88 -3.92,9.67 -5.22,14.11 -1.31,4.53 -1.92,8.28 -1.92,11.41 0,6.1 2.18,10.28 6.53,12.64 4.36,2.26 13.42,3.57 27.27,3.92l0.17 20.38c-14.54,-1.05 -25.78,-1.74 -33.53,-2.09 -7.67,-0.35 -13.94,-0.52 -18.73,-0.52 -3.57,0 -8.54,0.17 -15.07,0.52 -6.45,0.35 -17.86,1.04 -34.15,2.09l0.26 -20.38c11.06,-0.35 20.21,-3.58 27.53,-9.85 7.31,-6.18 16.72,-21.34 28.31,-45.56l121.61 -251.4c6.01,-6.62 11.67,-14.03 16.98,-22.04 5.4,-8.1 10.72,-17.34 15.94,-27.7l33.98 -5.14 49.74 307.59zm233.54 -43.64l16.12 -81.89c-1.74,-10.19 -5.75,-18.47 -12.2,-24.74 -6.36,-6.27 -13.59,-9.41 -21.78,-9.41 -10.54,0 -20.38,3.4 -29.53,10.2 -9.06,6.79 -17.51,17.16 -25.35,31.09 -9.93,17.34 -18.11,37.11 -24.65,59.41 -6.53,22.31 -9.84,40.6 -9.84,55.06 0,12.72 2.87,23 8.71,30.75 5.75,7.75 13.5,11.59 23.17,11.59 6.36,0 12.63,-1.83 19.08,-5.58 6.36,-3.75 13.07,-9.58 20.03,-17.33 8.72,-9.94 16.56,-21 23.79,-33.46 7.14,-12.37 11.23,-20.99 12.45,-25.69zm27.62 -132.76l54.35 0c-10.36,46.6 -21.16,99.31 -32.31,157.93 -11.15,58.72 -18.3,94.17 -21.61,106.45 -8.97,34.32 -24.56,60.37 -46.78,78.05 -22.21,17.69 -50.35,26.57 -84.41,26.57 -25.09,0 -45.12,-5.22 -60.28,-15.59 -15.16,-10.37 -22.73,-23.96 -22.73,-40.85 0,-8.8 2.35,-16.21 7.14,-22.04 4.79,-5.84 10.8,-8.8 17.94,-8.8 6.8,0 12.2,2.18 16.12,6.53 3.92,4.36 5.92,10.19 5.92,17.51 0,4.44 -1.3,9.76 -4,15.94 -2.62,6.27 -3.92,10.37 -3.92,12.37 0,4.44 4,8.45 12.02,11.94 7.92,3.48 17.59,5.22 28.83,5.22 24.65,0 43.91,-11.41 57.76,-34.23 13.85,-22.83 27.17,-68.73 39.89,-137.9 -14.81,23.17 -29.61,40.07 -44.51,50.87 -14.9,10.81 -30.93,16.21 -48.17,16.21 -19.26,0 -34.41,-6.97 -45.65,-20.82 -11.24,-13.85 -16.9,-32.76 -16.9,-56.71 0,-19.52 3.57,-39.9 10.71,-61.07 7.15,-21.17 16.99,-40.24 29.36,-57.23 12.81,-17.68 27.35,-31.36 43.73,-41.03 16.29,-9.67 32.84,-14.55 49.48,-14.55 11.59,0 21.69,2.27 30.4,6.88 8.71,4.62 16.21,11.59 22.48,20.91l5.14 -22.56zm233.46 -5.23c27.7,0 50.17,9.67 67.34,28.92 17.16,19.34 25.78,44.78 25.78,76.23 0,42.85 -13.94,79.53 -41.81,110.02 -27.97,30.4 -61.33,45.64 -100.36,45.64 -30.05,0 -53.74,-9.4 -70.9,-28.31 -17.17,-18.9 -25.79,-44.95 -25.79,-78.14 0,-42.16 14.2,-78.4 42.51,-108.8 28.31,-30.4 62.72,-45.56 103.23,-45.56zm36.15 71.61c0,-17.34 -3.31,-30.67 -9.93,-39.9 -6.62,-9.32 -16.03,-13.94 -28.31,-13.94 -10.54,0 -20.39,3.4 -29.53,10.19 -9.24,6.8 -17.43,16.82 -24.74,30.15 -9.5,17.68 -17.25,38.59 -23.09,62.89 -5.83,24.22 -8.8,47.3 -8.8,69.25 0,17.34 3.4,30.49 10.2,39.38 6.79,8.97 16.81,13.41 30.05,13.41 10.54,0 20.82,-4.35 30.75,-13.15 9.93,-8.71 18.47,-20.99 25.61,-36.59 8.36,-18.2 15.07,-38.41 20.12,-60.63 5.14,-22.12 7.67,-42.51 7.67,-61.06zm243.47 -38.51c-5.14,-5.48 -11.06,-9.49 -17.86,-12.02 -6.79,-2.52 -14.8,-3.83 -23.95,-3.83 -13.33,0 -24.13,3.57 -32.41,10.63 -8.36,7.05 -12.54,16.2 -12.54,27.61 0,16.2 13.59,31.54 40.68,46 3.05,1.48 5.31,2.7 6.88,3.57 24.31,13.24 40.33,25.09 48.26,35.63 7.93,10.45 11.85,23.52 11.85,39.2 0,24.13 -8.62,43.64 -25.87,58.54 -17.25,14.89 -39.99,22.38 -68.21,22.38 -25,0 -45.47,-5.83 -61.33,-17.42 -15.94,-11.58 -23.87,-26.31 -23.87,-44.16 0,-9.24 2.36,-16.82 7.15,-22.91 4.7,-6.01 10.71,-9.06 18.03,-9.06 6.1,0 11.24,2.09 15.24,6.27 4.1,4.18 6.19,9.41 6.19,15.68 0,5.92 -1.66,12.28 -4.79,18.99 -3.14,6.71 -4.71,10.71 -4.71,11.85 0,5.66 4.62,10.97 13.94,16.02 9.32,4.97 20.12,7.5 32.58,7.5 14.81,0 26.48,-3.75 34.93,-11.24 8.45,-7.49 12.63,-17.86 12.63,-31.1 0,-16.55 -13.24,-31.8 -39.63,-45.73 -3.23,-1.66 -5.84,-3.05 -7.67,-4.1 -21.78,-11.67 -36.76,-22.91 -44.95,-33.62 -8.19,-10.72 -12.28,-23.61 -12.28,-38.77 0,-23.43 8.01,-42.42 24.13,-57.06 16.12,-14.63 37.54,-21.95 64.29,-21.95 23.43,0 42.94,5.23 58.36,15.77 15.42,10.54 23.09,23.61 23.09,39.29 0,8.1 -2.01,14.72 -6.1,19.6 -4.09,4.96 -9.58,7.4 -16.38,7.4 -6.53,0 -11.93,-2.26 -16.37,-6.79 -4.45,-4.45 -6.71,-10.02 -6.71,-16.73 0,-3.4 0.61,-7.14 1.83,-11.32 1.13,-4.19 3.05,-8.89 5.57,-14.12zm199.75 -100l-17.6 87.29 62.29 0 -3.31 18.81 -63.33 0 -31.97 157.41c-0.09,1.05 -0.26,2.35 -0.44,3.84 -1.04,5.48 -1.56,9.23 -1.56,11.23 0,7.49 1.91,13.51 5.66,17.95 3.74,4.44 8.62,6.62 14.72,6.62 9.76,0 19.43,-4.88 29.01,-14.55 9.67,-9.76 18.99,-24.22 27.96,-43.47l12.81 7.41c-11.59,26.39 -24.74,45.64 -39.38,57.66 -14.63,12.03 -32.23,18.04 -52.79,18.04 -17.07,0 -30.23,-4.01 -39.46,-12.02 -9.32,-8.02 -13.94,-19.52 -13.94,-34.5 0,-4.62 1.48,-13.94 4.36,-27.88l0.52 -2.61 30.14 -145.13 -43.99 0 3.31 -18.81 44.95 0 18.9 -87.29 53.14 0zm214.3 66.9c27.7,0 50.17,9.67 67.34,28.92 17.16,19.34 25.78,44.78 25.78,76.23 0,42.85 -13.94,79.53 -41.81,110.02 -27.97,30.4 -61.33,45.64 -100.36,45.64 -30.05,0 -53.74,-9.4 -70.9,-28.31 -17.17,-18.9 -25.79,-44.95 -25.79,-78.14 0,-42.16 14.2,-78.4 42.51,-108.8 28.31,-30.4 62.72,-45.56 103.23,-45.56zm36.15 71.61c0,-17.34 -3.31,-30.67 -9.93,-39.9 -6.62,-9.32 -16.03,-13.94 -28.31,-13.94 -10.54,0 -20.39,3.4 -29.53,10.19 -9.24,6.8 -17.43,16.82 -24.74,30.15 -9.5,17.68 -17.25,38.59 -23.09,62.89 -5.83,24.22 -8.8,47.3 -8.8,69.25 0,17.34 3.4,30.49 10.2,39.38 6.79,8.97 16.81,13.41 30.05,13.41 10.54,0 20.82,-4.35 30.75,-13.15 9.93,-8.71 18.47,-20.99 25.61,-36.59 8.36,-18.2 15.07,-38.41 20.12,-60.63 5.14,-22.12 7.67,-42.51 7.67,-61.06z"/>
   </g>
  </g>
 </g>
</svg>
